Mirza-Bold.ufo
<glyph name="quotedbl" format="1">
  <advance width="322"/>
  <unicode hex="0022"/>
  <outline>
    <contour>
      <point x="280" y="307" type="line"/>
      <point x="280" y="401"/>
      <point x="281" y="468"/>
      <point x="292" y="549" type="curve"/>
      <point x="247" y="549"/>
      <point x="218" y="544"/>
      <point x="181" y="530" type="curve"/>
      <point x="181" y="376" type="line"/>
      <point x="207" y="353"/>
      <point x="230" y="330"/>
      <point x="249" y="307" type="curve"/>
    </contour>
    <contour>
      <point x="119" y="307" type="line"/>
      <point x="119" y="401"/>
      <point x="120" y="468"/>
      <point x="131" y="549" type="curve"/>
      <point x="86" y="549"/>
      <point x="57" y="544"/>
      <point x="20" y="530" type="curve"/>
      <point x="20" y="376" type="line"/>
      <point x="46" y="353"/>
      <point x="69" y="330"/>
      <point x="88" y="307" type="curve"/>
    </contour>
  </outline>
</glyph>
<glyph name="period" format="1">
  <advance width="210"/>
  <unicode hex="002E"/>
  <outline>
    <contour>
      <point x="139" y="13"/>
      <point x="167" y="41"/>
      <point x="195" y="75" type="curve"/>
      <point x="161" y="103"/>
      <point x="133" y="131"/>
      <point x="105" y="165" type="curve"/>
      <point x="71" y="137"/>
      <point x="43" y="109"/>
      <point x="15" y="75" type="curve"/>
      <point x="49" y="47"/>
      <point x="77" y="19"/>
      <point x="105" y="-15" type="curve"/>
    </contour>
  </outline>
</glyph>
<glyph name="uni0604" format="1">
  <advance width="600"/>
  <unicode hex="0604"/>
  <outline>
    <contour>
      <point x="1192" y="201"/>
      <point x="1176" y="179"/>
      <point x="1156" y="149" type="curve"/>
      <point x="1205" y="80" type="line"/>
      <point x="1193" y="60"/>
      <point x="1181" y="50"/>
      <point x="1152" y="50" type="curve" smooth="yes"/>
      <point x="1139" y="50"/>
      <point x="1117" y="52"/>
      <point x="1105" y="65" type="curve"/>
      <point x="1093" y="77"/>
      <point x="1090" y="99"/>
      <point x="1091" y="119" type="curve"/>
      <point x="1092" y="128"/>
      <point x="1094" y="145"/>
      <point x="1095" y="155" type="curve"/>
      <point x="1044" y="136" type="line"/>
      <point x="1044" y="128"/>
      <point x="1043" y="121"/>
      <point x="1042" y="114" type="curve" smooth="yes"/>
      <point x="1035" y="77"/>
      <point x="1014" y="48"/>
      <point x="976" y="48" type="curve" smooth="yes"/>
      <point x="936" y="48"/>
      <point x="923" y="77"/>
      <point x="905" y="101" type="curve" smooth="yes"/>
      <point x="892" y="119"/>
      <point x="877" y="134"/>
      <point x="847" y="134" type="curve" smooth="yes"/>
      <point x="828" y="134"/>
      <point x="807" y="128"/>
      <point x="786" y="116" type="curve" smooth="yes"/>
      <point x="764" y="103"/>
      <point x="741" y="81"/>
      <point x="726" y="60" type="curve" smooth="yes"/>
      <point x="716" y="46"/>
      <point x="703" y="23"/>
      <point x="697" y="7" type="curve" smooth="yes"/>
      <point x="690" y="-12"/>
      <point x="686" y="-37"/>
      <point x="687" y="-61" type="curve"/>
      <point x="677" y="-63"/>
      <point x="635" y="-60"/>
      <point x="610" y="-59" type="curve"/>
      <point x="-41" y="-59" type="line"/>
      <point x="-71" y="-59"/>
      <point x="-93" y="-57"/>
      <point x="-119" y="-51" type="curve"/>
      <point x="-146" y="-111"/>
      <point x="-154" y="-144"/>
      <point x="-159" y="-203" type="curve"/>
      <point x="-126" y="-200"/>
      <point x="-99" y="-198"/>
      <point x="-65" y="-198" type="curve"/>
      <point x="606" y="-198" type="line" smooth="yes"/>
      <point x="654" y="-198"/>
      <point x="691" y="-188"/>
      <point x="730" y="-188" type="curve" smooth="yes"/>
      <point x="758" y="-188"/>
      <point x="795" y="-197"/>
      <point x="844" y="-225" type="curve"/>
      <point x="864" y="-166"/>
      <point x="869" y="-132"/>
      <point x="869" y="-85" type="curve"/>
      <point x="810" y="-70"/>
      <point x="759" y="-53"/>
      <point x="759" y="-24" type="curve" smooth="yes"/>
      <point x="759" y="-2"/>
      <point x="790" y="32"/>
      <point x="831" y="32" type="curve" smooth="yes"/>
      <point x="871" y="32"/>
      <point x="888" y="-1"/>
      <point x="905" y="-30" type="curve" smooth="yes"/>
      <point x="917" y="-51"/>
      <point x="936" y="-81"/>
      <point x="984" y="-81" type="curve" smooth="yes"/>
      <point x="1036" y="-81"/>
      <point x="1054" y="-47"/>
      <point x="1062" y="-32" type="curve"/>
      <point x="1070" y="-47"/>
      <point x="1099" y="-75"/>
      <point x="1147" y="-75" type="curve" smooth="yes"/>
      <point x="1191" y="-75"/>
      <point x="1227" y="-51"/>
      <point x="1250" y="-8" type="curve" smooth="yes"/>
      <point x="1270" y="30"/>
      <point x="1274" y="69"/>
      <point x="1274" y="91" type="curve" smooth="yes"/>
      <point x="1274" y="133"/>
      <point x="1259" y="182"/>
      <point x="1216" y="227" type="curve"/>
    </contour>
  </outline>
</glyph>
<glyph name="uni0614" format="1">
  <advance width="0"/>
  <unicode hex="0614"/>
  <outline>
    <contour>
      <point x="112" y="777"/>
      <point x="102" y="747"/>
      <point x="70" y="747" type="curve" smooth="yes"/>
      <point x="51" y="747" type="line" smooth="yes"/>
      <point x="41" y="747"/>
      <point x="35" y="749"/>
      <point x="31" y="754" type="curve"/>
      <point x="23" y="763"/>
      <point x="27" y="776"/>
      <point x="27" y="776" type="curve"/>
      <point x="10" y="770" type="line"/>
      <point x="10" y="770"/>
      <point x="8" y="747"/>
      <point x="-16" y="747" type="curve" smooth="yes"/>
      <point x="-120" y="747" type="line"/>
      <point x="-103" y="700" type="line"/>
      <point x="-14" y="700" type="line" smooth="yes"/>
      <point x="-3" y="700"/>
      <point x="6" y="704"/>
      <point x="11" y="708" type="curve" smooth="yes"/>
      <point x="17" y="712"/>
      <point x="20" y="716"/>
      <point x="20" y="717" type="curve"/>
      <point x="20" y="716"/>
      <point x="22" y="712"/>
      <point x="28" y="708" type="curve" smooth="yes"/>
      <point x="34" y="704"/>
      <point x="42" y="700"/>
      <point x="56" y="700" type="curve" smooth="yes"/>
      <point x="67" y="700" type="line" smooth="yes"/>
      <point x="85" y="700"/>
      <point x="99" y="708"/>
      <point x="108" y="722" type="curve" smooth="yes"/>
      <point x="116" y="734"/>
      <point x="120" y="750"/>
      <point x="120" y="765" type="curve" smooth="yes"/>
      <point x="120" y="767"/>
      <point x="120" y="770"/>
      <point x="120" y="773" type="curve"/>
      <point x="112" y="777" type="line"/>
    </contour>
    <contour>
      <point x="0" y="777" type="move" name="top"/>
    </contour>
    <contour>
      <point x="0" y="680" type="move" name="_top"/>
    </contour>
  </outline>
</glyph>
<glyph name="uni0616" format="1">
  <advance width="0"/>
  <unicode hex="0616"/>
  <outline>
    <contour>
      <point x="-117" y="727"/>
      <point x="-115" y="718"/>
      <point x="-105" y="710" type="curve"/>
      <point x="-95" y="704"/>
      <point x="-80" y="700"/>
      <point x="-61" y="700" type="curve" smooth="yes"/>
      <point x="18" y="700" type="line"/>
      <point x="28" y="712"/>
      <point x="34" y="722"/>
      <point x="40" y="736" type="curve"/>
      <point x="-65" y="736" type="line" smooth="yes"/>
      <point x="-84" y="736"/>
      <point x="-90" y="738"/>
      <point x="-90" y="742" type="curve" smooth="yes"/>
      <point x="-90" y="745"/>
      <point x="-88" y="747"/>
      <point x="-85" y="748" type="curve" smooth="yes"/>
      <point x="-79" y="750"/>
      <point x="-73" y="752"/>
      <point x="-70" y="754" type="curve"/>
      <point x="-64" y="757"/>
      <point x="-55" y="764"/>
      <point x="-53" y="766" type="curve" smooth="yes"/>
      <point x="-52" y="767"/>
      <point x="-45" y="773"/>
      <point x="-32" y="773" type="curve" smooth="yes"/>
      <point x="27" y="773" type="line" smooth="yes"/>
      <point x="33" y="773"/>
      <point x="38" y="774"/>
      <point x="43" y="776" type="curve" smooth="yes"/>
      <point x="48" y="778"/>
      <point x="52" y="781"/>
      <point x="56" y="785" type="curve"/>
      <point x="63" y="793"/>
      <point x="67" y="804"/>
      <point x="67" y="818" type="curve" smooth="yes"/>
      <point x="67" y="825"/>
      <point x="65" y="841"/>
      <point x="63" y="856" type="curve" smooth="yes"/>
      <point x="62" y="862"/>
      <point x="61" y="869"/>
      <point x="60" y="875" type="curve"/>
      <point x="57" y="890"/>
      <point x="67" y="894"/>
      <point x="70" y="895" type="curve"/>
      <point x="59" y="907"/>
      <point x="52" y="914"/>
      <point x="47" y="928" type="curve"/>
      <point x="28" y="899" type="line"/>
      <point x="34" y="881"/>
      <point x="44" y="838"/>
      <point x="46" y="818" type="curve"/>
      <point x="45" y="816"/>
      <point x="38" y="808"/>
      <point x="26" y="808" type="curve" smooth="yes"/>
      <point x="-9" y="808" type="line" smooth="yes"/>
      <point x="-22" y="808"/>
      <point x="-31" y="805"/>
      <point x="-38" y="802" type="curve"/>
      <point x="-44" y="798"/>
      <point x="-49" y="794"/>
      <point x="-51" y="791" type="curve"/>
      <point x="-55" y="787"/>
      <point x="-63" y="783"/>
      <point x="-74" y="777" type="curve"/>
      <point x="-83" y="773"/>
      <point x="-93" y="768"/>
      <point x="-101" y="762" type="curve"/>
      <point x="-108" y="756"/>
      <point x="-117" y="748"/>
      <point x="-117" y="732" type="curve" smooth="yes"/>
    </contour>
    <contour>
      <point x="82" y="903"/>
      <point x="82" y="889"/>
      <point x="85" y="862" type="curve"/>
      <point x="86" y="844"/>
      <point x="88" y="835"/>
      <point x="89" y="826" type="curve" smooth="yes"/>
      <point x="90" y="818"/>
      <point x="91" y="816"/>
      <point x="92" y="807" type="curve"/>
      <point x="93" y="790"/>
      <point x="92" y="773"/>
      <point x="92" y="773" type="curve"/>
      <point x="104" y="773" type="line"/>
      <point x="104" y="773"/>
      <point x="107" y="779"/>
      <point x="110" y="791" type="curve"/>
      <point x="114" y="811"/>
      <point x="116" y="841"/>
      <point x="111" y="882" type="curve"/>
      <point x="109" y="898"/>
      <point x="109" y="912"/>
      <point x="109" y="928" type="curve"/>
      <point x="98" y="928" type="line"/>
      <point x="95" y="925"/>
      <point x="88" y="915"/>
      <point x="82" y="903" type="curve"/>
    </contour>
    <contour>
      <point x="-2" y="928" type="move" name="top"/>
    </contour>
    <contour>
      <point x="-2" y="680" type="move" name="_top"/>
    </contour>
  </outline>
</glyph>
<glyph name="uni0617" format="1">
  <advance width="0"/>
  <unicode hex="0617"/>
  <outline>
    <contour>
      <point x="59" y="821"/>
      <point x="50" y="839"/>
      <point x="41" y="851" type="curve" smooth="yes"/>
      <point x="35" y="859"/>
      <point x="31" y="862"/>
      <point x="31" y="862" type="curve"/>
      <point x="22" y="852"/>
      <point x="13" y="840"/>
      <point x="6" y="827" type="curve"/>
      <point x="6" y="827"/>
      <point x="13" y="822"/>
      <point x="21" y="812" type="curve" smooth="yes"/>
      <point x="27" y="805"/>
      <point x="32" y="796"/>
      <point x="32" y="784" type="curve" smooth="yes"/>
      <point x="32" y="765"/>
      <point x="14" y="753"/>
      <point x="-10" y="738" type="curve" smooth="yes"/>
      <point x="-33" y="726"/>
      <point x="-57" y="713"/>
      <point x="-61" y="711" type="curve"/>
      <point x="-50" y="697" type="line"/>
      <point x="-42" y="700"/>
      <point x="-31" y="700"/>
      <point x="-24" y="700" type="curve" smooth="yes"/>
      <point x="-17" y="700"/>
      <point x="-15" y="700"/>
      <point x="-6" y="700" type="curve" smooth="yes"/>
      <point x="6" y="700"/>
      <point x="16" y="702"/>
      <point x="24" y="708" type="curve"/>
      <point x="31" y="713"/>
      <point x="38" y="721"/>
      <point x="43" y="730" type="curve" smooth="yes"/>
      <point x="55" y="750"/>
      <point x="59" y="776"/>
      <point x="59" y="793" type="curve" smooth="yes"/>
    </contour>
    <contour>
      <point x="47" y="909"/>
      <point x="38" y="919"/>
      <point x="28" y="924" type="curve"/>
      <point x="25" y="921"/>
      <point x="13" y="908"/>
      <point x="7" y="902" type="curve"/>
      <point x="16" y="896"/>
      <point x="24" y="887"/>
      <point x="30" y="880" type="curve"/>
      <point x="37" y="886"/>
      <point x="48" y="898"/>
      <point x="51" y="902" type="curve"/>
    </contour>
    <contour>
      <point x="-1" y="924" type="move" name="top"/>
    </contour>
    <contour>
      <point x="-1" y="677" type="move" name="_top"/>
    </contour>
  </outline>
</glyph>
<glyph name="question-ar" format="1">
  <advance width="384"/>
  <unicode hex="061F"/>
  <outline>
    <contour>
      <point x="259" y="297" type="line"/>
      <point x="202" y="323"/>
      <point x="172" y="361"/>
      <point x="172" y="408" type="curve" smooth="yes"/>
      <point x="172" y="457"/>
      <point x="201" y="486"/>
      <point x="251" y="486" type="curve" smooth="yes"/>
      <point x="294" y="486"/>
      <point x="334" y="463"/>
      <point x="355" y="425" type="curve"/>
      <point x="365" y="456"/>
      <point x="369" y="482"/>
      <point x="369" y="518" type="curve"/>
      <point x="325" y="548"/>
      <point x="272" y="564"/>
      <point x="215" y="564" type="curve" smooth="yes"/>
      <point x="95" y="564"/>
      <point x="30" y="511"/>
      <point x="30" y="413" type="curve" smooth="yes"/>
      <point x="30" y="324"/>
      <point x="116" y="249"/>
      <point x="235" y="233" type="curve"/>
    </contour>
    <contour>
      <point x="253" y="36"/>
      <point x="281" y="64"/>
      <point x="315" y="92" type="curve"/>
      <point x="287" y="126"/>
      <point x="259" y="154"/>
      <point x="225" y="182" type="curve"/>
      <point x="197" y="148"/>
      <point x="169" y="120"/>
      <point x="135" y="92" type="curve"/>
      <point x="163" y="58"/>
      <point x="191" y="30"/>
      <point x="225" y="2" type="curve"/>
    </contour>
  </outline>
</glyph>
<glyph name="kaf-ar" format="1">
  <advance width="788"/>
  <unicode hex="0643"/>
  <outline>
    <contour>
      <point x="702" y="519"/>
      <point x="672" y="564"/>
      <point x="651" y="612" type="curve"/>
      <point x="576" y="497" type="line"/>
      <point x="588" y="456"/>
      <point x="597" y="431"/>
      <point x="613" y="367" type="curve" smooth="yes"/>
      <point x="625" y="319"/>
      <point x="638" y="262"/>
      <point x="648" y="176" type="curve"/>
      <point x="639" y="162"/>
      <point x="618" y="139"/>
      <point x="580" y="135" type="curve"/>
      <point x="562" y="134"/>
      <point x="542" y="133"/>
      <point x="471" y="133" type="curve" smooth="yes"/>
      <point x="400" y="133"/>
      <point x="301" y="134"/>
      <point x="244" y="141" type="curve" smooth="yes"/>
      <point x="212" y="145"/>
      <point x="169" y="154"/>
      <point x="141" y="183" type="curve" smooth="yes"/>
      <point x="126" y="199"/>
      <point x="113" y="223"/>
      <point x="111" y="258" type="curve"/>
      <point x="66" y="269" type="line"/>
      <point x="56" y="198"/>
      <point x="58" y="144"/>
      <point x="79" y="100" type="curve" smooth="yes"/>
      <point x="93" y="70"/>
      <point x="118" y="44"/>
      <point x="148" y="28" type="curve" smooth="yes"/>
      <point x="173" y="15"/>
      <point x="203" y="5"/>
      <point x="241" y="-1" type="curve" smooth="yes"/>
      <point x="281" y="-7"/>
      <point x="339" y="-9"/>
      <point x="381" y="-9" type="curve" smooth="yes"/>
      <point x="411" y="-9"/>
      <point x="517" y="-8"/>
      <point x="566" y="-7" type="curve" smooth="yes"/>
      <point x="605" y="-6"/>
      <point x="651" y="3"/>
      <point x="687" y="46" type="curve" smooth="yes"/>
      <point x="713" y="77"/>
      <point x="730" y="122"/>
      <point x="730" y="178" type="curve" smooth="yes"/>
      <point x="730" y="205"/>
      <point x="726" y="229"/>
      <point x="712" y="328" type="curve" smooth="yes"/>
      <point x="708" y="353"/>
      <point x="705" y="377"/>
      <point x="701" y="402" type="curve"/>
      <point x="698" y="445"/>
      <point x="703" y="456"/>
      <point x="738" y="483" type="curve"/>
    </contour>
    <contour>
      <point x="485" y="305"/>
      <point x="453" y="310"/>
      <point x="422" y="310" type="curve" smooth="yes"/>
      <point x="406" y="310"/>
      <point x="392" y="312"/>
      <point x="392" y="319" type="curve"/>
      <point x="403" y="329"/>
      <point x="422" y="339"/>
      <point x="447" y="345" type="curve"/>
      <point x="461" y="363"/>
      <point x="468" y="376"/>
      <point x="482" y="406" type="curve"/>
      <point x="451" y="400"/>
      <point x="422" y="392"/>
      <point x="388" y="376" type="curve"/>
      <point x="352" y="356"/>
      <point x="333" y="331"/>
      <point x="333" y="302" type="curve" smooth="yes"/>
      <point x="333" y="272"/>
      <point x="359" y="263"/>
      <point x="389" y="263" type="curve" smooth="yes"/>
      <point x="406" y="263"/>
      <point x="415" y="262"/>
      <point x="415" y="256" type="curve"/>
      <point x="415" y="244"/>
      <point x="329" y="217"/>
      <point x="272" y="203" type="curve"/>
      <point x="319" y="191"/>
      <point x="364" y="188"/>
      <point x="414" y="197" type="curve" smooth="yes"/>
      <point x="465" y="227"/>
      <point x="485" y="251"/>
      <point x="485" y="279" type="curve" smooth="yes"/>
    </contour>
    <contour>
      <point x="398" y="423" type="move" name="top"/>
    </contour>
    <contour>
      <point x="400" y="-52" type="move" name="bottom"/>
    </contour>
  </outline>
</glyph>
<glyph name="uni0644" format="1">
  <advance width="577"/>
  <unicode hex="0644"/>
  <outline>
    <contour>
      <point x="490" y="601"/>
      <point x="468" y="639"/>
      <point x="439" y="698" type="curve"/>
      <point x="364" y="587" type="line"/>
      <point x="394" y="448"/>
      <point x="410" y="372"/>
      <point x="431" y="259" type="curve" smooth="yes"/>
      <point x="444" y="188"/>
      <point x="452" y="141"/>
      <point x="452" y="117" type="curve" smooth="yes"/>
      <point x="452" y="90"/>
      <point x="442" y="72"/>
      <point x="422" y="58" type="curve" smooth="yes"/>
      <point x="395" y="39"/>
      <point x="351" y="27"/>
      <point x="302" y="27" type="curve" smooth="yes"/>
      <point x="259" y="27"/>
      <point x="226" y="36"/>
      <point x="208" y="43" type="curve" smooth="yes"/>
      <point x="182" y="53"/>
      <point x="166" y="66"/>
      <point x="157" y="76" type="curve" smooth="yes"/>
      <point x="126" y="110"/>
      <point x="132" y="171"/>
      <point x="141" y="212" type="curve"/>
      <point x="98" y="228" type="line"/>
      <point x="72" y="159"/>
      <point x="62" y="125"/>
      <point x="60" y="90" type="curve" smooth="yes"/>
      <point x="58" y="57"/>
      <point x="63" y="21"/>
      <point x="74" y="-7" type="curve" smooth="yes"/>
      <point x="89" y="-45"/>
      <point x="118" y="-76"/>
      <point x="156" y="-96" type="curve" smooth="yes"/>
      <point x="194" y="-116"/>
      <point x="240" y="-126"/>
      <point x="294" y="-126" type="curve" smooth="yes"/>
      <point x="367" y="-126"/>
      <point x="429" y="-104"/>
      <point x="469" y="-58" type="curve" smooth="yes"/>
      <point x="493" y="-30"/>
      <point x="510" y="6"/>
      <point x="519" y="49" type="curve" smooth="yes"/>
      <point x="527" y="87"/>
      <point x="528" y="129"/>
      <point x="523" y="175" type="curve"/>
      <point x="517" y="246"/>
      <point x="508" y="346"/>
      <point x="489" y="494" type="curve"/>
      <point x="482" y="535"/>
      <point x="494" y="554"/>
      <point x="527" y="572" type="curve"/>
    </contour>
    <contour>
      <point x="323" y="690" type="move" name="top"/>
    </contour>
    <contour>
      <point x="294" y="-156" type="move" name="bottom"/>
    </contour>
  </outline>
</glyph>
<glyph name="uni0654" format="1">
  <advance width="0"/>
  <unicode hex="0654"/>
  <outline>
    <contour>
      <point x="78" y="798"/>
      <point x="63" y="795"/>
      <point x="48" y="793" type="curve" smooth="yes"/>
      <point x="30" y="791"/>
      <point x="23" y="790"/>
      <point x="7" y="794" type="curve" smooth="yes"/>
      <point x="-15" y="800"/>
      <point x="-22" y="811"/>
      <point x="-24" y="816" type="curve"/>
      <point x="-17" y="820"/>
      <point x="-1" y="828"/>
      <point x="20" y="828" type="curve" smooth="yes"/>
      <point x="30" y="828"/>
      <point x="40" y="825"/>
      <point x="51" y="821" type="curve"/>
      <point x="65" y="835" type="line"/>
      <point x="63" y="855"/>
      <point x="50" y="875"/>
      <point x="16" y="875" type="curve" smooth="yes"/>
      <point x="-4" y="875"/>
      <point x="-24" y="868"/>
      <point x="-44" y="852" type="curve" smooth="yes"/>
      <point x="-57" y="841"/>
      <point x="-69" y="827"/>
      <point x="-73" y="822" type="curve" smooth="yes"/>
      <point x="-77" y="816"/>
      <point x="-79" y="811"/>
      <point x="-79" y="804" type="curve" smooth="yes"/>
      <point x="-79" y="791"/>
      <point x="-70" y="774"/>
      <point x="-46" y="764" type="curve"/>
      <point x="-61" y="755"/>
      <point x="-81" y="742"/>
      <point x="-90" y="729" type="curve" smooth="yes"/>
      <point x="-95" y="722"/>
      <point x="-94" y="716"/>
      <point x="-93" y="712" type="curve" smooth="yes"/>
      <point x="-90" y="703"/>
      <point x="-84" y="700"/>
      <point x="-77" y="700" type="curve" smooth="yes"/>
      <point x="-77" y="700"/>
      <point x="-44" y="721"/>
      <point x="-7" y="733" type="curve" smooth="yes"/>
      <point x="16" y="742"/>
      <point x="41" y="749"/>
      <point x="65" y="750" type="curve"/>
      <point x="77" y="768"/>
      <point x="85" y="780"/>
      <point x="93" y="800" type="curve"/>
    </contour>
    <contour>
      <point x="0" y="875" type="move" name="top"/>
    </contour>
    <contour>
      <point x="0" y="670" type="move" name="_top"/>
    </contour>
  </outline>
</glyph>
<glyph name="alefbelow-ar" format="1">
  <advance width="0"/>
  <unicode hex="0656"/>
  <outline>
    <contour>
      <point x="34" y="-285"/>
      <point x="31" y="-235"/>
      <point x="8" y="-193" type="curve"/>
      <point x="-10" y="-204"/>
      <point x="-19" y="-213"/>
      <point x="-35" y="-228" type="curve"/>
      <point x="-15" y="-259"/>
      <point x="-3" y="-293"/>
      <point x="-6" y="-348" type="curve"/>
      <point x="26" y="-337" type="line"/>
    </contour>
    <contour>
      <point x="-2" y="-173" type="move" name="_bottom"/>
    </contour>
    <contour>
      <point x="-2" y="-348" type="move" name="bottom"/>
    </contour>
  </outline>
</glyph>
<glyph name="uni065B" format="1">
  <advance width="0"/>
  <unicode hex="065B"/>
  <outline>
    <contour>
      <point x="-67" y="725"/>
      <point x="-62" y="714"/>
      <point x="-54" y="700" type="curve"/>
      <point x="-44" y="713"/>
      <point x="-35" y="725"/>
      <point x="-27" y="739" type="curve" smooth="yes"/>
      <point x="-21" y="747"/>
      <point x="-16" y="755"/>
      <point x="-11" y="763" type="curve" smooth="yes"/>
      <point x="-6" y="773"/>
      <point x="-2" y="783"/>
      <point x="2" y="792" type="curve"/>
      <point x="5" y="782"/>
      <point x="10" y="773"/>
      <point x="15" y="762" type="curve" smooth="yes"/>
      <point x="19" y="755"/>
      <point x="24" y="747"/>
      <point x="29" y="739" type="curve" smooth="yes"/>
      <point x="37" y="726"/>
      <point x="47" y="713"/>
      <point x="57" y="700" type="curve"/>
      <point x="65" y="713"/>
      <point x="70" y="723"/>
      <point x="74" y="737" type="curve"/>
      <point x="50" y="765"/>
      <point x="32" y="794"/>
      <point x="22" y="821" type="curve" smooth="yes"/>
      <point x="17" y="838"/>
      <point x="15" y="849"/>
      <point x="13" y="869" type="curve"/>
      <point x="-9" y="869" type="line"/>
      <point x="-11" y="850"/>
      <point x="-13" y="836"/>
      <point x="-19" y="820" type="curve" smooth="yes"/>
      <point x="-30" y="792"/>
      <point x="-47" y="764"/>
      <point x="-71" y="737" type="curve"/>
    </contour>
    <contour>
      <point x="2" y="869" type="move" name="top"/>
    </contour>
    <contour>
      <point x="2" y="680" type="move" name="_top"/>
    </contour>
  </outline>
</glyph>
<glyph name="uni0661" format="1">
  <advance width="274"/>
  <unicode hex="0661"/>
  <outline>
    <contour>
      <point x="87" y="538"/>
      <point x="71" y="512"/>
      <point x="50" y="468" type="curve"/>
      <point x="82" y="412"/>
      <point x="106" y="352"/>
      <point x="122" y="288" type="curve" smooth="yes"/>
      <point x="146" y="194"/>
      <point x="154" y="103"/>
      <point x="148" y="0" type="curve"/>
      <point x="204" y="0" type="line"/>
      <point x="231" y="115"/>
      <point x="241" y="204"/>
      <point x="230" y="297" type="curve" smooth="yes"/>
      <point x="219" y="393"/>
      <point x="185" y="483"/>
      <point x="122" y="580" type="curve"/>
    </contour>
  </outline>
</glyph>
<glyph name="uni0662" format="1">
  <advance width="448"/>
  <unicode hex="0662"/>
  <outline>
    <contour>
      <point x="358" y="551" type="line"/>
      <point x="352" y="517"/>
      <point x="338" y="472"/>
      <point x="248" y="472" type="curve" smooth="yes"/>
      <point x="210" y="472"/>
      <point x="185" y="488"/>
      <point x="165" y="512" type="curve" smooth="yes"/>
      <point x="149" y="532"/>
      <point x="136" y="556"/>
      <point x="122" y="580" type="curve"/>
      <point x="87" y="538"/>
      <point x="71" y="512"/>
      <point x="50" y="468" type="curve"/>
      <point x="82" y="412"/>
      <point x="106" y="352"/>
      <point x="122" y="288" type="curve" smooth="yes"/>
      <point x="146" y="194"/>
      <point x="154" y="103"/>
      <point x="148" y="0" type="curve"/>
      <point x="204" y="0" type="line"/>
      <point x="220" y="69"/>
      <point x="230" y="129"/>
      <point x="233" y="186" type="curve" smooth="yes"/>
      <point x="235" y="230"/>
      <point x="233" y="295"/>
      <point x="223" y="340" type="curve"/>
      <point x="273" y="340"/>
      <point x="317" y="351"/>
      <point x="354" y="391" type="curve" smooth="yes"/>
      <point x="391" y="433"/>
      <point x="408" y="495"/>
      <point x="408" y="570" type="curve"/>
    </contour>
  </outline>
</glyph>
<glyph name="uni0665" format="1">
  <advance width="424"/>
  <unicode hex="0665"/>
  <outline>
    <contour>
      <point x="384" y="311"/>
      <point x="369" y="372"/>
      <point x="344" y="418" type="curve" smooth="yes"/>
      <point x="314" y="474"/>
      <point x="271" y="505"/>
      <point x="224" y="505" type="curve" smooth="yes"/>
      <point x="202" y="505"/>
      <point x="180" y="494"/>
      <point x="159" y="472" type="curve" smooth="yes"/>
      <point x="127" y="440"/>
      <point x="99" y="387"/>
      <point x="78" y="323" type="curve" smooth="yes"/>
      <point x="66" y="284"/>
      <point x="57" y="243"/>
      <point x="53" y="203" type="curve" smooth="yes"/>
      <point x="50" y="175"/>
      <point x="49" y="147"/>
      <point x="51" y="121" type="curve"/>
      <point x="51" y="121"/>
      <point x="60" y="93"/>
      <point x="82" y="69" type="curve" smooth="yes"/>
      <point x="103" y="47"/>
      <point x="140" y="20"/>
      <point x="200" y="20" type="curve" smooth="yes"/>
      <point x="231" y="20"/>
      <point x="259" y="26"/>
      <point x="283" y="39" type="curve" smooth="yes"/>
      <point x="306" y="50"/>
      <point x="325" y="67"/>
      <point x="340" y="88" type="curve" smooth="yes"/>
      <point x="369" y="128"/>
      <point x="385" y="186"/>
      <point x="384" y="250" type="curve" smooth="yes"/>
    </contour>
    <contour>
      <point x="329" y="219"/>
      <point x="324" y="204"/>
      <point x="311" y="189" type="curve" smooth="yes"/>
      <point x="289" y="164"/>
      <point x="256" y="151"/>
      <point x="212" y="151" type="curve" smooth="yes"/>
      <point x="180" y="151"/>
      <point x="156" y="158"/>
      <point x="142" y="172" type="curve" smooth="yes"/>
      <point x="128" y="185"/>
      <point x="128" y="201"/>
      <point x="128" y="204" type="curve"/>
      <point x="128" y="208"/>
      <point x="132" y="252"/>
      <point x="147" y="294" type="curve" smooth="yes"/>
      <point x="155" y="320"/>
      <point x="166" y="341"/>
      <point x="178" y="355" type="curve" smooth="yes"/>
      <point x="192" y="372"/>
      <point x="207" y="380"/>
      <point x="225" y="380" type="curve" smooth="yes"/>
      <point x="243" y="380"/>
      <point x="259" y="373"/>
      <point x="274" y="358" type="curve" smooth="yes"/>
      <point x="287" y="345"/>
      <point x="298" y="327"/>
      <point x="308" y="304" type="curve" smooth="yes"/>
      <point x="322" y="268"/>
      <point x="329" y="233"/>
      <point x="330" y="224" type="curve"/>
    </contour>
  </outline>
</glyph>
<glyph name="uni066B" format="1">
  <advance width="227"/>
  <unicode hex="066B"/>
  <outline>
    <contour>
      <point x="138" y="139" type="line"/>
      <point x="0" y="-200" type="line"/>
      <point x="90" y="-200" type="line"/>
      <point x="227" y="139" type="line"/>
    </contour>
  </outline>
</glyph>
<glyph name="uni066C" format="1">
  <advance width="183"/>
  <unicode hex="066C"/>
  <outline>
    <contour>
      <point x="94" y="139" type="line"/>
      <point x="0" y="-91" type="line"/>
      <point x="90" y="-91" type="line"/>
      <point x="183" y="139" type="line"/>
    </contour>
  </outline>
</glyph>
<glyph name="alefabove-ar" format="1">
  <advance width="0"/>
  <unicode hex="0670"/>
  <outline>
    <contour>
      <point x="25" y="757"/>
      <point x="23" y="799"/>
      <point x="3" y="834" type="curve"/>
      <point x="-12" y="825"/>
      <point x="-18" y="817"/>
      <point x="-33" y="804" type="curve"/>
      <point x="-16" y="779"/>
      <point x="-6" y="751"/>
      <point x="-8" y="705" type="curve"/>
      <point x="18" y="715" type="line"/>
    </contour>
    <contour>
      <point x="-6" y="834" type="move" name="top"/>
    </contour>
    <contour>
      <point x="-6" y="685" type="move" name="_top"/>
    </contour>
  </outline>
</glyph>
<glyph name="uni06BA" format="1">
  <advance width="618"/>
  <unicode hex="06BA"/>
  <outline>
    <contour>
      <point x="451" y="294"/>
      <point x="428" y="261"/>
      <point x="408" y="223" type="curve"/>
      <point x="456" y="160"/>
      <point x="497" y="101"/>
      <point x="497" y="69" type="curve" smooth="yes"/>
      <point x="497" y="31"/>
      <point x="457" y="5"/>
      <point x="398" y="-8" type="curve" smooth="yes"/>
      <point x="370" y="-14"/>
      <point x="338" y="-17"/>
      <point x="304" y="-17" type="curve" smooth="yes"/>
      <point x="244" y="-17"/>
      <point x="187" y="-2"/>
      <point x="158" y="33" type="curve" smooth="yes"/>
      <point x="131" y="66"/>
      <point x="130" y="115"/>
      <point x="142" y="168" type="curve"/>
      <point x="99" y="183" type="line"/>
      <point x="79" y="142"/>
      <point x="64" y="89"/>
      <point x="61" y="46" type="curve" smooth="yes"/>
      <point x="59" y="15"/>
      <point x="62" y="-20"/>
      <point x="75" y="-52" type="curve" smooth="yes"/>
      <point x="92" y="-93"/>
      <point x="123" y="-124"/>
      <point x="164" y="-144" type="curve" smooth="yes"/>
      <point x="200" y="-161"/>
      <point x="242" y="-170"/>
      <point x="295" y="-170" type="curve" smooth="yes"/>
      <point x="338" y="-170"/>
      <point x="374" y="-166"/>
      <point x="406" y="-157" type="curve" smooth="yes"/>
      <point x="439" y="-147"/>
      <point x="467" y="-130"/>
      <point x="494" y="-106" type="curve" smooth="yes"/>
      <point x="518" y="-84"/>
      <point x="568" y="-26"/>
      <point x="568" y="85" type="curve" smooth="yes"/>
      <point x="568" y="141"/>
      <point x="555" y="197"/>
      <point x="538" y="238" type="curve" smooth="yes"/>
      <point x="512" y="302"/>
      <point x="478" y="324"/>
      <point x="478" y="324" type="curve"/>
    </contour>
    <contour>
      <point x="290" y="54" type="move" name="top"/>
    </contour>
    <contour>
      <point x="308" y="-200" type="move" name="bottom"/>
    </contour>
  </outline>
</glyph>
<glyph name="sadLamAlefMaksuraabove-ar" format="1">
  <advance width="0"/>
  <unicode hex="06D6"/>
  <outline>
    <contour>
      <point x="161" y="862"/>
      <point x="153" y="865"/>
      <point x="147" y="865" type="curve" smooth="yes"/>
      <point x="130" y="865"/>
      <point x="113" y="852"/>
      <point x="99" y="837" type="curve" smooth="yes"/>
      <point x="88" y="824"/>
      <point x="80" y="812"/>
      <point x="77" y="808" type="curve"/>
      <point x="74" y="808"/>
      <point x="72" y="809"/>
      <point x="70" y="811" type="curve"/>
      <point x="66" y="816"/>
      <point x="67" y="824"/>
      <point x="69" y="835" type="curve"/>
      <point x="56" y="830" type="line"/>
      <point x="55" y="824"/>
      <point x="52" y="818"/>
      <point x="50" y="815" type="curve"/>
      <point x="47" y="811"/>
      <point x="44" y="808"/>
      <point x="38" y="808" type="curve" smooth="yes"/>
      <point x="14" y="808" type="line" smooth="yes"/>
      <point x="9" y="808"/>
      <point x="5" y="810"/>
      <point x="2" y="813" type="curve" smooth="yes"/>
      <point x="0" y="816"/>
      <point x="-1" y="820"/>
      <point x="-1" y="824" type="curve" smooth="yes"/>
      <point x="-3" y="835"/>
      <point x="-12" y="928"/>
      <point x="-12" y="928" type="curve"/>
      <point x="-22" y="917"/>
      <point x="-28" y="908"/>
      <point x="-36" y="895" type="curve"/>
      <point x="-36" y="895"/>
      <point x="-29" y="859"/>
      <point x="-26" y="836" type="curve" smooth="yes"/>
      <point x="-26" y="834"/>
      <point x="-25" y="829"/>
      <point x="-25" y="822" type="curve"/>
      <point x="-24" y="819"/>
      <point x="-25" y="816"/>
      <point x="-28" y="813" type="curve" smooth="yes"/>
      <point x="-30" y="810"/>
      <point x="-35" y="808"/>
      <point x="-40" y="808" type="curve" smooth="yes"/>
      <point x="-77" y="808" type="line" smooth="yes"/>
      <point x="-90" y="808"/>
      <point x="-99" y="805"/>
      <point x="-105" y="802" type="curve" smooth="yes"/>
      <point x="-112" y="798"/>
      <point x="-116" y="794"/>
      <point x="-119" y="791" type="curve"/>
      <point x="-123" y="787"/>
      <point x="-131" y="783"/>
      <point x="-142" y="777" type="curve" smooth="yes"/>
      <point x="-151" y="773"/>
      <point x="-160" y="768"/>
      <point x="-169" y="762" type="curve" smooth="yes"/>
      <point x="-175" y="756"/>
      <point x="-185" y="748"/>
      <point x="-185" y="732" type="curve" smooth="yes"/>
      <point x="-185" y="727"/>
      <point x="-183" y="718"/>
      <point x="-172" y="710" type="curve" smooth="yes"/>
      <point x="-163" y="704"/>
      <point x="-148" y="700"/>
      <point x="-129" y="700" type="curve" smooth="yes"/>
      <point x="0" y="700" type="line"/>
      <point x="10" y="712"/>
      <point x="16" y="722"/>
      <point x="22" y="736" type="curve"/>
      <point x="-133" y="736" type="line" smooth="yes"/>
      <point x="-151" y="736"/>
      <point x="-157" y="738"/>
      <point x="-157" y="742" type="curve" smooth="yes"/>
      <point x="-157" y="745"/>
      <point x="-156" y="747"/>
      <point x="-153" y="748" type="curve"/>
      <point x="-146" y="750"/>
      <point x="-141" y="752"/>
      <point x="-138" y="754" type="curve" smooth="yes"/>
      <point x="-132" y="757"/>
      <point x="-123" y="763"/>
      <point x="-121" y="765" type="curve"/>
      <point x="-119" y="767"/>
      <point x="-113" y="773"/>
      <point x="-100" y="773" type="curve" smooth="yes"/>
      <point x="-34" y="773" type="line" smooth="yes"/>
      <point x="-15" y="773"/>
      <point x="-8" y="785"/>
      <point x="-7" y="786" type="curve"/>
      <point x="-6" y="785"/>
      <point x="1" y="773"/>
      <point x="19" y="773" type="curve" smooth="yes"/>
      <point x="38" y="773" type="line" smooth="yes"/>
      <point x="49" y="773"/>
      <point x="58" y="777"/>
      <point x="62" y="784" type="curve"/>
      <point x="63" y="783"/>
      <point x="65" y="782"/>
      <point x="68" y="781" type="curve"/>
      <point x="65" y="768" type="line"/>
      <point x="80" y="768" type="line"/>
      <point x="82" y="775" type="line"/>
      <point x="87" y="773"/>
      <point x="94" y="774"/>
      <point x="102" y="774" type="curve" smooth="yes"/>
      <point x="119" y="774"/>
      <point x="138" y="781"/>
      <point x="153" y="792" type="curve" smooth="yes"/>
      <point x="161" y="798"/>
      <point x="167" y="805"/>
      <point x="171" y="812" type="curve" smooth="yes"/>
      <point x="176" y="820"/>
      <point x="179" y="828"/>
      <point x="179" y="837" type="curve" smooth="yes"/>
      <point x="179" y="844"/>
      <point x="175" y="851"/>
      <point x="167" y="857" type="curve" smooth="yes"/>
    </contour>
    <contour>
      <point x="136" y="810"/>
      <point x="127" y="808"/>
      <point x="118" y="808" type="curve" smooth="yes"/>
      <point x="96" y="808" type="line"/>
      <point x="99" y="812"/>
      <point x="102" y="817"/>
      <point x="107" y="822" type="curve" smooth="yes"/>
      <point x="114" y="829"/>
      <point x="123" y="836"/>
      <point x="135" y="836" type="curve" smooth="yes"/>
      <point x="141" y="836"/>
      <point x="146" y="834"/>
      <point x="149" y="831" type="curve"/>
      <point x="152" y="828"/>
      <point x="154" y="824"/>
      <point x="155" y="822" type="curve"/>
      <point x="153" y="819"/>
      <point x="149" y="816"/>
      <point x="143" y="813" type="curve" smooth="yes"/>
    </contour>
    <contour>
      <point x="-3" y="928" type="move" name="top"/>
    </contour>
    <contour>
      <point x="-3" y="680" type="move" name="_top"/>
    </contour>
  </outline>
</glyph>
<glyph name="uni06E3" format="1">
  <advance width="0"/>
  <unicode hex="06E3"/>
  <outline>
    <contour>
      <point x="96" y="-237"/>
      <point x="90" y="-244"/>
      <point x="85" y="-254" type="curve"/>
      <point x="101" y="-277" type="line"/>
      <point x="97" y="-283"/>
      <point x="92" y="-287"/>
      <point x="83" y="-287" type="curve" smooth="yes"/>
      <point x="63" y="-287"/>
      <point x="60" y="-272"/>
      <point x="63" y="-252" type="curve"/>
      <point x="47" y="-258" type="line"/>
      <point x="45" y="-273"/>
      <point x="39" y="-287"/>
      <point x="22" y="-287" type="curve" smooth="yes"/>
      <point x="17" y="-287"/>
      <point x="1" y="-282"/>
      <point x="-8" y="-261" type="curve"/>
      <point x="-17" y="-271"/>
      <point x="-26" y="-283"/>
      <point x="-32" y="-295" type="curve"/>
      <point x="-16" y="-317"/>
      <point x="-2" y="-336"/>
      <point x="-2" y="-347" type="curve" smooth="yes"/>
      <point x="-2" y="-354"/>
      <point x="-8" y="-360"/>
      <point x="-17" y="-366" type="curve" smooth="yes"/>
      <point x="-29" y="-371"/>
      <point x="-45" y="-376"/>
      <point x="-64" y="-376" type="curve" smooth="yes"/>
      <point x="-84" y="-376"/>
      <point x="-103" y="-371"/>
      <point x="-113" y="-359" type="curve" smooth="yes"/>
      <point x="-121" y="-348"/>
      <point x="-122" y="-332"/>
      <point x="-118" y="-314" type="curve"/>
      <point x="-132" y="-309" type="line"/>
      <point x="-138" y="-323"/>
      <point x="-144" y="-341"/>
      <point x="-144" y="-355" type="curve" smooth="yes"/>
      <point x="-145" y="-365"/>
      <point x="-144" y="-377"/>
      <point x="-140" y="-388" type="curve" smooth="yes"/>
      <point x="-135" y="-401"/>
      <point x="-124" y="-412"/>
      <point x="-110" y="-419" type="curve" smooth="yes"/>
      <point x="-98" y="-424"/>
      <point x="-84" y="-427"/>
      <point x="-67" y="-427" type="curve" smooth="yes"/>
      <point x="-53" y="-427"/>
      <point x="-42" y="-425"/>
      <point x="-32" y="-422" type="curve" smooth="yes"/>
      <point x="-21" y="-419"/>
      <point x="-12" y="-414"/>
      <point x="-3" y="-406" type="curve" smooth="yes"/>
      <point x="4" y="-398"/>
      <point x="21" y="-379"/>
      <point x="21" y="-341" type="curve" smooth="yes"/>
      <point x="21" y="-338"/>
      <point x="21" y="-332"/>
      <point x="21" y="-328" type="curve"/>
      <point x="28" y="-329"/>
      <point x="35" y="-329"/>
      <point x="41" y="-327" type="curve" smooth="yes"/>
      <point x="46" y="-325"/>
      <point x="51" y="-320"/>
      <point x="53" y="-314" type="curve"/>
      <point x="54" y="-317"/>
      <point x="57" y="-320"/>
      <point x="62" y="-323" type="curve" smooth="yes"/>
      <point x="66" y="-326"/>
      <point x="73" y="-329"/>
      <point x="82" y="-329" type="curve" smooth="yes"/>
      <point x="94" y="-329"/>
      <point x="106" y="-320"/>
      <point x="113" y="-310" type="curve" smooth="yes"/>
      <point x="120" y="-301"/>
      <point x="124" y="-289"/>
      <point x="124" y="-279" type="curve" smooth="yes"/>
      <point x="124" y="-242"/>
      <point x="104" y="-228"/>
      <point x="104" y="-228" type="curve"/>
    </contour>
    <contour>
      <point x="-2" y="-208" type="move" name="_bottom"/>
    </contour>
    <contour>
      <point x="-2" y="-426" type="move" name="bottom"/>
    </contour>
  </outline>
</glyph>
<glyph name="uni06E7" format="1">
  <advance width="0"/>
  <unicode hex="06E7"/>
  <outline>
    <contour>
      <point x="-1" y="808"/>
      <point x="2" y="826"/>
      <point x="-7" y="840" type="curve" smooth="yes"/>
      <point x="-12" y="846"/>
      <point x="-19" y="850"/>
      <point x="-25" y="850" type="curve" smooth="yes"/>
      <point x="-35" y="850"/>
      <point x="-42" y="841"/>
      <point x="-49" y="832" type="curve" smooth="yes"/>
      <point x="-58" y="818"/>
      <point x="-61" y="814"/>
      <point x="-88" y="801" type="curve" smooth="yes"/>
      <point x="-100" y="795"/>
      <point x="-114" y="789"/>
      <point x="-125" y="780" type="curve" smooth="yes"/>
      <point x="-136" y="770"/>
      <point x="-145" y="758"/>
      <point x="-145" y="742" type="curve" smooth="yes"/>
      <point x="-145" y="729"/>
      <point x="-140" y="718"/>
      <point x="-128" y="711" type="curve" smooth="yes"/>
      <point x="-116" y="704"/>
      <point x="-98" y="700"/>
      <point x="-72" y="700" type="curve" smooth="yes"/>
      <point x="118" y="700" type="line"/>
      <point x="131" y="715"/>
      <point x="139" y="729"/>
      <point x="147" y="746" type="curve"/>
      <point x="-71" y="746" type="line" smooth="yes"/>
      <point x="-102" y="746"/>
      <point x="-109" y="748"/>
      <point x="-109" y="755" type="curve" smooth="yes"/>
      <point x="-109" y="759"/>
      <point x="-106" y="761"/>
      <point x="-103" y="763" type="curve"/>
      <point x="-70" y="775"/>
      <point x="-63" y="783"/>
      <point x="-50" y="798" type="curve" smooth="yes"/>
      <point x="-46" y="801"/>
      <point x="-38" y="814"/>
      <point x="-29" y="814" type="curve" smooth="yes"/>
      <point x="-19" y="814"/>
      <point x="-17" y="797"/>
      <point x="-22" y="777" type="curve"/>
      <point x="-4" y="783" type="line"/>
    </contour>
    <contour>
      <point x="1" y="850" type="move" name="top"/>
    </contour>
    <contour>
      <point x="1" y="680" type="move" name="_top"/>
    </contour>
  </outline>
</glyph>
<glyph name="uni06F0" format="1">
  <advance width="267"/>
  <unicode hex="06F0"/>
  <outline>
    <contour>
      <point x="50" y="215" type="line"/>
      <point x="140" y="127" type="line"/>
      <point x="227" y="215" type="line"/>
      <point x="140" y="304" type="line"/>
    </contour>
  </outline>
</glyph>
<glyph name="uni06F5" format="1">
  <advance width="498"/>
  <unicode hex="06F5"/>
  <outline>
    <contour>
      <point x="457" y="175"/>
      <point x="445" y="216"/>
      <point x="427" y="258" type="curve" smooth="yes"/>
      <point x="361" y="419"/>
      <point x="225" y="580"/>
      <point x="225" y="580" type="curve"/>
      <point x="198" y="541"/>
      <point x="187" y="511"/>
      <point x="168" y="461" type="curve"/>
      <point x="187" y="436" type="line"/>
      <point x="170" y="409"/>
      <point x="107" y="306"/>
      <point x="69" y="213" type="curve" smooth="yes"/>
      <point x="56" y="181"/>
      <point x="32" y="96"/>
      <point x="72" y="43" type="curve" smooth="yes"/>
      <point x="92" y="16"/>
      <point x="121" y="0"/>
      <point x="159" y="0" type="curve" smooth="yes"/>
      <point x="210" y="0"/>
      <point x="243" y="24"/>
      <point x="250" y="41" type="curve"/>
      <point x="274" y="7"/>
      <point x="315" y="0"/>
      <point x="342" y="0" type="curve" smooth="yes"/>
      <point x="373" y="0"/>
      <point x="400" y="12"/>
      <point x="420" y="32" type="curve" smooth="yes"/>
      <point x="448" y="62"/>
      <point x="459" y="98"/>
      <point x="458" y="137" type="curve" smooth="yes"/>
    </contour>
    <contour>
      <point x="376" y="162"/>
      <point x="377" y="147"/>
      <point x="368" y="134" type="curve" smooth="yes"/>
      <point x="359" y="121"/>
      <point x="344" y="115"/>
      <point x="322" y="115" type="curve" smooth="yes"/>
      <point x="287" y="115"/>
      <point x="276" y="146"/>
      <point x="276" y="197" type="curve"/>
      <point x="226" y="178" type="line"/>
      <point x="223" y="143"/>
      <point x="214" y="117"/>
      <point x="179" y="115" type="curve" smooth="yes"/>
      <point x="156" y="114"/>
      <point x="146" y="125"/>
      <point x="142" y="132" type="curve" smooth="yes"/>
      <point x="131" y="149"/>
      <point x="136" y="180"/>
      <point x="155" y="220" type="curve" smooth="yes"/>
      <point x="166" y="243"/>
      <point x="204" y="307"/>
      <point x="242" y="365" type="curve"/>
      <point x="261" y="341"/>
      <point x="289" y="303"/>
      <point x="315" y="267" type="curve" smooth="yes"/>
      <point x="345" y="226"/>
      <point x="367" y="189"/>
      <point x="373" y="172" type="curve" smooth="yes"/>
    </contour>
  </outline>
</glyph>
<glyph name="uni06F6" format="1">
  <advance width="461"/>
  <unicode hex="06F6"/>
  <outline>
    <contour>
      <point x="421" y="360"/>
      <point x="423" y="392"/>
      <point x="421" y="442" type="curve"/>
      <point x="398" y="427"/>
      <point x="376" y="414"/>
      <point x="353" y="400" type="curve" smooth="yes"/>
      <point x="317" y="379"/>
      <point x="296" y="367"/>
      <point x="250" y="367" type="curve" smooth="yes"/>
      <point x="204" y="367"/>
      <point x="151" y="383"/>
      <point x="151" y="421" type="curve"/>
      <point x="169" y="449"/>
      <point x="212" y="476"/>
      <point x="251" y="476" type="curve" smooth="yes"/>
      <point x="277" y="476"/>
      <point x="296" y="473"/>
      <point x="323" y="466" type="curve"/>
      <point x="346" y="500" type="line"/>
      <point x="316" y="550"/>
      <point x="289" y="580"/>
      <point x="236" y="580" type="curve" smooth="yes"/>
      <point x="179" y="580"/>
      <point x="136" y="535"/>
      <point x="108" y="488" type="curve" smooth="yes"/>
      <point x="82" y="444"/>
      <point x="68" y="397"/>
      <point x="68" y="384" type="curve"/>
      <point x="71" y="355"/>
      <point x="77" y="332"/>
      <point x="95" y="307" type="curve" smooth="yes"/>
      <point x="113" y="282"/>
      <point x="141" y="269"/>
      <point x="176" y="264" type="curve"/>
      <point x="149" y="226"/>
      <point x="127" y="190"/>
      <point x="110" y="157" type="curve" smooth="yes"/>
      <point x="79" y="97"/>
      <point x="68" y="66"/>
      <point x="50" y="0" type="curve"/>
      <point x="114" y="0" type="line"/>
      <point x="142" y="68"/>
      <point x="187" y="127"/>
      <point x="235" y="174" type="curve" smooth="yes"/>
      <point x="284" y="224"/>
      <point x="339" y="265"/>
      <point x="410" y="308" type="curve"/>
    </contour>
  </outline>
</glyph>
<glyph name="uni08A0" format="1">
  <advance width="859"/>
  <unicode hex="08A0"/>
  <outline>
    <component base="uni066E"/>
    <component base="vbelowar" xOffset="408" yOffset="142"/>
    <contour>
      <point x="408" y="-286" type="move" name="bottom"/>
    </contour>
  </outline>
</glyph>
<glyph name="dammatanCurly-ar" format="1">
  <advance width="0"/>
  <unicode hex="08E8"/>
  <outline>
    <contour>
      <point x="78" y="764" type="line"/>
      <point x="88" y="788"/>
      <point x="97" y="821"/>
      <point x="73" y="832" type="curve" smooth="yes"/>
      <point x="56" y="842"/>
      <point x="34" y="834"/>
      <point x="16" y="811" type="curve" smooth="yes"/>
      <point x="6" y="798"/>
      <point x="2" y="785"/>
      <point x="5" y="774" type="curve" smooth="yes"/>
      <point x="9" y="760"/>
      <point x="21" y="751"/>
      <point x="31" y="745" type="curve"/>
      <point x="12" y="731"/>
      <point x="-11" y="735"/>
      <point x="-19" y="751" type="curve"/>
      <point x="-39" y="720" type="line"/>
      <point x="-27" y="705"/>
      <point x="-12" y="701"/>
      <point x="1" y="701" type="curve" smooth="yes"/>
      <point x="18" y="702"/>
      <point x="33" y="708"/>
      <point x="40" y="713" type="curve" smooth="yes"/>
      <point x="51" y="721"/>
      <point x="58" y="729"/>
      <point x="61" y="734" type="curve"/>
      <point x="88" y="724" type="line"/>
      <point x="89" y="741"/>
      <point x="89" y="746"/>
      <point x="88" y="758" type="curve"/>
    </contour>
    <contour>
      <point x="45" y="778" type="line" smooth="yes"/>
      <point x="35" y="783"/>
      <point x="31" y="789"/>
      <point x="31" y="794" type="curve" smooth="yes"/>
      <point x="30" y="799"/>
      <point x="33" y="805"/>
      <point x="41" y="807" type="curve" smooth="yes"/>
      <point x="47" y="808"/>
      <point x="52" y="807"/>
      <point x="58" y="802" type="curve" smooth="yes"/>
      <point x="64" y="797"/>
      <point x="64" y="783"/>
      <point x="58" y="772" type="curve"/>
    </contour>
    <contour>
      <point x="-83" y="838" type="line"/>
      <point x="-93" y="814"/>
      <point x="-101" y="781"/>
      <point x="-77" y="770" type="curve" smooth="yes"/>
      <point x="-60" y="760"/>
      <point x="-39" y="768"/>
      <point x="-21" y="791" type="curve" smooth="yes"/>
      <point x="-11" y="804"/>
      <point x="-6" y="816"/>
      <point x="-10" y="828" type="curve" smooth="yes"/>
      <point x="-14" y="842"/>
      <point x="-26" y="851"/>
      <point x="-35" y="856" type="curve"/>
      <point x="-17" y="871"/>
      <point x="7" y="866"/>
      <point x="14" y="851" type="curve"/>
      <point x="34" y="882" type="line"/>
      <point x="22" y="896"/>
      <point x="8" y="901"/>
      <point x="-6" y="901" type="curve" smooth="yes"/>
      <point x="-22" y="900"/>
      <point x="-38" y="893"/>
      <point x="-44" y="888" type="curve" smooth="yes"/>
      <point x="-55" y="881"/>
      <point x="-62" y="872"/>
      <point x="-66" y="867" type="curve"/>
      <point x="-92" y="878" type="line"/>
      <point x="-94" y="861"/>
      <point x="-94" y="856"/>
      <point x="-92" y="843" type="curve"/>
    </contour>
    <contour>
      <point x="-49" y="823" type="line" smooth="yes"/>
      <point x="-39" y="819"/>
      <point x="-35" y="812"/>
      <point x="-35" y="808" type="curve" smooth="yes"/>
      <point x="-35" y="802"/>
      <point x="-38" y="796"/>
      <point x="-45" y="795" type="curve" smooth="yes"/>
      <point x="-52" y="794"/>
      <point x="-56" y="794"/>
      <point x="-62" y="800" type="curve" smooth="yes"/>
      <point x="-69" y="805"/>
      <point x="-69" y="819"/>
      <point x="-62" y="830" type="curve"/>
    </contour>
    <contour>
      <point x="-1" y="904" type="move" name="top"/>
    </contour>
    <contour>
      <point x="1" y="681" type="move" name="_top"/>
    </contour>
  </outline>
</glyph>
<glyph name="kasratanCurly-ar" format="1">
  <advance width="0"/>
  <unicode hex="08E9"/>
  <outline>
    <contour>
      <point x="-57" y="-335"/>
      <point x="-53" y="-343"/>
      <point x="-32" y="-358" type="curve"/>
      <point x="-36" y="-367"/>
      <point x="-38" y="-376"/>
      <point x="-37" y="-385" type="curve" smooth="yes"/>
      <point x="-35" y="-401"/>
      <point x="-29" y="-410"/>
      <point x="-3" y="-428" type="curve"/>
      <point x="5" y="-410" type="line"/>
      <point x="0" y="-406"/>
      <point x="-6" y="-401"/>
      <point x="-7" y="-395" type="curve"/>
      <point x="-9" y="-386"/>
      <point x="2" y="-376"/>
      <point x="16" y="-367" type="curve" smooth="yes"/>
      <point x="26" y="-361"/>
      <point x="43" y="-352"/>
      <point x="52" y="-342" type="curve"/>
      <point x="58" y="-333"/>
      <point x="61" y="-322"/>
      <point x="61" y="-311" type="curve" smooth="yes"/>
      <point x="61" y="-293"/>
      <point x="57" y="-285"/>
      <point x="34" y="-268" type="curve"/>
      <point x="37" y="-261"/>
      <point x="39" y="-253"/>
      <point x="39" y="-246" type="curve" smooth="yes"/>
      <point x="39" y="-227"/>
      <point x="33" y="-219"/>
      <point x="6" y="-198" type="curve"/>
      <point x="-2" y="-216" type="line"/>
      <point x="3" y="-222"/>
      <point x="8" y="-227"/>
      <point x="9" y="-230" type="curve"/>
      <point x="9" y="-234"/>
      <point x="12" y="-245"/>
      <point x="-19" y="-262" type="curve" smooth="yes"/>
      <point x="-29" y="-268"/>
      <point x="-41" y="-274"/>
      <point x="-50" y="-285" type="curve"/>
      <point x="-57" y="-296"/>
      <point x="-61" y="-308"/>
      <point x="-60" y="-320" type="curve" smooth="yes"/>
    </contour>
    <contour>
      <point x="-32" y="-321"/>
      <point x="-21" y="-311"/>
      <point x="-7" y="-302" type="curve" smooth="yes"/>
      <point x="1" y="-297"/>
      <point x="13" y="-290"/>
      <point x="22" y="-283" type="curve"/>
      <point x="27" y="-288"/>
      <point x="31" y="-292"/>
      <point x="31" y="-295" type="curve"/>
      <point x="31" y="-299"/>
      <point x="34" y="-310"/>
      <point x="4" y="-327" type="curve" smooth="yes"/>
      <point x="-4" y="-331"/>
      <point x="-13" y="-336"/>
      <point x="-20" y="-343" type="curve"/>
      <point x="-24" y="-339"/>
      <point x="-29" y="-335"/>
      <point x="-29" y="-330" type="curve"/>
    </contour>
    <contour>
      <point x="-1" y="-180" type="move" name="_bottom"/>
    </contour>
    <contour>
      <point x="-3" y="-428" type="move" name="bottom"/>
    </contour>
  </outline>
</glyph>
<glyph name="uni08F1" format="1">
  <advance width="0"/>
  <unicode hex="08F1"/>
  <outline>
    <contour>
      <point x="-21" y="764" type="line"/>
      <point x="-12" y="786"/>
      <point x="-5" y="817"/>
      <point x="-27" y="827" type="curve" smooth="yes"/>
      <point x="-42" y="836"/>
      <point x="-61" y="829"/>
      <point x="-78" y="808" type="curve" smooth="yes"/>
      <point x="-88" y="796"/>
      <point x="-92" y="784"/>
      <point x="-88" y="774" type="curve" smooth="yes"/>
      <point x="-85" y="761"/>
      <point x="-74" y="752"/>
      <point x="-65" y="748" type="curve"/>
      <point x="-80" y="737"/>
      <point x="-100" y="732"/>
      <point x="-124" y="736" type="curve"/>
      <point x="-131" y="724"/>
      <point x="-133" y="717"/>
      <point x="-138" y="703" type="curve"/>
      <point x="-87" y="700"/>
      <point x="-68" y="710"/>
      <point x="-57" y="718" type="curve" smooth="yes"/>
      <point x="-47" y="724"/>
      <point x="-40" y="732"/>
      <point x="-37" y="737" type="curve"/>
      <point x="-13" y="727" type="line"/>
      <point x="-11" y="744"/>
      <point x="-11" y="748"/>
      <point x="-13" y="760" type="curve"/>
    </contour>
    <contour>
      <point x="-54" y="777" type="line" smooth="yes"/>
      <point x="-62" y="783"/>
      <point x="-64" y="787"/>
      <point x="-64" y="792" type="curve" smooth="yes"/>
      <point x="-66" y="796"/>
      <point x="-62" y="801"/>
      <point x="-55" y="804" type="curve" smooth="yes"/>
      <point x="-51" y="806"/>
      <point x="-46" y="805"/>
      <point x="-40" y="799" type="curve" smooth="yes"/>
      <point x="-35" y="794"/>
      <point x="-34" y="783"/>
      <point x="-40" y="771" type="curve"/>
    </contour>
    <contour>
      <point x="112" y="764" type="line"/>
      <point x="121" y="786"/>
      <point x="129" y="817"/>
      <point x="107" y="827" type="curve" smooth="yes"/>
      <point x="92" y="836"/>
      <point x="72" y="829"/>
      <point x="55" y="808" type="curve" smooth="yes"/>
      <point x="46" y="796"/>
      <point x="42" y="784"/>
      <point x="45" y="774" type="curve" smooth="yes"/>
      <point x="48" y="761"/>
      <point x="60" y="752"/>
      <point x="68" y="748" type="curve"/>
      <point x="54" y="737"/>
      <point x="34" y="732"/>
      <point x="9" y="736" type="curve"/>
      <point x="3" y="724"/>
      <point x="0" y="717"/>
      <point x="-5" y="703" type="curve"/>
      <point x="47" y="700"/>
      <point x="65" y="710"/>
      <point x="76" y="718" type="curve" smooth="yes"/>
      <point x="87" y="724"/>
      <point x="93" y="732"/>
      <point x="97" y="737" type="curve"/>
      <point x="121" y="727" type="line"/>
      <point x="122" y="744"/>
      <point x="122" y="748"/>
      <point x="121" y="760" type="curve"/>
    </contour>
    <contour>
      <point x="81" y="777" type="line" smooth="yes"/>
      <point x="72" y="783"/>
      <point x="68" y="787"/>
      <point x="68" y="792" type="curve" smooth="yes"/>
      <point x="67" y="796"/>
      <point x="71" y="801"/>
      <point x="78" y="804" type="curve" smooth="yes"/>
      <point x="83" y="806"/>
      <point x="88" y="805"/>
      <point x="94" y="799" type="curve" smooth="yes"/>
      <point x="99" y="794"/>
      <point x="99" y="783"/>
      <point x="94" y="771" type="curve"/>
    </contour>
    <contour>
      <point x="-1" y="836" type="move" name="top"/>
    </contour>
    <contour>
      <point x="-1" y="680" type="move" name="_top"/>
    </contour>
  </outline>
</glyph>
<glyph name="uni08F6" format="1">
  <advance width="0"/>
  <unicode hex="08F6"/>
  <outline>
    <contour>
      <point x="-51" y="-295"/>
      <point x="44" y="-254"/>
      <point x="80" y="-243" type="curve"/>
      <point x="87" y="-226"/>
      <point x="89" y="-219"/>
      <point x="92" y="-203" type="curve"/>
      <point x="57" y="-212"/>
      <point x="-43" y="-250"/>
      <point x="-78" y="-270" type="curve"/>
      <point x="-82" y="-281"/>
      <point x="-88" y="-298"/>
      <point x="-91" y="-312" type="curve"/>
    </contour>
    <contour>
      <point x="-16" y="-344"/>
      <point x="-5" y="-356"/>
      <point x="2" y="-365" type="curve"/>
      <point x="12" y="-358"/>
      <point x="26" y="-342"/>
      <point x="30" y="-337" type="curve"/>
      <point x="25" y="-326"/>
      <point x="13" y="-313"/>
      <point x="0" y="-306" type="curve"/>
      <point x="-5" y="-312"/>
      <point x="-21" y="-328"/>
      <point x="-29" y="-335" type="curve"/>
    </contour>
    <contour>
      <point x="1" y="-183" type="move" name="_bottom"/>
    </contour>
    <contour>
      <point x="1" y="-365" type="move" name="bottom"/>
    </contour>
  </outline>
</glyph>
<glyph name="uni25C9" format="1">
  <advance width="433"/>
  <unicode hex="25C9"/>
  <outline>
    <contour>
      <point x="383" y="258"/>
      <point x="308" y="333"/>
      <point x="216" y="333" type="curve" smooth="yes"/>
      <point x="125" y="333"/>
      <point x="50" y="258"/>
      <point x="50" y="166" type="curve" smooth="yes"/>
      <point x="50" y="75"/>
      <point x="125" y="0"/>
      <point x="216" y="0" type="curve" smooth="yes"/>
      <point x="308" y="0"/>
      <point x="383" y="75"/>
      <point x="383" y="166" type="curve" smooth="yes"/>
    </contour>
    <contour>
      <point x="110" y="225"/>
      <point x="157" y="273"/>
      <point x="216" y="273" type="curve" smooth="yes"/>
      <point x="275" y="273"/>
      <point x="323" y="225"/>
      <point x="323" y="166" type="curve" smooth="yes"/>
      <point x="323" y="107"/>
      <point x="275" y="60"/>
      <point x="216" y="60" type="curve" smooth="yes"/>
      <point x="157" y="60"/>
      <point x="110" y="107"/>
      <point x="110" y="166" type="curve" smooth="yes"/>
    </contour>
    <contour>
      <point x="292" y="208"/>
      <point x="258" y="242"/>
      <point x="216" y="242" type="curve" smooth="yes"/>
      <point x="175" y="242"/>
      <point x="141" y="208"/>
      <point x="141" y="166" type="curve" smooth="yes"/>
      <point x="141" y="125"/>
      <point x="175" y="91"/>
      <point x="216" y="91" type="curve" smooth="yes"/>
      <point x="258" y="91"/>
      <point x="292" y="125"/>
      <point x="292" y="166" type="curve" smooth="yes"/>
    </contour>
  </outline>
</glyph>
<glyph name="uniFB9F" format="1">
  <advance width="698"/>
  <unicode hex="FB9F"/>
  <outline>
    <contour>
      <point x="698" y="139" type="line"/>
      <point x="589" y="139" type="line" smooth="yes"/>
      <point x="551" y="139"/>
      <point x="517" y="160"/>
      <point x="490" y="199" type="curve" smooth="yes"/>
      <point x="481" y="212" type="line"/>
      <point x="455" y="179"/>
      <point x="435" y="149"/>
      <point x="413" y="113" type="curve"/>
      <point x="462" y="49"/>
      <point x="497" y="-9"/>
      <point x="497" y="-44" type="curve" smooth="yes"/>
      <point x="497" y="-85"/>
      <point x="453" y="-113"/>
      <point x="387" y="-125" type="curve" smooth="yes"/>
      <point x="363" y="-130"/>
      <point x="335" y="-132"/>
      <point x="305" y="-132" type="curve" smooth="yes"/>
      <point x="266" y="-132"/>
      <point x="235" y="-125"/>
      <point x="214" y="-118" type="curve" smooth="yes"/>
      <point x="193" y="-111"/>
      <point x="171" y="-99"/>
      <point x="157" y="-82" type="curve" smooth="yes"/>
      <point x="129" y="-48"/>
      <point x="132" y="-1"/>
      <point x="142" y="53" type="curve"/>
      <point x="99" y="68" type="line"/>
      <point x="79" y="33"/>
      <point x="64" y="-28"/>
      <point x="61" y="-69" type="curve" smooth="yes"/>
      <point x="58" y="-107"/>
      <point x="65" y="-142"/>
      <point x="75" y="-167" type="curve" smooth="yes"/>
      <point x="90" y="-205"/>
      <point x="117" y="-234"/>
      <point x="157" y="-255" type="curve" smooth="yes"/>
      <point x="197" y="-276"/>
      <point x="243" y="-285"/>
      <point x="293" y="-285" type="curve" smooth="yes"/>
      <point x="327" y="-285"/>
      <point x="367" y="-281"/>
      <point x="407" y="-268" type="curve" smooth="yes"/>
      <point x="445" y="-255"/>
      <point x="482" y="-235"/>
      <point x="512" y="-202" type="curve" smooth="yes"/>
      <point x="564" y="-144"/>
      <point x="577" y="-64"/>
      <point x="569" y="6" type="curve"/>
      <point x="582" y="2"/>
      <point x="597" y="0"/>
      <point x="618" y="0" type="curve"/>
      <point x="698" y="0" type="line"/>
    </contour>
    <contour>
      <point x="289" y="-38" type="move" name="top"/>
    </contour>
    <contour>
      <point x="303" y="-315" type="move" name="bottom"/>
    </contour>
  </outline>
</glyph>
<glyph name="uniFBB2" format="1">
  <advance width="0"/>
  <unicode hex="FBB2"/>
  <outline>
    <contour>
      <point x="-13" y="776"/>
      <point x="-50" y="738"/>
      <point x="-68" y="723" type="curve"/>
      <point x="-39" y="702"/>
      <point x="-15" y="676"/>
      <point x="2" y="655" type="curve"/>
      <point x="24" y="672"/>
      <point x="57" y="708"/>
      <point x="66" y="719" type="curve"/>
      <point x="54" y="743"/>
      <point x="27" y="772"/>
      <point x="-3" y="788" type="curve"/>
    </contour>
    <contour>
      <point x="-1" y="793" type="move" name="top"/>
    </contour>
    <contour>
      <point x="-1" y="630" type="move" name="_top"/>
    </contour>
  </outline>
</glyph>
<glyph name="uniFBB4" format="1">
  <advance width="0"/>
  <unicode hex="FBB4"/>
  <outline>
    <contour>
      <point x="41" y="821"/>
      <point x="17" y="796"/>
      <point x="-2" y="778" type="curve"/>
      <point x="-16" y="798"/>
      <point x="-38" y="818"/>
      <point x="-62" y="831" type="curve"/>
      <point x="-71" y="819"/>
      <point x="-108" y="781"/>
      <point x="-126" y="766" type="curve"/>
      <point x="-97" y="745"/>
      <point x="-73" y="718"/>
      <point x="-56" y="698" type="curve"/>
      <point x="-39" y="712"/>
      <point x="-13" y="738"/>
      <point x="1" y="753" type="curve"/>
      <point x="22" y="735"/>
      <point x="41" y="715"/>
      <point x="54" y="698" type="curve"/>
      <point x="76" y="715"/>
      <point x="109" y="750"/>
      <point x="117" y="762" type="curve"/>
      <point x="106" y="786"/>
      <point x="79" y="815"/>
      <point x="48" y="831" type="curve"/>
    </contour>
    <contour>
      <point x="-5" y="843" type="move" name="top"/>
    </contour>
    <contour>
      <point x="-5" y="680" type="move" name="_top"/>
    </contour>
  </outline>
</glyph>
<glyph name="uniFC18" format="1">
  <advance width="723"/>
  <unicode hex="FC18"/>
  <outline>
    <contour>
      <point x="586" y="350"/>
      <point x="508" y="371"/>
      <point x="441" y="408" type="curve" smooth="yes"/>
      <point x="407" y="426"/>
      <point x="371" y="441"/>
      <point x="334" y="441" type="curve" smooth="yes"/>
      <point x="313" y="441"/>
      <point x="293" y="436"/>
      <point x="274" y="427" type="curve" smooth="yes"/>
      <point x="242" y="411"/>
      <point x="225" y="387"/>
      <point x="203" y="349" type="curve"/>
      <point x="227" y="316" type="line"/>
      <point x="248" y="334"/>
      <point x="261" y="344"/>
      <point x="294" y="344" type="curve" smooth="yes"/>
      <point x="323" y="344"/>
      <point x="345" y="325"/>
      <point x="382" y="305" type="curve"/>
      <point x="337" y="305"/>
      <point x="295" y="295"/>
      <point x="259" y="279" type="curve" smooth="yes"/>
      <point x="227" y="264"/>
      <point x="199" y="243"/>
      <point x="179" y="220" type="curve"/>
      <point x="171" y="212"/>
      <point x="157" y="192"/>
      <point x="149" y="168" type="curve"/>
      <point x="118" y="152"/>
      <point x="93" y="132"/>
      <point x="74" y="106" type="curve" smooth="yes"/>
      <point x="47" y="71"/>
      <point x="36" y="26"/>
      <point x="49" y="-28" type="curve" smooth="yes"/>
      <point x="57" y="-66"/>
      <point x="69" y="-143"/>
      <point x="74" y="-188" type="curve" smooth="yes"/>
      <point x="82" y="-264"/>
      <point x="88" y="-323"/>
      <point x="93" y="-381" type="curve"/>
      <point x="149" y="-359" type="line"/>
      <point x="152" y="-285"/>
      <point x="149" y="-175"/>
      <point x="143" y="-121" type="curve" smooth="yes"/>
      <point x="139" y="-78"/>
      <point x="132" y="-26"/>
      <point x="123" y="39" type="curve"/>
      <point x="140" y="55"/>
      <point x="170" y="68"/>
      <point x="228" y="68" type="curve" smooth="yes"/>
      <point x="267" y="68"/>
      <point x="289" y="60"/>
      <point x="337" y="44" type="curve"/>
      <point x="363" y="80"/>
      <point x="368" y="89"/>
      <point x="391" y="150" type="curve"/>
      <point x="364" y="172"/>
      <point x="321" y="195"/>
      <point x="296" y="205" type="curve"/>
      <point x="347" y="246"/>
      <point x="415" y="255"/>
      <point x="448" y="255" type="curve" smooth="yes"/>
      <point x="540" y="255"/>
      <point x="599" y="235"/>
      <point x="599" y="235" type="curve"/>
      <point x="631" y="269"/>
      <point x="642" y="283"/>
      <point x="673" y="338" type="curve"/>
    </contour>
    <contour>
      <point x="362" y="0" type="move" name="caret_1"/>
    </contour>
    <contour>
      <point x="419" y="30" type="move" name="bottom_1"/>
    </contour>
    <contour>
      <point x="354" y="471" type="move" name="top_1"/>
    </contour>
    <contour>
      <point x="71" y="317" type="move" name="top_2"/>
    </contour>
    <contour>
      <point x="124" y="-398" type="move" name="bottom_2"/>
    </contour>
  </outline>
</glyph>
<glyph name="uniFC49" format="1">
  <advance width="824"/>
  <unicode hex="FC49"/>
  <outline>
    <contour>
      <point x="741" y="297"/>
      <point x="715" y="309"/>
      <point x="680" y="318" type="curve" smooth="yes"/>
      <point x="660" y="323"/>
      <point x="637" y="327"/>
      <point x="625" y="332" type="curve"/>
      <point x="609" y="311"/>
      <point x="598" y="292"/>
      <point x="592" y="273" type="curve" smooth="yes"/>
      <point x="586" y="253"/>
      <point x="585" y="222"/>
      <point x="592" y="196" type="curve"/>
      <point x="560" y="181"/>
      <point x="529" y="162"/>
      <point x="503" y="135" type="curve" smooth="yes"/>
      <point x="483" y="115"/>
      <point x="466" y="91"/>
      <point x="453" y="63" type="curve" smooth="yes"/>
      <point x="446" y="47"/>
      <point x="444" y="40"/>
      <point x="436" y="-6" type="curve"/>
      <point x="481" y="-6"/>
      <point x="541" y="-25"/>
      <point x="543" y="-49" type="curve"/>
      <point x="543" y="-57"/>
      <point x="514" y="-82"/>
      <point x="469" y="-100" type="curve" smooth="yes"/>
      <point x="431" y="-115"/>
      <point x="387" y="-128"/>
      <point x="303" y="-128" type="curve" smooth="yes"/>
      <point x="231" y="-128"/>
      <point x="186" y="-112"/>
      <point x="159" y="-80" type="curve" smooth="yes"/>
      <point x="135" y="-51"/>
      <point x="126" y="-3"/>
      <point x="142" y="67" type="curve"/>
      <point x="99" y="82" type="line"/>
      <point x="84" y="46"/>
      <point x="71" y="2"/>
      <point x="64" y="-43" type="curve" smooth="yes"/>
      <point x="57" y="-87"/>
      <point x="59" y="-125"/>
      <point x="75" y="-163" type="curve" smooth="yes"/>
      <point x="90" y="-199"/>
      <point x="114" y="-227"/>
      <point x="154" y="-249" type="curve" smooth="yes"/>
      <point x="192" y="-270"/>
      <point x="236" y="-281"/>
      <point x="290" y="-281" type="curve" smooth="yes"/>
      <point x="356" y="-281"/>
      <point x="431" y="-265"/>
      <point x="488" y="-235" type="curve" smooth="yes"/>
      <point x="541" y="-207"/>
      <point x="581" y="-172"/>
      <point x="606" y="-125" type="curve" smooth="yes"/>
      <point x="623" y="-94"/>
      <point x="628" y="-64"/>
      <point x="628" y="-44" type="curve" smooth="yes"/>
      <point x="628" y="3"/>
      <point x="601" y="45"/>
      <point x="546" y="60" type="curve"/>
      <point x="588" y="98"/>
      <point x="639" y="119"/>
      <point x="700" y="125" type="curve"/>
      <point x="743" y="128"/>
      <point x="758" y="146"/>
      <point x="769" y="193" type="curve" smooth="yes"/>
      <point x="778" y="230"/>
      <point x="775" y="263"/>
      <point x="755" y="283" type="curve" smooth="yes"/>
    </contour>
    <contour>
      <point x="417" y="0" type="move" name="caret_1"/>
    </contour>
    <contour>
      <point x="656" y="-200" type="move" name="bottom_1"/>
    </contour>
    <contour>
      <point x="625" y="362" type="move" name="top_1"/>
    </contour>
    <contour>
      <point x="266" y="77" type="move" name="top_2"/>
    </contour>
    <contour>
      <point x="300" y="-311" type="move" name="bottom_2"/>
    </contour>
  </outline>
</glyph>
<glyph name="uniFC81" format="1">
  <advance width="933"/>
  <unicode hex="FC81"/>
  <outline>
    <contour>
      <point x="867" y="139" type="line" smooth="yes"/>
      <point x="813" y="139"/>
      <point x="790" y="169"/>
      <point x="762" y="201" type="curve" smooth="yes"/>
      <point x="735" y="232"/>
      <point x="709" y="262"/>
      <point x="682" y="293" type="curve" smooth="yes"/>
      <point x="657" y="321"/>
      <point x="631" y="349"/>
      <point x="609" y="372" type="curve"/>
      <point x="666" y="407"/>
      <point x="737" y="442"/>
      <point x="808" y="470" type="curve"/>
      <point x="820" y="518"/>
      <point x="827" y="558"/>
      <point x="832" y="608" type="curve"/>
      <point x="714" y="552"/>
      <point x="561" y="473"/>
      <point x="489" y="410" type="curve"/>
      <point x="469" y="626" type="line"/>
      <point x="445" y="604"/>
      <point x="412" y="558"/>
      <point x="374" y="501" type="curve"/>
      <point x="374" y="501"/>
      <point x="447" y="-1"/>
      <point x="448" y="-10" type="curve" smooth="yes"/>
      <point x="455" y="-58"/>
      <point x="452" y="-82"/>
      <point x="419" y="-103" type="curve" smooth="yes"/>
      <point x="392" y="-120"/>
      <point x="352" y="-129"/>
      <point x="298" y="-129" type="curve" smooth="yes"/>
      <point x="262" y="-129"/>
      <point x="238" y="-125"/>
      <point x="213" y="-116" type="curve" smooth="yes"/>
      <point x="189" y="-108"/>
      <point x="171" y="-96"/>
      <point x="158" y="-80" type="curve" smooth="yes"/>
      <point x="135" y="-51"/>
      <point x="128" y="-14"/>
      <point x="142" y="55" type="curve"/>
      <point x="99" y="70" type="line"/>
      <point x="78" y="18"/>
      <point x="64" y="-24"/>
      <point x="61" y="-67" type="curve" smooth="yes"/>
      <point x="59" y="-96"/>
      <point x="60" y="-129"/>
      <point x="75" y="-165" type="curve" smooth="yes"/>
      <point x="90" y="-201"/>
      <point x="114" y="-231"/>
      <point x="157" y="-253" type="curve" smooth="yes"/>
      <point x="194" y="-273"/>
      <point x="241" y="-283"/>
      <point x="295" y="-283" type="curve" smooth="yes"/>
      <point x="370" y="-283"/>
      <point x="429" y="-260"/>
      <point x="470" y="-216" type="curve" smooth="yes"/>
      <point x="495" y="-188"/>
      <point x="513" y="-151"/>
      <point x="521" y="-116" type="curve" smooth="yes"/>
      <point x="526" y="-94"/>
      <point x="530" y="-65"/>
      <point x="530" y="-40" type="curve" smooth="yes"/>
      <point x="530" y="-28"/>
      <point x="529" y="-3"/>
      <point x="527" y="23" type="curve"/>
      <point x="545" y="5"/>
      <point x="570" y="0"/>
      <point x="615" y="0" type="curve" smooth="yes"/>
      <point x="693" y="0"/>
      <point x="723" y="67"/>
      <point x="726" y="75" type="curve"/>
      <point x="731" y="67"/>
      <point x="774" y="0"/>
      <point x="868" y="0" type="curve" smooth="yes"/>
      <point x="933" y="0" type="line"/>
      <point x="933" y="139" type="line"/>
    </contour>
    <contour>
      <point x="647" y="143"/>
      <point x="628" y="132"/>
      <point x="592" y="132" type="curve"/>
      <point x="566" y="132"/>
      <point x="546" y="136"/>
      <point x="533" y="149" type="curve" smooth="yes"/>
      <point x="522" y="159"/>
      <point x="515" y="176"/>
      <point x="513" y="200" type="curve" smooth="yes"/>
      <point x="510" y="232"/>
      <point x="508" y="241"/>
      <point x="498" y="346" type="curve"/>
      <point x="525" y="318"/>
      <point x="571" y="269"/>
      <point x="588" y="250" type="curve" smooth="yes"/>
      <point x="616" y="219"/>
      <point x="642" y="195"/>
      <point x="662" y="162" type="curve"/>
    </contour>
    <contour>
      <point x="462" y="0" type="move" name="caret_1"/>
    </contour>
    <contour>
      <point x="673" y="-29" type="move" name="bottom_1"/>
    </contour>
    <contour>
      <point x="682" y="599" type="move" name="top_1"/>
    </contour>
    <contour>
      <point x="333" y="599" type="move" name="top_2"/>
    </contour>
    <contour>
      <point x="295" y="-313" type="move" name="bottom_2"/>
    </contour>
  </outline>
</glyph>
<glyph name="uniFC83" format="1">
  <advance width="800"/>
  <unicode hex="FC83"/>
  <outline>
    <contour>
      <point x="734" y="139" type="line" smooth="yes"/>
      <point x="680" y="139"/>
      <point x="657" y="169"/>
      <point x="629" y="201" type="curve" smooth="yes"/>
      <point x="602" y="232"/>
      <point x="576" y="262"/>
      <point x="549" y="293" type="curve" smooth="yes"/>
      <point x="524" y="321"/>
      <point x="498" y="349"/>
      <point x="476" y="372" type="curve"/>
      <point x="533" y="407"/>
      <point x="604" y="442"/>
      <point x="675" y="470" type="curve"/>
      <point x="687" y="518"/>
      <point x="694" y="558"/>
      <point x="699" y="608" type="curve"/>
      <point x="579" y="551"/>
      <point x="451" y="484"/>
      <point x="384" y="427" type="curve"/>
      <point x="377" y="395"/>
      <point x="374" y="372"/>
      <point x="371" y="338" type="curve"/>
      <point x="394" y="314"/>
      <point x="433" y="272"/>
      <point x="452" y="250" type="curve"/>
      <point x="474" y="226"/>
      <point x="507" y="192"/>
      <point x="547" y="141" type="curve"/>
      <point x="530" y="112"/>
      <point x="501" y="94"/>
      <point x="477" y="83" type="curve" smooth="yes"/>
      <point x="449" y="70"/>
      <point x="421" y="65"/>
      <point x="392" y="63" type="curve"/>
      <point x="386" y="37"/>
      <point x="383" y="11"/>
      <point x="379" y="-31" type="curve"/>
      <point x="429" y="-35"/>
      <point x="461" y="-39"/>
      <point x="488" y="-46" type="curve" smooth="yes"/>
      <point x="522" y="-55"/>
      <point x="542" y="-67"/>
      <point x="543" y="-79" type="curve"/>
      <point x="530" y="-108"/>
      <point x="489" y="-130"/>
      <point x="439" y="-143" type="curve" smooth="yes"/>
      <point x="395" y="-154"/>
      <point x="345" y="-160"/>
      <point x="299" y="-160" type="curve" smooth="yes"/>
      <point x="229" y="-160"/>
      <point x="184" y="-140"/>
      <point x="159" y="-110" type="curve" smooth="yes"/>
      <point x="133" y="-79"/>
      <point x="128" y="-26"/>
      <point x="142" y="37" type="curve"/>
      <point x="109" y="52" type="line"/>
      <point x="75" y="-7"/>
      <point x="64" y="-56"/>
      <point x="61" y="-95" type="curve" smooth="yes"/>
      <point x="58" y="-131"/>
      <point x="63" y="-164"/>
      <point x="75" y="-193" type="curve" smooth="yes"/>
      <point x="90" y="-230"/>
      <point x="116" y="-259"/>
      <point x="155" y="-280" type="curve" smooth="yes"/>
      <point x="192" y="-300"/>
      <point x="239" y="-311"/>
      <point x="291" y="-311" type="curve" smooth="yes"/>
      <point x="353" y="-311"/>
      <point x="415" y="-299"/>
      <point x="468" y="-276" type="curve" smooth="yes"/>
      <point x="517" y="-255"/>
      <point x="559" y="-224"/>
      <point x="586" y="-184" type="curve" smooth="yes"/>
      <point x="606" y="-154"/>
      <point x="618" y="-117"/>
      <point x="618" y="-76" type="curve" smooth="yes"/>
      <point x="618" y="-27"/>
      <point x="586" y="10"/>
      <point x="540" y="29" type="curve"/>
      <point x="559" y="38"/>
      <point x="584" y="68"/>
      <point x="589" y="88" type="curve"/>
      <point x="609" y="65"/>
      <point x="630" y="44"/>
      <point x="654" y="28" type="curve" smooth="yes"/>
      <point x="680" y="11"/>
      <point x="710" y="0"/>
      <point x="748" y="0" type="curve" smooth="yes"/>
      <point x="800" y="0" type="line"/>
      <point x="800" y="139" type="line"/>
    </contour>
    <contour>
      <point x="405" y="0" type="move" name="caret_1"/>
    </contour>
    <contour>
      <point x="571" y="-279" type="move" name="bottom_1"/>
    </contour>
    <contour>
      <point x="498" y="590" type="move" name="top_1"/>
    </contour>
    <contour>
      <point x="256" y="47" type="move" name="top_2"/>
    </contour>
    <contour>
      <point x="301" y="-331" type="move" name="bottom_2"/>
    </contour>
  </outline>
</glyph>
<glyph name="uniFCAA" format="1">
  <advance width="668"/>
  <unicode hex="FCAA"/>
  <outline>
    <contour>
      <point x="520" y="345"/>
      <point x="437" y="373"/>
      <point x="375" y="406" type="curve" smooth="yes"/>
      <point x="345" y="422"/>
      <point x="325" y="431"/>
      <point x="298" y="437" type="curve"/>
      <point x="265" y="443"/>
      <point x="236" y="439"/>
      <point x="209" y="426" type="curve" smooth="yes"/>
      <point x="177" y="410"/>
      <point x="158" y="383"/>
      <point x="141" y="352" type="curve"/>
      <point x="163" y="313" type="line"/>
      <point x="178" y="343"/>
      <point x="199" y="351"/>
      <point x="223" y="351" type="curve" smooth="yes"/>
      <point x="257" y="351"/>
      <point x="282" y="331"/>
      <point x="316" y="309" type="curve"/>
      <point x="275" y="306"/>
      <point x="235" y="286"/>
      <point x="203" y="260" type="curve" smooth="yes"/>
      <point x="170" y="233"/>
      <point x="154" y="216"/>
      <point x="126" y="187" type="curve"/>
      <point x="102" y="164"/>
      <point x="79" y="139"/>
      <point x="46" y="139" type="curve" smooth="yes"/>
      <point x="-11" y="139" type="line" smooth="yes"/>
      <point x="-63" y="139"/>
      <point x="-80" y="88"/>
      <point x="-80" y="69" type="curve" smooth="yes"/>
      <point x="-80" y="47"/>
      <point x="-64" y="0"/>
      <point x="-11" y="0" type="curve" smooth="yes"/>
      <point x="19" y="0" type="line" smooth="yes"/>
      <point x="58" y="0"/>
      <point x="86" y="15"/>
      <point x="102" y="45" type="curve"/>
      <point x="154" y="15"/>
      <point x="193" y="-5"/>
      <point x="251" y="-11" type="curve"/>
      <point x="286" y="18"/>
      <point x="307" y="57"/>
      <point x="308" y="98" type="curve" smooth="yes"/>
      <point x="308" y="127"/>
      <point x="292" y="171"/>
      <point x="257" y="201" type="curve"/>
      <point x="283" y="234"/>
      <point x="330" y="251"/>
      <point x="373" y="255" type="curve" smooth="yes"/>
      <point x="425" y="260"/>
      <point x="484" y="252"/>
      <point x="534" y="234" type="curve"/>
      <point x="570" y="274"/>
      <point x="583" y="295"/>
      <point x="608" y="337" type="curve"/>
    </contour>
    <contour>
      <point x="215" y="95"/>
      <point x="179" y="105"/>
      <point x="138" y="134" type="curve"/>
      <point x="150" y="149"/>
      <point x="165" y="160"/>
      <point x="187" y="160" type="curve" smooth="yes"/>
      <point x="243" y="160"/>
      <point x="256" y="101"/>
      <point x="256" y="87" type="curve"/>
    </contour>
    <contour>
      <point x="329" y="0" type="move" name="caret_1"/>
    </contour>
    <contour>
      <point x="453" y="139" type="move" name="bottom_1"/>
    </contour>
    <contour>
      <point x="318" y="467" type="move" name="top_1"/>
    </contour>
    <contour>
      <point x="47" y="332" type="move" name="top_2"/>
    </contour>
    <contour>
      <point x="138" y="-33" type="move" name="bottom_2"/>
    </contour>
  </outline>
</glyph>
<glyph name="uniFCB3" format="1">
  <advance width="807"/>
  <unicode hex="FCB3"/>
  <outline>
    <contour>
      <point x="757" y="392"/>
      <point x="741" y="422"/>
      <point x="713" y="444" type="curve" smooth="yes"/>
      <point x="687" y="464"/>
      <point x="655" y="475"/>
      <point x="627" y="475" type="curve" smooth="yes"/>
      <point x="567" y="475"/>
      <point x="502" y="424"/>
      <point x="446" y="364" type="curve" smooth="yes"/>
      <point x="419" y="335"/>
      <point x="391" y="301"/>
      <point x="357" y="252" type="curve"/>
      <point x="334" y="265"/>
      <point x="323" y="285"/>
      <point x="310" y="301" type="curve" smooth="yes"/>
      <point x="296" y="318"/>
      <point x="281" y="332"/>
      <point x="246" y="332" type="curve" smooth="yes"/>
      <point x="216" y="332"/>
      <point x="189" y="323"/>
      <point x="166" y="309" type="curve" smooth="yes"/>
      <point x="146" y="296"/>
      <point x="129" y="278"/>
      <point x="115" y="258" type="curve" smooth="yes"/>
      <point x="105" y="244"/>
      <point x="92" y="221"/>
      <point x="86" y="205" type="curve" smooth="yes"/>
      <point x="79" y="186"/>
      <point x="75" y="161"/>
      <point x="76" y="137" type="curve"/>
      <point x="66" y="135"/>
      <point x="24" y="138"/>
      <point x="9" y="139" type="curve"/>
      <point x="-10" y="139" type="line" smooth="yes"/>
      <point x="-45" y="139"/>
      <point x="-80" y="116"/>
      <point x="-80" y="70" type="curve" smooth="yes"/>
      <point x="-80" y="26"/>
      <point x="-48" y="0"/>
      <point x="-10" y="0" type="curve" smooth="yes"/>
      <point x="15" y="0" type="line" smooth="yes"/>
      <point x="70" y="0"/>
      <point x="102" y="10"/>
      <point x="139" y="10" type="curve" smooth="yes"/>
      <point x="173" y="10"/>
      <point x="198" y="4"/>
      <point x="253" y="-27" type="curve"/>
      <point x="273" y="32"/>
      <point x="278" y="76"/>
      <point x="278" y="123" type="curve"/>
      <point x="219" y="138"/>
      <point x="168" y="155"/>
      <point x="168" y="184" type="curve" smooth="yes"/>
      <point x="168" y="206"/>
      <point x="199" y="232"/>
      <point x="240" y="232" type="curve" smooth="yes"/>
      <point x="280" y="232"/>
      <point x="302" y="197"/>
      <point x="324" y="168" type="curve" smooth="yes"/>
      <point x="343" y="143"/>
      <point x="356" y="136"/>
      <point x="379" y="128" type="curve" smooth="yes"/>
      <point x="420" y="116"/>
      <point x="458" y="118"/>
      <point x="468" y="119" type="curve" smooth="yes"/>
      <point x="535" y="123"/>
      <point x="612" y="155"/>
      <point x="657" y="189" type="curve" smooth="yes"/>
      <point x="685" y="210"/>
      <point x="711" y="239"/>
      <point x="728" y="267" type="curve" smooth="yes"/>
      <point x="747" y="299"/>
      <point x="757" y="333"/>
      <point x="757" y="359" type="curve" smooth="yes"/>
    </contour>
    <contour>
      <point x="655" y="296"/>
      <point x="641" y="283"/>
      <point x="617" y="272" type="curve" smooth="yes"/>
      <point x="588" y="259"/>
      <point x="556" y="252"/>
      <point x="521" y="252" type="curve" smooth="yes"/>
      <point x="432" y="252" type="line"/>
      <point x="447" y="273"/>
      <point x="462" y="291"/>
      <point x="477" y="306" type="curve" smooth="yes"/>
      <point x="507" y="337"/>
      <point x="540" y="362"/>
      <point x="585" y="362" type="curve" smooth="yes"/>
      <point x="612" y="362"/>
      <point x="628" y="353"/>
      <point x="640" y="342" type="curve"/>
      <point x="653" y="329"/>
      <point x="660" y="312"/>
      <point x="663" y="304" type="curve"/>
    </contour>
    <contour>
      <point x="404" y="0" type="move" name="caret_1"/>
    </contour>
    <contour>
      <point x="473" y="78" type="move" name="bottom_1"/>
    </contour>
    <contour>
      <point x="607" y="505" type="move" name="top_1"/>
    </contour>
    <contour>
      <point x="128" y="359" type="move" name="top_2"/>
    </contour>
    <contour>
      <point x="170" y="-54" type="move" name="bottom_2"/>
    </contour>
  </outline>
</glyph>
<glyph name="kaf_lam-ar.init" format="1">
  <advance width="528"/>
  <unicode hex="FCC7"/>
  <outline>
    <contour>
      <point x="439" y="194"/>
      <point x="427" y="231"/>
      <point x="405" y="273" type="curve" smooth="yes"/>
      <point x="384" y="312"/>
      <point x="352" y="349"/>
      <point x="301" y="382" type="curve"/>
      <point x="352" y="411"/>
      <point x="423" y="445"/>
      <point x="484" y="470" type="curve"/>
      <point x="497" y="521"/>
      <point x="502" y="558"/>
      <point x="508" y="608" type="curve"/>
      <point x="393" y="555"/>
      <point x="249" y="481"/>
      <point x="172" y="409" type="curve"/>
      <point x="165" y="475"/>
      <point x="159" y="542"/>
      <point x="152" y="608" type="curve"/>
      <point x="113" y="566"/>
      <point x="88" y="531"/>
      <point x="56" y="479" type="curve"/>
      <point x="56" y="479"/>
      <point x="86" y="336"/>
      <point x="97" y="246" type="curve" smooth="yes"/>
      <point x="98" y="238"/>
      <point x="101" y="220"/>
      <point x="102" y="193" type="curve"/>
      <point x="103" y="180"/>
      <point x="100" y="168"/>
      <point x="91" y="158" type="curve" smooth="yes"/>
      <point x="80" y="146"/>
      <point x="62" y="139"/>
      <point x="41" y="139" type="curve" smooth="yes"/>
      <point x="-10" y="139" type="line" smooth="yes"/>
      <point x="-48" y="139"/>
      <point x="-80" y="107"/>
      <point x="-80" y="69" type="curve" smooth="yes"/>
      <point x="-80" y="36"/>
      <point x="-54" y="0"/>
      <point x="-10" y="0" type="curve" smooth="yes"/>
      <point x="67" y="0" type="line" smooth="yes"/>
      <point x="140" y="0"/>
      <point x="161" y="36"/>
      <point x="171" y="53" type="curve"/>
      <point x="193" y="17"/>
      <point x="232" y="0"/>
      <point x="285" y="0" type="curve" smooth="yes"/>
      <point x="384" y="0"/>
      <point x="439" y="54"/>
      <point x="439" y="149" type="curve" smooth="yes"/>
    </contour>
    <contour>
      <point x="340" y="142"/>
      <point x="321" y="132"/>
      <point x="272" y="132" type="curve"/>
      <point x="238" y="132"/>
      <point x="222" y="140"/>
      <point x="208" y="158" type="curve" smooth="yes"/>
      <point x="198" y="171"/>
      <point x="195" y="184"/>
      <point x="193" y="200" type="curve" smooth="yes"/>
      <point x="189" y="240"/>
      <point x="185" y="281"/>
      <point x="181" y="321" type="curve"/>
      <point x="223" y="305"/>
      <point x="276" y="274"/>
      <point x="308" y="243" type="curve" smooth="yes"/>
      <point x="344" y="210"/>
      <point x="358" y="178"/>
      <point x="358" y="166" type="curve"/>
    </contour>
    <contour>
      <point x="249" y="0" type="move" name="caret_1"/>
    </contour>
    <contour>
      <point x="317" y="-29" type="move" name="bottom_1"/>
    </contour>
    <contour>
      <point x="376" y="600" type="move" name="top_1"/>
    </contour>
    <contour>
      <point x="44" y="599" type="move" name="top_2"/>
    </contour>
    <contour>
      <point x="67" y="-29" type="move" name="bottom_2"/>
    </contour>
  </outline>
</glyph>
<glyph name="uniFCCC" format="1">
  <advance width="363"/>
  <unicode hex="FCCC"/>
  <outline>
    <contour>
      <point x="11" y="493" type="line"/>
      <point x="11" y="493"/>
      <point x="34" y="442"/>
      <point x="42" y="388" type="curve" smooth="yes"/>
      <point x="54" y="313"/>
      <point x="74" y="179"/>
      <point x="99" y="146" type="curve" smooth="yes"/>
      <point x="99" y="146"/>
      <point x="77" y="139"/>
      <point x="51" y="139" type="curve" smooth="yes"/>
      <point x="-10" y="139" type="line" smooth="yes"/>
      <point x="-61" y="139"/>
      <point x="-80" y="101"/>
      <point x="-80" y="67" type="curve" smooth="yes"/>
      <point x="-80" y="24"/>
      <point x="-49" y="0"/>
      <point x="-10" y="0" type="curve" smooth="yes"/>
      <point x="27" y="0" type="line" smooth="yes"/>
      <point x="87" y="0"/>
      <point x="107" y="15"/>
      <point x="160" y="15" type="curve" smooth="yes"/>
      <point x="210" y="15"/>
      <point x="251" y="-16"/>
      <point x="266" y="-32" type="curve"/>
      <point x="290" y="17"/>
      <point x="296" y="102"/>
      <point x="291" y="152" type="curve"/>
      <point x="257" y="160"/>
      <point x="223" y="174"/>
      <point x="209" y="183" type="curve" smooth="yes"/>
      <point x="177" y="203"/>
      <point x="163" y="237"/>
      <point x="153" y="293" type="curve" smooth="yes"/>
      <point x="152" y="299"/>
      <point x="137" y="392"/>
      <point x="136" y="399" type="curve" smooth="yes"/>
      <point x="127" y="457"/>
      <point x="161" y="469"/>
      <point x="174" y="479" type="curve"/>
      <point x="131" y="523"/>
      <point x="107" y="553"/>
      <point x="86" y="608" type="curve"/>
    </contour>
    <contour>
      <point x="170" y="0" type="move" name="caret_1"/>
    </contour>
    <contour>
      <point x="245" y="-210" type="move" name="bottom_1"/>
    </contour>
    <contour>
      <point x="246" y="608" type="move" name="top_1"/>
    </contour>
    <contour>
      <point x="-36" y="608" type="move" name="top_2"/>
    </contour>
    <contour>
      <point x="33" y="-55" type="move" name="bottom_2"/>
    </contour>
  </outline>
</glyph>
<glyph name="uniFCD1" format="1">
  <advance width="421"/>
  <unicode hex="FCD1"/>
  <outline>
    <contour>
      <point x="358" y="366"/>
      <point x="368" y="423"/>
      <point x="354" y="449" type="curve" smooth="yes"/>
      <point x="342" y="471"/>
      <point x="311" y="488"/>
      <point x="277" y="497" type="curve" smooth="yes"/>
      <point x="262" y="501"/>
      <point x="238" y="504"/>
      <point x="213" y="514" type="curve"/>
      <point x="205" y="506"/>
      <point x="184" y="486"/>
      <point x="176" y="436" type="curve" smooth="yes"/>
      <point x="173" y="418"/>
      <point x="171" y="389"/>
      <point x="176" y="374" type="curve"/>
      <point x="153" y="358"/>
      <point x="134" y="346"/>
      <point x="116" y="324" type="curve" smooth="yes"/>
      <point x="92" y="295"/>
      <point x="78" y="262"/>
      <point x="78" y="219" type="curve" smooth="yes"/>
      <point x="78" y="188"/>
      <point x="93" y="162"/>
      <point x="103" y="148" type="curve"/>
      <point x="94" y="144"/>
      <point x="76" y="139"/>
      <point x="46" y="139" type="curve" smooth="yes"/>
      <point x="-10" y="139" type="line" smooth="yes"/>
      <point x="-61" y="139"/>
      <point x="-80" y="92"/>
      <point x="-80" y="70" type="curve" smooth="yes"/>
      <point x="-80" y="31"/>
      <point x="-49" y="0"/>
      <point x="-10" y="0" type="curve" smooth="yes"/>
      <point x="27" y="0" type="line" smooth="yes"/>
      <point x="73" y="0"/>
      <point x="99" y="16"/>
      <point x="151" y="16" type="curve" smooth="yes"/>
      <point x="181" y="16"/>
      <point x="229" y="5"/>
      <point x="271" y="-26" type="curve"/>
      <point x="295" y="23"/>
      <point x="301" y="89"/>
      <point x="296" y="139" type="curve"/>
      <point x="260" y="164"/>
      <point x="238" y="173"/>
      <point x="211" y="181" type="curve" smooth="yes"/>
      <point x="159" y="196"/>
      <point x="144" y="215"/>
      <point x="144" y="229" type="curve"/>
      <point x="164" y="258"/>
      <point x="227" y="286"/>
      <point x="241" y="292" type="curve" smooth="yes"/>
      <point x="260" y="300"/>
      <point x="309" y="315"/>
      <point x="343" y="324" type="curve" smooth="yes"/>
    </contour>
    <contour>
      <point x="196" y="0" type="move" name="caret_1"/>
    </contour>
    <contour>
      <point x="241" y="-131" type="move" name="bottom_1"/>
    </contour>
    <contour>
      <point x="269" y="560" type="move" name="top_1"/>
    </contour>
    <contour>
      <point x="33" y="395" type="move" name="top_2"/>
    </contour>
    <contour>
      <point x="25" y="-54" type="move" name="bottom_2"/>
    </contour>
  </outline>
</glyph>
<glyph name="uniFD0F" format="1">
  <advance width="837"/>
  <unicode hex="FD0F"/>
  <outline>
    <contour>
      <point x="787" y="283"/>
      <point x="769" y="313"/>
      <point x="743" y="333" type="curve" smooth="yes"/>
      <point x="717" y="353"/>
      <point x="685" y="364"/>
      <point x="657" y="364" type="curve" smooth="yes"/>
      <point x="598" y="364"/>
      <point x="534" y="315"/>
      <point x="476" y="253" type="curve" smooth="yes"/>
      <point x="430" y="204"/>
      <point x="402" y="161"/>
      <point x="389" y="141" type="curve"/>
      <point x="358" y="144"/>
      <point x="349" y="164"/>
      <point x="351" y="199" type="curve"/>
      <point x="303" y="180"/>
      <point x="219" y="157"/>
      <point x="136" y="139" type="curve"/>
      <point x="132" y="102"/>
      <point x="125" y="54"/>
      <point x="118" y="25" type="curve"/>
      <point x="130" y="28"/>
      <point x="148" y="31"/>
      <point x="155" y="33" type="curve"/>
      <point x="157" y="25"/>
      <point x="158" y="16"/>
      <point x="158" y="8" type="curve" smooth="yes"/>
      <point x="158" y="-48"/>
      <point x="110" y="-82"/>
      <point x="30" y="-127" type="curve" smooth="yes"/>
      <point x="-3" y="-145"/>
      <point x="15" y="-136"/>
      <point x="-120" y="-209" type="curve"/>
      <point x="-90" y="-252" type="line"/>
      <point x="-72" y="-245"/>
      <point x="-33" y="-241"/>
      <point x="-10" y="-241" type="curve" smooth="yes"/>
      <point x="9" y="-241"/>
      <point x="20" y="-244"/>
      <point x="41" y="-244" type="curve" smooth="yes"/>
      <point x="78" y="-244"/>
      <point x="107" y="-235"/>
      <point x="131" y="-218" type="curve" smooth="yes"/>
      <point x="157" y="-200"/>
      <point x="175" y="-177"/>
      <point x="189" y="-153" type="curve" smooth="yes"/>
      <point x="225" y="-91"/>
      <point x="238" y="-18"/>
      <point x="236" y="49" type="curve"/>
      <point x="257" y="54"/>
      <point x="296" y="65"/>
      <point x="316" y="70" type="curve"/>
      <point x="320" y="56"/>
      <point x="329" y="37"/>
      <point x="350" y="25" type="curve"/>
      <point x="340" y="-15" type="line"/>
      <point x="400" y="-15" type="line"/>
      <point x="407" y="10" type="line"/>
      <point x="428" y="5"/>
      <point x="461" y="6"/>
      <point x="486" y="6" type="curve" smooth="yes"/>
      <point x="554" y="6"/>
      <point x="628" y="34"/>
      <point x="686" y="78" type="curve" smooth="yes"/>
      <point x="717" y="101"/>
      <point x="741" y="128"/>
      <point x="758" y="157" type="curve" smooth="yes"/>
      <point x="779" y="192"/>
      <point x="787" y="223"/>
      <point x="787" y="247" type="curve" smooth="yes"/>
    </contour>
    <contour>
      <point x="682" y="182"/>
      <point x="670" y="172"/>
      <point x="646" y="161" type="curve" smooth="yes"/>
      <point x="618" y="148"/>
      <point x="586" y="141"/>
      <point x="551" y="141" type="curve" smooth="yes"/>
      <point x="462" y="141" type="line"/>
      <point x="464" y="143"/>
      <point x="486" y="173"/>
      <point x="506" y="195" type="curve" smooth="yes"/>
      <point x="532" y="223"/>
      <point x="571" y="251"/>
      <point x="614" y="251" type="curve" smooth="yes"/>
      <point x="639" y="251"/>
      <point x="657" y="242"/>
      <point x="667" y="233" type="curve" smooth="yes"/>
      <point x="682" y="220"/>
      <point x="691" y="196"/>
      <point x="692" y="193" type="curve"/>
    </contour>
    <contour>
      <point x="414" y="0" type="move" name="caret_1"/>
    </contour>
    <contour>
      <point x="539" y="-29" type="move" name="bottom_1"/>
    </contour>
    <contour>
      <point x="647" y="392" type="move" name="top_1"/>
    </contour>
    <contour>
      <point x="101" y="193" type="move" name="top_2"/>
    </contour>
    <contour>
      <point x="19" y="-271" type="move" name="bottom_2"/>
    </contour>
  </outline>
</glyph>
<glyph name="uniFD17" format="1">
  <advance width="1085"/>
  <unicode hex="FD17"/>
  <outline>
    <contour>
      <point x="1042" y="139" type="line" smooth="yes"/>
      <point x="1018" y="139"/>
      <point x="1002" y="144"/>
      <point x="993" y="154" type="curve"/>
      <point x="978" y="172"/>
      <point x="982" y="195"/>
      <point x="987" y="240" type="curve"/>
      <point x="936" y="221" type="line"/>
      <point x="936" y="196"/>
      <point x="932" y="175"/>
      <point x="922" y="159" type="curve" smooth="yes"/>
      <point x="912" y="143"/>
      <point x="898" y="135"/>
      <point x="879" y="135" type="curve" smooth="yes"/>
      <point x="849" y="135"/>
      <point x="841" y="154"/>
      <point x="839" y="184" type="curve" smooth="yes"/>
      <point x="838" y="201"/>
      <point x="840" y="219"/>
      <point x="844" y="240" type="curve"/>
      <point x="793" y="221" type="line"/>
      <point x="791" y="200"/>
      <point x="787" y="182"/>
      <point x="776" y="166" type="curve" smooth="yes"/>
      <point x="764" y="148"/>
      <point x="745" y="138"/>
      <point x="709" y="138" type="curve" smooth="yes"/>
      <point x="660" y="138"/>
      <point x="636" y="162"/>
      <point x="614" y="188" type="curve" smooth="yes"/>
      <point x="591" y="217"/>
      <point x="571" y="247"/>
      <point x="525" y="247" type="curve" smooth="yes"/>
      <point x="489" y="247"/>
      <point x="459" y="226"/>
      <point x="428" y="178" type="curve" smooth="yes"/>
      <point x="417" y="161"/>
      <point x="397" y="127"/>
      <point x="385" y="96" type="curve" smooth="yes"/>
      <point x="370" y="58"/>
      <point x="365" y="24"/>
      <point x="377" y="-3" type="curve" smooth="yes"/>
      <point x="387" y="-26"/>
      <point x="410" y="-44"/>
      <point x="450" y="-54" type="curve" smooth="yes"/>
      <point x="471" y="-59"/>
      <point x="504" y="-65"/>
      <point x="524" y="-67" type="curve"/>
      <point x="524" y="-93"/>
      <point x="478" y="-110"/>
      <point x="423" y="-120" type="curve" smooth="yes"/>
      <point x="387" y="-127"/>
      <point x="347" y="-130"/>
      <point x="315" y="-130" type="curve" smooth="yes"/>
      <point x="275" y="-130"/>
      <point x="238" y="-126"/>
      <point x="208" y="-115" type="curve" smooth="yes"/>
      <point x="151" y="-94"/>
      <point x="133" y="-53"/>
      <point x="133" y="-4" type="curve" smooth="yes"/>
      <point x="133" y="26"/>
      <point x="136" y="43"/>
      <point x="142" y="66" type="curve"/>
      <point x="99" y="81" type="line"/>
      <point x="78" y="30"/>
      <point x="60" y="-33"/>
      <point x="60" y="-89" type="curve" smooth="yes"/>
      <point x="60" y="-149"/>
      <point x="80" y="-196"/>
      <point x="117" y="-228" type="curve" smooth="yes"/>
      <point x="157" y="-263"/>
      <point x="218" y="-282"/>
      <point x="294" y="-282" type="curve" smooth="yes"/>
      <point x="390" y="-282"/>
      <point x="469" y="-257"/>
      <point x="530" y="-209" type="curve" smooth="yes"/>
      <point x="557" y="-188"/>
      <point x="577" y="-163"/>
      <point x="591" y="-137" type="curve" smooth="yes"/>
      <point x="607" y="-107"/>
      <point x="617" y="-79"/>
      <point x="617" y="-48" type="curve" smooth="yes"/>
      <point x="617" y="2"/>
      <point x="585" y="21"/>
      <point x="540" y="25" type="curve" smooth="yes"/>
      <point x="516" y="27"/>
      <point x="500" y="28"/>
      <point x="484" y="33" type="curve" smooth="yes"/>
      <point x="465" y="39"/>
      <point x="454" y="51"/>
      <point x="454" y="68" type="curve" smooth="yes"/>
      <point x="454" y="93"/>
      <point x="478" y="116"/>
      <point x="512" y="116" type="curve" smooth="yes"/>
      <point x="546" y="116"/>
      <point x="566" y="106"/>
      <point x="584" y="92" type="curve" smooth="yes"/>
      <point x="602" y="77"/>
      <point x="617" y="56"/>
      <point x="640" y="35" type="curve" smooth="yes"/>
      <point x="661" y="17"/>
      <point x="685" y="4"/>
      <point x="720" y="4" type="curve" smooth="yes"/>
      <point x="766" y="4"/>
      <point x="793" y="27"/>
      <point x="805" y="43" type="curve"/>
      <point x="812" y="25"/>
      <point x="829" y="0"/>
      <point x="871" y="0" type="curve" smooth="yes"/>
      <point x="922" y="0"/>
      <point x="943" y="35"/>
      <point x="949" y="48" type="curve"/>
      <point x="965" y="16"/>
      <point x="1002" y="0"/>
      <point x="1040" y="0" type="curve" smooth="yes"/>
      <point x="1085" y="0" type="line"/>
      <point x="1085" y="139" type="line"/>
    </contour>
    <contour>
      <point x="543" y="0" type="move" name="caret_1"/>
    </contour>
    <contour>
      <point x="805" y="-29" type="move" name="bottom_1"/>
    </contour>
    <contour>
      <point x="808" y="280" type="move" name="top_1"/>
    </contour>
    <contour>
      <point x="228" y="92" type="move" name="top_2"/>
    </contour>
    <contour>
      <point x="304" y="-312" type="move" name="bottom_2"/>
    </contour>
  </outline>
</glyph>
<glyph name="uniFD2A" format="1">
  <advance width="764"/>
  <unicode hex="FD2A"/>
  <outline>
    <contour>
      <point x="721" y="140" type="line" smooth="yes"/>
      <point x="697" y="140"/>
      <point x="681" y="145"/>
      <point x="672" y="155" type="curve"/>
      <point x="657" y="173"/>
      <point x="661" y="196"/>
      <point x="666" y="241" type="curve"/>
      <point x="615" y="222" type="line"/>
      <point x="615" y="173"/>
      <point x="598" y="136"/>
      <point x="558" y="136" type="curve" smooth="yes"/>
      <point x="536" y="136"/>
      <point x="512" y="147"/>
      <point x="520" y="214" type="curve"/>
      <point x="520" y="217"/>
      <point x="523" y="241"/>
      <point x="523" y="241" type="curve"/>
      <point x="472" y="222" type="line"/>
      <point x="469" y="168"/>
      <point x="445" y="136"/>
      <point x="403" y="136" type="curve" smooth="yes"/>
      <point x="378" y="136"/>
      <point x="362" y="148"/>
      <point x="355" y="168" type="curve" smooth="yes"/>
      <point x="352" y="177"/>
      <point x="350" y="187"/>
      <point x="351" y="198" type="curve"/>
      <point x="303" y="179"/>
      <point x="219" y="157"/>
      <point x="136" y="139" type="curve"/>
      <point x="132" y="102"/>
      <point x="125" y="54"/>
      <point x="118" y="25" type="curve"/>
      <point x="130" y="28"/>
      <point x="148" y="31"/>
      <point x="155" y="33" type="curve"/>
      <point x="157" y="25"/>
      <point x="158" y="16"/>
      <point x="158" y="8" type="curve" smooth="yes"/>
      <point x="158" y="-48"/>
      <point x="110" y="-82"/>
      <point x="30" y="-127" type="curve" smooth="yes"/>
      <point x="-3" y="-145"/>
      <point x="15" y="-136"/>
      <point x="-120" y="-209" type="curve"/>
      <point x="-90" y="-252" type="line"/>
      <point x="-72" y="-245"/>
      <point x="-33" y="-241"/>
      <point x="-10" y="-241" type="curve" smooth="yes"/>
      <point x="9" y="-241"/>
      <point x="20" y="-244"/>
      <point x="41" y="-244" type="curve" smooth="yes"/>
      <point x="78" y="-244"/>
      <point x="107" y="-235"/>
      <point x="131" y="-218" type="curve" smooth="yes"/>
      <point x="157" y="-200"/>
      <point x="175" y="-177"/>
      <point x="189" y="-153" type="curve" smooth="yes"/>
      <point x="225" y="-91"/>
      <point x="238" y="-18"/>
      <point x="236" y="49" type="curve"/>
      <point x="257" y="54"/>
      <point x="287" y="61"/>
      <point x="307" y="66" type="curve"/>
      <point x="313" y="44"/>
      <point x="336" y="-1"/>
      <point x="394" y="-1" type="curve" smooth="yes"/>
      <point x="443" y="-1"/>
      <point x="475" y="33"/>
      <point x="482" y="48" type="curve"/>
      <point x="489" y="28"/>
      <point x="506" y="-1"/>
      <point x="550" y="-1" type="curve" smooth="yes"/>
      <point x="604" y="-1"/>
      <point x="624" y="40"/>
      <point x="628" y="49" type="curve"/>
      <point x="644" y="17"/>
      <point x="681" y="1"/>
      <point x="719" y="1" type="curve" smooth="yes"/>
      <point x="764" y="1" type="line"/>
      <point x="764" y="140" type="line"/>
    </contour>
    <contour>
      <point x="377" y="0" type="move" name="caret_1"/>
    </contour>
    <contour>
      <point x="485" y="-29" type="move" name="bottom_1"/>
    </contour>
    <contour>
      <point x="491" y="288" type="move" name="top_1"/>
    </contour>
    <contour>
      <point x="19" y="-271" type="move" name="bottom_2"/>
    </contour>
    <contour>
      <point x="115" y="214" type="move" name="top_2"/>
    </contour>
    <contour>
      <point x="15" y="-19" type="move" name="center"/>
    </contour>
  </outline>
</glyph>
<glyph name="uniFE8E" format="1">
  <advance width="294"/>
  <unicode hex="FE8E"/>
  <outline>
    <contour>
      <point x="219" y="139" type="line" smooth="yes"/>
      <point x="198" y="139"/>
      <point x="183" y="144"/>
      <point x="173" y="154" type="curve" smooth="yes"/>
      <point x="163" y="164"/>
      <point x="159" y="179"/>
      <point x="158" y="199" type="curve" smooth="yes"/>
      <point x="147" y="608" type="line"/>
      <point x="107" y="608" type="line"/>
      <point x="80" y="574"/>
      <point x="62" y="548"/>
      <point x="40" y="511" type="curve"/>
      <point x="55" y="414"/>
      <point x="62" y="277"/>
      <point x="62" y="166" type="curve" smooth="yes"/>
      <point x="62" y="121"/>
      <point x="73" y="79"/>
      <point x="98" y="46" type="curve" smooth="yes"/>
      <point x="121" y="16"/>
      <point x="157" y="0"/>
      <point x="201" y="0" type="curve" smooth="yes"/>
      <point x="294" y="0" type="line"/>
      <point x="294" y="139" type="line"/>
    </contour>
    <contour>
      <point x="115" y="628" type="move" name="top"/>
    </contour>
    <contour>
      <point x="93" y="-30" type="move" name="bottom"/>
    </contour>
  </outline>
</glyph>
<glyph name="uniFEA4" format="1">
  <advance width="674"/>
  <unicode hex="FEA4"/>
  <outline>
    <contour>
      <point x="543" y="300"/>
      <point x="536" y="299"/>
      <point x="530" y="299" type="curve" smooth="yes"/>
      <point x="386" y="295"/>
      <point x="354" y="300"/>
      <point x="242" y="341" type="curve" smooth="yes"/>
      <point x="210" y="353"/>
      <point x="182" y="363"/>
      <point x="153" y="363" type="curve" smooth="yes"/>
      <point x="120" y="363"/>
      <point x="92" y="350"/>
      <point x="67" y="323" type="curve" smooth="yes"/>
      <point x="35" y="289"/>
      <point x="21" y="247"/>
      <point x="14" y="224" type="curve"/>
      <point x="48" y="193" type="line"/>
      <point x="64" y="226"/>
      <point x="80" y="244"/>
      <point x="123" y="244" type="curve" smooth="yes"/>
      <point x="175" y="244"/>
      <point x="233" y="218"/>
      <point x="280" y="204" type="curve"/>
      <point x="263" y="192"/>
      <point x="224" y="172"/>
      <point x="184" y="160" type="curve" smooth="yes"/>
      <point x="145" y="148"/>
      <point x="95" y="139"/>
      <point x="37" y="139" type="curve" smooth="yes"/>
      <point x="-10" y="139" type="line" smooth="yes"/>
      <point x="-49" y="139"/>
      <point x="-80" y="108"/>
      <point x="-80" y="70" type="curve" smooth="yes"/>
      <point x="-80" y="29"/>
      <point x="-44" y="0"/>
      <point x="-10" y="0" type="curve" smooth="yes"/>
      <point x="42" y="0" type="line" smooth="yes"/>
      <point x="99" y="0"/>
      <point x="142" y="13"/>
      <point x="181" y="30" type="curve" smooth="yes"/>
      <point x="234" y="53"/>
      <point x="269" y="80"/>
      <point x="312" y="114" type="curve" smooth="yes"/>
      <point x="322" y="122"/>
      <point x="348" y="141"/>
      <point x="357" y="146" type="curve"/>
      <point x="361" y="111"/>
      <point x="370" y="83"/>
      <point x="386" y="60" type="curve" smooth="yes"/>
      <point x="415" y="18"/>
      <point x="460" y="0"/>
      <point x="520" y="0" type="curve" smooth="yes"/>
      <point x="674" y="0" type="line"/>
      <point x="674" y="139" type="line"/>
      <point x="507" y="139" type="line" smooth="yes"/>
      <point x="469" y="139"/>
      <point x="444" y="151"/>
      <point x="434" y="176" type="curve"/>
      <point x="457" y="177"/>
      <point x="491" y="172"/>
      <point x="491" y="172" type="curve"/>
      <point x="518" y="220"/>
      <point x="530" y="249"/>
      <point x="549" y="300" type="curve"/>
    </contour>
    <contour>
      <point x="203" y="393" type="move" name="top"/>
    </contour>
    <contour>
      <point x="184" y="-29" type="move" name="bottom"/>
    </contour>
  </outline>
</glyph>
<glyph name="uniFECC" format="1">
  <advance width="433"/>
  <unicode hex="FECC"/>
  <outline>
    <contour>
      <point x="322" y="139" type="line"/>
      <point x="308" y="139"/>
      <point x="283" y="136"/>
      <point x="265" y="128" type="curve"/>
      <point x="283" y="144"/>
      <point x="324" y="188"/>
      <point x="324" y="222" type="curve" smooth="yes"/>
      <point x="324" y="262"/>
      <point x="289" y="304"/>
      <point x="190" y="304" type="curve" smooth="yes"/>
      <point x="151" y="304"/>
      <point x="112" y="292"/>
      <point x="78" y="271" type="curve"/>
      <point x="68" y="243"/>
      <point x="60" y="214"/>
      <point x="57" y="179" type="curve"/>
      <point x="74" y="179"/>
      <point x="105" y="173"/>
      <point x="117" y="147" type="curve"/>
      <point x="108" y="143"/>
      <point x="94" y="139"/>
      <point x="77" y="139" type="curve" smooth="yes"/>
      <point x="-11" y="139" type="line" smooth="yes"/>
      <point x="-29" y="139"/>
      <point x="-80" y="124"/>
      <point x="-80" y="69" type="curve" smooth="yes"/>
      <point x="-80" y="51"/>
      <point x="-63" y="0"/>
      <point x="-11" y="0" type="curve" smooth="yes"/>
      <point x="39" y="0" type="line" smooth="yes"/>
      <point x="74" y="0"/>
      <point x="102" y="7"/>
      <point x="127" y="19" type="curve" smooth="yes"/>
      <point x="148" y="29"/>
      <point x="168" y="43"/>
      <point x="188" y="61" type="curve"/>
      <point x="195" y="52"/>
      <point x="206" y="40"/>
      <point x="220" y="30" type="curve" smooth="yes"/>
      <point x="246" y="10"/>
      <point x="278" y="0"/>
      <point x="312" y="0" type="curve" smooth="yes"/>
      <point x="433" y="0" type="line"/>
      <point x="433" y="139" type="line"/>
    </contour>
    <contour>
      <point x="190" y="334" type="move" name="top"/>
    </contour>
    <contour>
      <point x="183" y="-29" type="move" name="bottom"/>
    </contour>
  </outline>
</glyph>
<glyph name="uniFEDB" format="1">
  <advance width="319"/>
  <unicode hex="FEDB"/>
  <outline>
    <contour>
      <point x="288" y="521"/>
      <point x="293" y="558"/>
      <point x="299" y="608" type="curve"/>
      <point x="180" y="553"/>
      <point x="59" y="486"/>
      <point x="-16" y="427" type="curve"/>
      <point x="-24" y="394"/>
      <point x="-29" y="371"/>
      <point x="-34" y="326" type="curve"/>
      <point x="19" y="266" type="line"/>
      <point x="30" y="290" type="line"/>
      <point x="78" y="254"/>
      <point x="139" y="190"/>
      <point x="139" y="166" type="curve"/>
      <point x="133" y="158"/>
      <point x="115" y="139"/>
      <point x="84" y="139" type="curve" smooth="yes"/>
      <point x="-10" y="139" type="line" smooth="yes"/>
      <point x="-49" y="139"/>
      <point x="-80" y="108"/>
      <point x="-80" y="69" type="curve" smooth="yes"/>
      <point x="-80" y="30"/>
      <point x="-48" y="0"/>
      <point x="-10" y="0" type="curve" smooth="yes"/>
      <point x="76" y="0" type="line" smooth="yes"/>
      <point x="165" y="0"/>
      <point x="220" y="54"/>
      <point x="220" y="149" type="curve" smooth="yes"/>
      <point x="220" y="194"/>
      <point x="208" y="231"/>
      <point x="186" y="273" type="curve" smooth="yes"/>
      <point x="165" y="312"/>
      <point x="133" y="349"/>
      <point x="92" y="382" type="curve"/>
      <point x="143" y="411"/>
      <point x="214" y="445"/>
      <point x="275" y="470" type="curve"/>
    </contour>
    <contour>
      <point x="116" y="579" type="move" name="top"/>
    </contour>
    <contour>
      <point x="76" y="-29" type="move" name="bottom"/>
    </contour>
  </outline>
</glyph>
<glyph name="uniFEE2" format="1">
  <advance width="519"/>
  <unicode hex="FEE2"/>
  <outline>
    <contour>
      <point x="458" y="139" type="line" smooth="yes"/>
      <point x="412" y="139"/>
      <point x="364" y="169"/>
      <point x="328" y="199" type="curve"/>
      <point x="305" y="216"/>
      <point x="277" y="244"/>
      <point x="262" y="265" type="curve"/>
      <point x="229" y="219" type="line"/>
      <point x="214" y="218"/>
      <point x="176" y="216"/>
      <point x="139" y="196" type="curve" smooth="yes"/>
      <point x="111" y="182"/>
      <point x="89" y="159"/>
      <point x="76" y="131" type="curve" smooth="yes"/>
      <point x="59" y="97"/>
      <point x="57" y="56"/>
      <point x="64" y="9" type="curve" smooth="yes"/>
      <point x="83" y="-119"/>
      <point x="104" y="-216"/>
      <point x="112" y="-345" type="curve"/>
      <point x="167" y="-325" type="line"/>
      <point x="174" y="-236"/>
      <point x="165" y="-124"/>
      <point x="159" y="-83" type="curve" smooth="yes"/>
      <point x="158" y="-71"/>
      <point x="144" y="33"/>
      <point x="144" y="43" type="curve"/>
      <point x="144" y="56"/>
      <point x="154" y="69"/>
      <point x="168" y="79" type="curve" smooth="yes"/>
      <point x="183" y="89"/>
      <point x="202" y="96"/>
      <point x="219" y="96" type="curve"/>
      <point x="220" y="89"/>
      <point x="220" y="49"/>
      <point x="248" y="15" type="curve" smooth="yes"/>
      <point x="274" y="-14"/>
      <point x="312" y="-39"/>
      <point x="371" y="-36" type="curve"/>
      <point x="389" y="-24"/>
      <point x="404" y="2"/>
      <point x="412" y="17" type="curve"/>
      <point x="422" y="9"/>
      <point x="439" y="0"/>
      <point x="464" y="0" type="curve" smooth="yes"/>
      <point x="518" y="0" type="line"/>
      <point x="518" y="139" type="line"/>
    </contour>
    <contour>
      <point x="252" y="295" type="move" name="top"/>
    </contour>
    <contour>
      <point x="143" y="-366" type="move" name="bottom"/>
    </contour>
  </outline>
</glyph>
<glyph name="TahSmallTwoDotsabove-ar" format="1">
  <advance width="0"/>
  <outline>
    <contour>
      <point x="44" y="731"/>
      <point x="20" y="706"/>
      <point x="1" y="688" type="curve"/>
      <point x="-13" y="708"/>
      <point x="-35" y="728"/>
      <point x="-59" y="741" type="curve"/>
      <point x="-68" y="729"/>
      <point x="-105" y="691"/>
      <point x="-123" y="676" type="curve"/>
      <point x="-94" y="655"/>
      <point x="-70" y="628"/>
      <point x="-53" y="608" type="curve"/>
      <point x="-36" y="622"/>
      <point x="-10" y="648"/>
      <point x="4" y="663" type="curve"/>
      <point x="25" y="645"/>
      <point x="44" y="624"/>
      <point x="57" y="608" type="curve"/>
      <point x="79" y="624"/>
      <point x="112" y="660"/>
      <point x="120" y="672" type="curve"/>
      <point x="109" y="696"/>
      <point x="82" y="724"/>
      <point x="51" y="741" type="curve"/>
    </contour>
    <contour>
      <point x="-46" y="919" type="line"/>
      <point x="-35" y="900"/>
      <point x="-25" y="855"/>
      <point x="-25" y="822" type="curve"/>
      <point x="-30" y="812" type="line"/>
      <point x="-62" y="812" type="line"/>
      <point x="-49" y="760" type="line"/>
      <point x="-3" y="760" type="line"/>
      <point x="18" y="760"/>
      <point x="42" y="769"/>
      <point x="60" y="782" type="curve" smooth="yes"/>
      <point x="81" y="798"/>
      <point x="91" y="818"/>
      <point x="91" y="838" type="curve" smooth="yes"/>
      <point x="91" y="860"/>
      <point x="65" y="877"/>
      <point x="47" y="877" type="curve" smooth="yes"/>
      <point x="32" y="877"/>
      <point x="13" y="865"/>
      <point x="-2" y="843" type="curve"/>
      <point x="1" y="858"/>
      <point x="1" y="876"/>
      <point x="-1" y="889" type="curve"/>
      <point x="-3" y="904"/>
      <point x="0" y="908"/>
      <point x="13" y="912" type="curve"/>
      <point x="1" y="926"/>
      <point x="-8" y="939"/>
      <point x="-15" y="956" type="curve"/>
    </contour>
    <contour>
      <point x="57" y="818"/>
      <point x="39" y="808"/>
      <point x="22" y="808" type="curve" smooth="yes"/>
      <point x="-4" y="808" type="line"/>
      <point x="4" y="821"/>
      <point x="19" y="838"/>
      <point x="35" y="838" type="curve" smooth="yes"/>
      <point x="50" y="838"/>
      <point x="58" y="831"/>
      <point x="62" y="825" type="curve"/>
    </contour>
    <contour>
      <point x="3" y="956" type="move" name="top"/>
    </contour>
    <contour>
      <point x="5" y="587" type="move" name="_top"/>
    </contour>
  </outline>
</glyph>
<glyph name="TahSmallTwoDotsbelowar" format="1">
  <advance width="0"/>
  <outline>
    <contour>
      <point x="44" y="-425"/>
      <point x="20" y="-450"/>
      <point x="1" y="-468" type="curve"/>
      <point x="-13" y="-448"/>
      <point x="-35" y="-428"/>
      <point x="-59" y="-415" type="curve"/>
      <point x="-68" y="-427"/>
      <point x="-105" y="-465"/>
      <point x="-123" y="-480" type="curve"/>
      <point x="-94" y="-501"/>
      <point x="-70" y="-528"/>
      <point x="-53" y="-548" type="curve"/>
      <point x="-36" y="-534"/>
      <point x="-10" y="-508"/>
      <point x="4" y="-493" type="curve"/>
      <point x="25" y="-511"/>
      <point x="44" y="-532"/>
      <point x="57" y="-548" type="curve"/>
      <point x="79" y="-532"/>
      <point x="112" y="-496"/>
      <point x="120" y="-484" type="curve"/>
      <point x="109" y="-460"/>
      <point x="82" y="-432"/>
      <point x="51" y="-415" type="curve"/>
    </contour>
    <contour>
      <point x="-46" y="-237" type="line"/>
      <point x="-35" y="-256"/>
      <point x="-25" y="-301"/>
      <point x="-25" y="-334" type="curve"/>
      <point x="-30" y="-344" type="line"/>
      <point x="-62" y="-344" type="line"/>
      <point x="-49" y="-396" type="line"/>
      <point x="-3" y="-396" type="line"/>
      <point x="18" y="-396"/>
      <point x="42" y="-387"/>
      <point x="60" y="-374" type="curve" smooth="yes"/>
      <point x="81" y="-358"/>
      <point x="91" y="-338"/>
      <point x="91" y="-318" type="curve" smooth="yes"/>
      <point x="91" y="-296"/>
      <point x="65" y="-279"/>
      <point x="47" y="-279" type="curve" smooth="yes"/>
      <point x="32" y="-279"/>
      <point x="13" y="-291"/>
      <point x="-2" y="-313" type="curve"/>
      <point x="1" y="-298"/>
      <point x="1" y="-280"/>
      <point x="-1" y="-267" type="curve"/>
      <point x="-3" y="-252"/>
      <point x="0" y="-248"/>
      <point x="13" y="-244" type="curve"/>
      <point x="1" y="-230"/>
      <point x="-8" y="-217"/>
      <point x="-15" y="-200" type="curve"/>
    </contour>
    <contour>
      <point x="57" y="-338"/>
      <point x="39" y="-348"/>
      <point x="22" y="-348" type="curve" smooth="yes"/>
      <point x="-4" y="-348" type="line"/>
      <point x="4" y="-335"/>
      <point x="19" y="-318"/>
      <point x="35" y="-318" type="curve" smooth="yes"/>
      <point x="50" y="-318"/>
      <point x="58" y="-325"/>
      <point x="62" y="-331" type="curve"/>
    </contour>
    <contour>
      <point x="-2" y="-180" type="move" name="_bottom"/>
    </contour>
    <contour>
      <point x="-2" y="-556" type="move" name="bottom"/>
    </contour>
  </outline>
</glyph>
<glyph name="TahSmallTwoDotscenter-ar" format="1">
  <advance width="0"/>
  <outline>
    <contour>
      <point x="44" y="266"/>
      <point x="20" y="241"/>
      <point x="1" y="223" type="curve"/>
      <point x="-13" y="243"/>
      <point x="-35" y="263"/>
      <point x="-59" y="276" type="curve"/>
      <point x="-68" y="264"/>
      <point x="-105" y="226"/>
      <point x="-123" y="211" type="curve"/>
      <point x="-94" y="190"/>
      <point x="-70" y="163"/>
      <point x="-53" y="143" type="curve"/>
      <point x="-36" y="157"/>
      <point x="-10" y="183"/>
      <point x="4" y="198" type="curve"/>
      <point x="25" y="180"/>
      <point x="44" y="159"/>
      <point x="57" y="143" type="curve"/>
      <point x="79" y="159"/>
      <point x="112" y="195"/>
      <point x="120" y="207" type="curve"/>
      <point x="109" y="231"/>
      <point x="82" y="259"/>
      <point x="51" y="276" type="curve"/>
    </contour>
    <contour>
      <point x="-46" y="454" type="line"/>
      <point x="-35" y="435"/>
      <point x="-25" y="390"/>
      <point x="-25" y="357" type="curve"/>
      <point x="-30" y="347" type="line"/>
      <point x="-62" y="347" type="line"/>
      <point x="-49" y="295" type="line"/>
      <point x="-3" y="295" type="line"/>
      <point x="18" y="295"/>
      <point x="42" y="304"/>
      <point x="60" y="317" type="curve" smooth="yes"/>
      <point x="81" y="333"/>
      <point x="91" y="353"/>
      <point x="91" y="373" type="curve" smooth="yes"/>
      <point x="91" y="395"/>
      <point x="65" y="412"/>
      <point x="47" y="412" type="curve" smooth="yes"/>
      <point x="32" y="412"/>
      <point x="13" y="400"/>
      <point x="-2" y="378" type="curve"/>
      <point x="1" y="393"/>
      <point x="1" y="411"/>
      <point x="-1" y="424" type="curve"/>
      <point x="-3" y="439"/>
      <point x="0" y="443"/>
      <point x="13" y="447" type="curve"/>
      <point x="1" y="461"/>
      <point x="-8" y="474"/>
      <point x="-15" y="491" type="curve"/>
    </contour>
    <contour>
      <point x="57" y="353"/>
      <point x="39" y="343"/>
      <point x="22" y="343" type="curve" smooth="yes"/>
      <point x="-4" y="343" type="line"/>
      <point x="4" y="356"/>
      <point x="19" y="373"/>
      <point x="35" y="373" type="curve" smooth="yes"/>
      <point x="50" y="373"/>
      <point x="58" y="366"/>
      <point x="62" y="360" type="curve"/>
    </contour>
    <contour>
      <point x="2" y="274" type="move" name="_center"/>
    </contour>
  </outline>
</glyph>
<glyph name="barlong" format="1">
  <advance width="0"/>
  <outline>
    <contour>
      <point x="-133" y="201" type="line"/>
      <point x="-78" y="139" type="line"/>
      <point x="126" y="139" type="line"/>
      <point x="71" y="201" type="line"/>
    </contour>
  </outline>
</glyph>
<glyph name="behVbelow-ar.medi" format="1">
  <advance width="325"/>
  <outline>
    <component base="dotlessbeh-ar.medi"/>
    <component base="vbelow-ar" xOffset="10" yOffset="152"/>
    <contour>
      <point x="9" y="-266" type="move" name="bottom"/>
    </contour>
  </outline>
</glyph>
<glyph name="dotlessbeh-ar.init" format="1">
  <advance width="244"/>
  <outline>
    <contour>
      <point x="95" y="320"/>
      <point x="78" y="293"/>
      <point x="55" y="247" type="curve"/>
      <point x="78" y="222"/>
      <point x="101" y="200"/>
      <point x="124" y="176" type="curve"/>
      <point x="108" y="152"/>
      <point x="72" y="139"/>
      <point x="45" y="139" type="curve" smooth="yes"/>
      <point x="-10" y="139" type="line" smooth="yes"/>
      <point x="-44" y="139"/>
      <point x="-80" y="113"/>
      <point x="-80" y="70" type="curve" smooth="yes"/>
      <point x="-80" y="31"/>
      <point x="-49" y="0"/>
      <point x="-10" y="0" type="curve" smooth="yes"/>
      <point x="37" y="0" type="line" smooth="yes"/>
      <point x="90" y="0"/>
      <point x="132" y="22"/>
      <point x="159" y="65" type="curve" smooth="yes"/>
      <point x="182" y="101"/>
      <point x="194" y="138"/>
      <point x="194" y="182" type="curve" smooth="yes"/>
      <point x="194" y="288"/>
      <point x="123" y="350"/>
      <point x="123" y="350" type="curve"/>
    </contour>
    <contour>
      <point x="21" y="335" type="move" name="top"/>
    </contour>
    <contour>
      <point x="19" y="-30" type="move" name="bottom"/>
    </contour>
  </outline>
</glyph>
<glyph name="dots.horz.belowar" format="1">
  <advance width="0"/>
  <outline>
    <contour>
      <point x="-149" y="-255"/>
      <point x="-125" y="-282"/>
      <point x="-108" y="-302" type="curve"/>
      <point x="-91" y="-288"/>
      <point x="-65" y="-262"/>
      <point x="-51" y="-247" type="curve"/>
      <point x="-30" y="-265"/>
      <point x="-11" y="-286"/>
      <point x="2" y="-302" type="curve"/>
      <point x="10" y="-296"/>
      <point x="50" y="-257"/>
      <point x="60" y="-247" type="curve"/>
      <point x="81" y="-265"/>
      <point x="100" y="-286"/>
      <point x="113" y="-302" type="curve"/>
      <point x="135" y="-286"/>
      <point x="168" y="-250"/>
      <point x="176" y="-238" type="curve"/>
      <point x="165" y="-214"/>
      <point x="138" y="-186"/>
      <point x="107" y="-169" type="curve"/>
      <point x="100" y="-179"/>
      <point x="76" y="-204"/>
      <point x="57" y="-222" type="curve"/>
      <point x="43" y="-202"/>
      <point x="21" y="-182"/>
      <point x="-3" y="-169" type="curve"/>
      <point x="-6" y="-174"/>
      <point x="-44" y="-212"/>
      <point x="-54" y="-222" type="curve"/>
      <point x="-68" y="-202"/>
      <point x="-90" y="-182"/>
      <point x="-114" y="-169" type="curve"/>
      <point x="-123" y="-181"/>
      <point x="-160" y="-219"/>
      <point x="-178" y="-234" type="curve"/>
    </contour>
    <contour>
      <point x="-3" y="-149" type="move" name="_bottom"/>
    </contour>
    <contour>
      <point x="2" y="-302" type="move" name="bottom"/>
    </contour>
  </outline>
</glyph>
<glyph name="extender" format="1">
  <advance width="80"/>
  <outline>
    <contour>
      <point x="-11" y="139" type="line" smooth="yes"/>
      <point x="-54" y="139"/>
      <point x="-80" y="103"/>
      <point x="-80" y="69" type="curve" smooth="yes"/>
      <point x="-80" y="31"/>
      <point x="-50" y="0"/>
      <point x="-11" y="0" type="curve" smooth="yes"/>
      <point x="80" y="0" type="line"/>
      <point x="80" y="139" type="line"/>
    </contour>
    <contour>
      <point x="56" y="169" type="move" name="top"/>
    </contour>
    <contour>
      <point x="60" y="-29" type="move" name="bottom"/>
    </contour>
  </outline>
</glyph>
<glyph name="hamzacenterar" format="1">
  <advance width="0"/>
  <outline>
    <contour>
      <point x="80" y="195"/>
      <point x="65" y="192"/>
      <point x="50" y="190" type="curve" smooth="yes"/>
      <point x="32" y="188"/>
      <point x="25" y="187"/>
      <point x="9" y="191" type="curve" smooth="yes"/>
      <point x="-13" y="197"/>
      <point x="-20" y="208"/>
      <point x="-22" y="213" type="curve"/>
      <point x="-15" y="217"/>
      <point x="1" y="225"/>
      <point x="22" y="225" type="curve" smooth="yes"/>
      <point x="32" y="225"/>
      <point x="42" y="222"/>
      <point x="53" y="218" type="curve"/>
      <point x="67" y="232" type="line"/>
      <point x="65" y="252"/>
      <point x="52" y="272"/>
      <point x="18" y="272" type="curve" smooth="yes"/>
      <point x="-2" y="272"/>
      <point x="-22" y="265"/>
      <point x="-42" y="249" type="curve" smooth="yes"/>
      <point x="-55" y="238"/>
      <point x="-67" y="224"/>
      <point x="-71" y="219" type="curve" smooth="yes"/>
      <point x="-75" y="213"/>
      <point x="-77" y="208"/>
      <point x="-77" y="201" type="curve" smooth="yes"/>
      <point x="-77" y="188"/>
      <point x="-68" y="171"/>
      <point x="-44" y="161" type="curve"/>
      <point x="-59" y="152"/>
      <point x="-79" y="139"/>
      <point x="-88" y="126" type="curve" smooth="yes"/>
      <point x="-93" y="119"/>
      <point x="-92" y="113"/>
      <point x="-91" y="109" type="curve" smooth="yes"/>
      <point x="-88" y="98"/>
      <point x="-75" y="97"/>
      <point x="-75" y="97" type="curve" smooth="yes"/>
      <point x="-75" y="97"/>
      <point x="-42" y="118"/>
      <point x="-5" y="130" type="curve" smooth="yes"/>
      <point x="18" y="139"/>
      <point x="43" y="146"/>
      <point x="67" y="147" type="curve"/>
      <point x="79" y="165"/>
      <point x="87" y="177"/>
      <point x="95" y="197" type="curve"/>
    </contour>
    <contour>
      <point x="2" y="185" type="move" name="_center"/>
    </contour>
  </outline>
</glyph>
<glyph name="lam_heh_alefMaksura-ar" format="1">
  <advance width="994"/>
  <outline>
    <contour>
      <point x="58" y="-96"/>
      <point x="61" y="-132"/>
      <point x="75" y="-166" type="curve" smooth="yes"/>
      <point x="90" y="-203"/>
      <point x="116" y="-232"/>
      <point x="155" y="-253" type="curve" smooth="yes"/>
      <point x="192" y="-273"/>
      <point x="239" y="-284"/>
      <point x="291" y="-284" type="curve" smooth="yes"/>
      <point x="353" y="-284"/>
      <point x="431" y="-268"/>
      <point x="487" y="-239" type="curve" smooth="yes"/>
      <point x="540" y="-212"/>
      <point x="582" y="-171"/>
      <point x="605" y="-128" type="curve" smooth="yes"/>
      <point x="622" y="-96"/>
      <point x="628" y="-66"/>
      <point x="629" y="-43" type="curve"/>
      <point x="629" y="-1"/>
      <point x="612" y="24"/>
      <point x="576" y="43" type="curve"/>
      <point x="609" y="45"/>
      <point x="643" y="53"/>
      <point x="673" y="65" type="curve"/>
      <point x="735" y="35"/>
      <point x="777" y="27"/>
      <point x="828" y="-12" type="curve"/>
      <point x="847" y="8"/>
      <point x="866" y="28"/>
      <point x="885" y="48" type="curve" smooth="yes"/>
      <point x="909" y="74"/>
      <point x="924" y="112"/>
      <point x="924" y="149" type="curve" smooth="yes"/>
      <point x="924" y="182"/>
      <point x="912" y="211"/>
      <point x="888" y="237" type="curve" smooth="yes"/>
      <point x="868" y="259"/>
      <point x="843" y="275"/>
      <point x="819" y="292" type="curve"/>
      <point x="788" y="312"/>
      <point x="766" y="329"/>
      <point x="754" y="354" type="curve" smooth="yes"/>
      <point x="747" y="369"/>
      <point x="737" y="402"/>
      <point x="733" y="423" type="curve" smooth="yes"/>
      <point x="727" y="451"/>
      <point x="743" y="468"/>
      <point x="772" y="488" type="curve"/>
      <point x="735" y="520"/>
      <point x="710" y="558"/>
      <point x="687" y="608" type="curve"/>
      <point x="614" y="495" type="line"/>
      <point x="637" y="437"/>
      <point x="659" y="379"/>
      <point x="672" y="319" type="curve"/>
      <point x="637" y="308"/>
      <point x="599" y="278"/>
      <point x="575" y="232" type="curve" smooth="yes"/>
      <point x="551" y="183"/>
      <point x="553" y="151"/>
      <point x="581" y="128" type="curve"/>
      <point x="525" y="109"/>
      <point x="504" y="103"/>
      <point x="460" y="92" type="curve" smooth="yes"/>
      <point x="443" y="88"/>
      <point x="435" y="74"/>
      <point x="431" y="55" type="curve" smooth="yes"/>
      <point x="428" y="39"/>
      <point x="426" y="20"/>
      <point x="423" y="-1" type="curve"/>
      <point x="423" y="-1"/>
      <point x="454" y="-7"/>
      <point x="480" y="-14" type="curve" smooth="yes"/>
      <point x="511" y="-23"/>
      <point x="543" y="-36"/>
      <point x="543" y="-52" type="curve" smooth="yes"/>
      <point x="543" y="-76"/>
      <point x="505" y="-95"/>
      <point x="441" y="-113" type="curve" smooth="yes"/>
      <point x="409" y="-122"/>
      <point x="351" y="-132"/>
      <point x="301" y="-132" type="curve" smooth="yes"/>
      <point x="232" y="-132"/>
      <point x="184" y="-113"/>
      <point x="159" y="-83" type="curve" smooth="yes"/>
      <point x="129" y="-48"/>
      <point x="130" y="13"/>
      <point x="142" y="64" type="curve"/>
      <point x="99" y="79" type="line"/>
      <point x="79" y="32"/>
      <point x="65" y="-15"/>
      <point x="61" y="-62" type="curve" smooth="yes"/>
    </contour>
    <contour>
      <point x="612" y="202"/>
      <point x="629" y="221"/>
      <point x="648" y="236" type="curve"/>
      <point x="663" y="249"/>
      <point x="681" y="260"/>
      <point x="692" y="260" type="curve" smooth="yes"/>
      <point x="701" y="260"/>
      <point x="712" y="249"/>
      <point x="719" y="235" type="curve"/>
      <point x="727" y="221"/>
      <point x="733" y="206"/>
      <point x="733" y="197" type="curve" smooth="yes"/>
      <point x="733" y="186"/>
      <point x="725" y="177"/>
      <point x="715" y="169" type="curve"/>
      <point x="704" y="163"/>
      <point x="692" y="158"/>
      <point x="681" y="158" type="curve" smooth="yes"/>
      <point x="670" y="158"/>
      <point x="653" y="163"/>
      <point x="639" y="169" type="curve"/>
      <point x="626" y="176"/>
      <point x="614" y="185"/>
      <point x="609" y="195" type="curve"/>
    </contour>
    <contour>
      <point x="767" y="157"/>
      <point x="774" y="173"/>
      <point x="776" y="189" type="curve"/>
      <point x="777" y="204"/>
      <point x="776" y="220"/>
      <point x="773" y="239" type="curve"/>
      <point x="794" y="226"/>
      <point x="807" y="219"/>
      <point x="830" y="204" type="curve" smooth="yes"/>
      <point x="857" y="187"/>
      <point x="872" y="153"/>
      <point x="856" y="116" type="curve"/>
      <point x="833" y="122"/>
      <point x="783" y="133"/>
      <point x="756" y="140" type="curve"/>
    </contour>
    <contour>
      <point x="772" y="-67" type="move" name="bottom_1"/>
    </contour>
    <contour>
      <point x="901" y="346" type="move" name="top_2"/>
    </contour>
    <contour>
      <point x="663" y="0" type="move" name="caret_2"/>
    </contour>
    <contour>
      <point x="331" y="0" type="move" name="caret_1"/>
    </contour>
    <contour>
      <point x="311" y="-314" type="move" name="bottom_3"/>
    </contour>
    <contour>
      <point x="566" y="608" type="move" name="top_1"/>
    </contour>
    <contour>
      <point x="568" y="-274" type="move" name="bottom_2"/>
    </contour>
    <contour>
      <point x="286" y="60" type="move" name="top_3"/>
    </contour>
  </outline>
</glyph>
<glyph name="seen_meem_alefMaksura-ar" format="1">
  <advance width="1293"/>
  <outline>
    <contour>
      <point x="1161" y="399"/>
      <point x="1145" y="377"/>
      <point x="1125" y="347" type="curve"/>
      <point x="1174" y="278" type="line"/>
      <point x="1162" y="258"/>
      <point x="1150" y="248"/>
      <point x="1121" y="248" type="curve" smooth="yes"/>
      <point x="1108" y="248"/>
      <point x="1086" y="250"/>
      <point x="1074" y="263" type="curve"/>
      <point x="1062" y="275"/>
      <point x="1059" y="297"/>
      <point x="1060" y="317" type="curve"/>
      <point x="1061" y="329"/>
      <point x="1063" y="341"/>
      <point x="1064" y="353" type="curve"/>
      <point x="1013" y="334" type="line"/>
      <point x="1013" y="326"/>
      <point x="1012" y="319"/>
      <point x="1011" y="312" type="curve"/>
      <point x="1004" y="275"/>
      <point x="983" y="246"/>
      <point x="945" y="246" type="curve" smooth="yes"/>
      <point x="905" y="246"/>
      <point x="892" y="275"/>
      <point x="872" y="300" type="curve" smooth="yes"/>
      <point x="858" y="317"/>
      <point x="840" y="332"/>
      <point x="806" y="332" type="curve" smooth="yes"/>
      <point x="787" y="332"/>
      <point x="766" y="326"/>
      <point x="745" y="314" type="curve" smooth="yes"/>
      <point x="723" y="301"/>
      <point x="700" y="279"/>
      <point x="685" y="258" type="curve" smooth="yes"/>
      <point x="675" y="244"/>
      <point x="662" y="221"/>
      <point x="656" y="205" type="curve" smooth="yes"/>
      <point x="649" y="186"/>
      <point x="645" y="162"/>
      <point x="646" y="138" type="curve"/>
      <point x="566" y="139"/>
      <point x="498" y="129"/>
      <point x="453" y="93" type="curve"/>
      <point x="432" y="72"/>
      <point x="427" y="59"/>
      <point x="418" y="2" type="curve"/>
      <point x="446" y="-3"/>
      <point x="455" y="-5"/>
      <point x="484" y="-12" type="curve"/>
      <point x="514" y="-21"/>
      <point x="543" y="-34"/>
      <point x="543" y="-49" type="curve" smooth="yes"/>
      <point x="543" y="-77"/>
      <point x="498" y="-99"/>
      <point x="438" y="-113" type="curve" smooth="yes"/>
      <point x="396" y="-123"/>
      <point x="348" y="-128"/>
      <point x="303" y="-128" type="curve" smooth="yes"/>
      <point x="234" y="-128"/>
      <point x="185" y="-114"/>
      <point x="159" y="-80" type="curve" smooth="yes"/>
      <point x="130" y="-44"/>
      <point x="129" y="10"/>
      <point x="142" y="67" type="curve"/>
      <point x="99" y="82" type="line"/>
      <point x="78" y="33"/>
      <point x="65" y="-13"/>
      <point x="61" y="-59" type="curve" smooth="yes"/>
      <point x="58" y="-93"/>
      <point x="61" y="-129"/>
      <point x="75" y="-163" type="curve" smooth="yes"/>
      <point x="90" y="-200"/>
      <point x="117" y="-229"/>
      <point x="154" y="-250" type="curve" smooth="yes"/>
      <point x="192" y="-270"/>
      <point x="239" y="-281"/>
      <point x="294" y="-281" type="curve" smooth="yes"/>
      <point x="357" y="-281"/>
      <point x="416" y="-270"/>
      <point x="466" y="-249" type="curve" smooth="yes"/>
      <point x="528" y="-222"/>
      <point x="577" y="-181"/>
      <point x="606" y="-126" type="curve" smooth="yes"/>
      <point x="621" y="-96"/>
      <point x="629" y="-66"/>
      <point x="630" y="-40" type="curve"/>
      <point x="630" y="3"/>
      <point x="611" y="29"/>
      <point x="572" y="49" type="curve"/>
      <point x="639" y="49"/>
      <point x="730" y="22"/>
      <point x="803" y="-27" type="curve"/>
      <point x="823" y="32"/>
      <point x="828" y="79"/>
      <point x="828" y="126" type="curve"/>
      <point x="769" y="141"/>
      <point x="718" y="155"/>
      <point x="718" y="184" type="curve" smooth="yes"/>
      <point x="718" y="206"/>
      <point x="749" y="236"/>
      <point x="790" y="236" type="curve" smooth="yes"/>
      <point x="824" y="236"/>
      <point x="843" y="216"/>
      <point x="860" y="192" type="curve" smooth="yes"/>
      <point x="884" y="158"/>
      <point x="903" y="117"/>
      <point x="953" y="117" type="curve" smooth="yes"/>
      <point x="1005" y="117"/>
      <point x="1023" y="151"/>
      <point x="1031" y="166" type="curve"/>
      <point x="1039" y="151"/>
      <point x="1068" y="123"/>
      <point x="1116" y="123" type="curve" smooth="yes"/>
      <point x="1160" y="123"/>
      <point x="1196" y="147"/>
      <point x="1219" y="190" type="curve" smooth="yes"/>
      <point x="1239" y="228"/>
      <point x="1243" y="267"/>
      <point x="1243" y="289" type="curve" smooth="yes"/>
      <point x="1243" y="331"/>
      <point x="1228" y="380"/>
      <point x="1185" y="425" type="curve"/>
    </contour>
    <contour>
      <point x="1045" y="74" type="move" name="bottom_1"/>
    </contour>
    <contour>
      <point x="716" y="372" type="move" name="top_2"/>
    </contour>
    <contour>
      <point x="855" y="0" type="move" name="caret_2"/>
    </contour>
    <contour>
      <point x="428" y="0" type="move" name="caret_1"/>
    </contour>
    <contour>
      <point x="314" y="-311" type="move" name="bottom_3"/>
    </contour>
    <contour>
      <point x="1013" y="374" type="move" name="top_1"/>
    </contour>
    <contour>
      <point x="763" y="-67" type="move" name="bottom_2"/>
    </contour>
    <contour>
      <point x="282" y="46" type="move" name="top_3"/>
    </contour>
  </outline>
</glyph>
<glyph name="tahcenter-ar" format="1">
  <advance width="0"/>
  <outline>
    <contour>
      <point x="-55" y="298" type="line"/>
      <point x="-44" y="279"/>
      <point x="-34" y="234"/>
      <point x="-34" y="201" type="curve"/>
      <point x="-39" y="191" type="line"/>
      <point x="-71" y="191" type="line"/>
      <point x="-58" y="139" type="line"/>
      <point x="-12" y="139" type="line"/>
      <point x="9" y="139"/>
      <point x="33" y="148"/>
      <point x="51" y="161" type="curve" smooth="yes"/>
      <point x="72" y="177"/>
      <point x="82" y="197"/>
      <point x="82" y="217" type="curve" smooth="yes"/>
      <point x="82" y="239"/>
      <point x="56" y="256"/>
      <point x="38" y="256" type="curve" smooth="yes"/>
      <point x="23" y="256"/>
      <point x="4" y="244"/>
      <point x="-11" y="222" type="curve"/>
      <point x="-8" y="237"/>
      <point x="-8" y="255"/>
      <point x="-10" y="268" type="curve"/>
      <point x="-12" y="283"/>
      <point x="-9" y="287"/>
      <point x="4" y="291" type="curve"/>
      <point x="-8" y="305"/>
      <point x="-17" y="318"/>
      <point x="-24" y="335" type="curve"/>
    </contour>
    <contour>
      <point x="48" y="197"/>
      <point x="30" y="187"/>
      <point x="13" y="187" type="curve" smooth="yes"/>
      <point x="-13" y="187" type="line"/>
      <point x="-5" y="200"/>
      <point x="10" y="217"/>
      <point x="26" y="217" type="curve" smooth="yes"/>
      <point x="41" y="217"/>
      <point x="49" y="210"/>
      <point x="53" y="204" type="curve"/>
    </contour>
    <contour>
      <point x="6" y="237" type="move" name="_center"/>
    </contour>
  </outline>
</glyph>
<glyph name="uni0607.pt" format="1">
  <advance width="618"/>
  <outline>
    <contour>
      <point x="300" y="232" type="line"/>
      <point x="135" y="608" type="line"/>
      <point x="50" y="608" type="line"/>
      <point x="313" y="0" type="line"/>
      <point x="470" y="317" type="line"/>
      <point x="544" y="317" type="line"/>
      <point x="568" y="399" type="line"/>
      <point x="380" y="399" type="line"/>
    </contour>
  </outline>
</glyph>
<glyph name="uni062D06450649" format="1">
  <advance width="1168"/>
  <outline>
    <contour>
      <point x="1020" y="345"/>
      <point x="937" y="373"/>
      <point x="875" y="406" type="curve" smooth="yes"/>
      <point x="845" y="422"/>
      <point x="825" y="431"/>
      <point x="798" y="437" type="curve"/>
      <point x="765" y="443"/>
      <point x="736" y="439"/>
      <point x="709" y="426" type="curve" smooth="yes"/>
      <point x="677" y="410"/>
      <point x="658" y="383"/>
      <point x="641" y="352" type="curve"/>
      <point x="663" y="313" type="line"/>
      <point x="678" y="343"/>
      <point x="699" y="351"/>
      <point x="723" y="351" type="curve" smooth="yes"/>
      <point x="757" y="351"/>
      <point x="782" y="331"/>
      <point x="816" y="309" type="curve"/>
      <point x="769" y="302"/>
      <point x="724" y="279"/>
      <point x="686" y="250" type="curve" smooth="yes"/>
      <point x="650" y="222"/>
      <point x="620" y="189"/>
      <point x="602" y="160" type="curve" smooth="yes"/>
      <point x="579" y="123"/>
      <point x="544" y="103"/>
      <point x="510" y="89" type="curve" smooth="yes"/>
      <point x="468" y="71"/>
      <point x="424" y="66"/>
      <point x="392" y="65" type="curve"/>
      <point x="384" y="37"/>
      <point x="379" y="10"/>
      <point x="379" y="-29" type="curve"/>
      <point x="429" y="-33"/>
      <point x="461" y="-37"/>
      <point x="488" y="-44" type="curve" smooth="yes"/>
      <point x="522" y="-53"/>
      <point x="542" y="-65"/>
      <point x="543" y="-77" type="curve"/>
      <point x="543" y="-107"/>
      <point x="483" y="-131"/>
      <point x="418" y="-145" type="curve" smooth="yes"/>
      <point x="376" y="-153"/>
      <point x="332" y="-158"/>
      <point x="299" y="-158" type="curve" smooth="yes"/>
      <point x="229" y="-158"/>
      <point x="184" y="-138"/>
      <point x="159" y="-108" type="curve" smooth="yes"/>
      <point x="133" y="-77"/>
      <point x="128" y="-24"/>
      <point x="142" y="39" type="curve"/>
      <point x="99" y="54" type="line"/>
      <point x="75" y="-5"/>
      <point x="64" y="-54"/>
      <point x="61" y="-93" type="curve" smooth="yes"/>
      <point x="58" y="-129"/>
      <point x="63" y="-162"/>
      <point x="75" y="-191" type="curve" smooth="yes"/>
      <point x="91" y="-229"/>
      <point x="116" y="-257"/>
      <point x="155" y="-278" type="curve" smooth="yes"/>
      <point x="192" y="-298"/>
      <point x="240" y="-309"/>
      <point x="288" y="-309" type="curve" smooth="yes"/>
      <point x="338" y="-309"/>
      <point x="390" y="-301"/>
      <point x="436" y="-284" type="curve" smooth="yes"/>
      <point x="484" y="-267"/>
      <point x="526" y="-241"/>
      <point x="556" y="-207" type="curve" smooth="yes"/>
      <point x="586" y="-174"/>
      <point x="605" y="-132"/>
      <point x="605" y="-82" type="curve" smooth="yes"/>
      <point x="605" y="-35"/>
      <point x="582" y="1"/>
      <point x="537" y="20" type="curve"/>
      <point x="561" y="27"/>
      <point x="590" y="45"/>
      <point x="603" y="56" type="curve"/>
      <point x="650" y="29"/>
      <point x="701" y="-2"/>
      <point x="751" y="-7" type="curve"/>
      <point x="786" y="22"/>
      <point x="807" y="57"/>
      <point x="808" y="98" type="curve" smooth="yes"/>
      <point x="808" y="127"/>
      <point x="792" y="167"/>
      <point x="757" y="197" type="curve"/>
      <point x="780" y="227"/>
      <point x="824" y="248"/>
      <point x="865" y="256" type="curve" smooth="yes"/>
      <point x="916" y="265"/>
      <point x="977" y="255"/>
      <point x="1034" y="234" type="curve"/>
      <point x="1070" y="274"/>
      <point x="1083" y="295"/>
      <point x="1108" y="337" type="curve"/>
    </contour>
    <contour>
      <point x="715" y="95"/>
      <point x="679" y="105"/>
      <point x="638" y="134" type="curve"/>
      <point x="650" y="149"/>
      <point x="665" y="160"/>
      <point x="687" y="160" type="curve" smooth="yes"/>
      <point x="743" y="160"/>
      <point x="756" y="101"/>
      <point x="756" y="87" type="curve"/>
    </contour>
    <contour>
      <point x="957" y="160" type="move" name="bottom_1"/>
    </contour>
    <contour>
      <point x="476" y="225" type="move" name="top_2"/>
    </contour>
    <contour>
      <point x="772" y="0" type="move" name="caret_2"/>
    </contour>
    <contour>
      <point x="386" y="0" type="move" name="caret_1"/>
    </contour>
    <contour>
      <point x="308" y="-339" type="move" name="bottom_3"/>
    </contour>
    <contour>
      <point x="765" y="473" type="move" name="top_1"/>
    </contour>
    <contour>
      <point x="726" y="-103" type="move" name="bottom_2"/>
    </contour>
    <contour>
      <point x="246" y="44" type="move" name="top_3"/>
    </contour>
  </outline>
</glyph>
<glyph name="uni064306440649.fina" format="1">
  <advance width="1036"/>
  <outline>
    <contour>
      <point x="819" y="553"/>
      <point x="664" y="474"/>
      <point x="593" y="404" type="curve"/>
      <point x="587" y="472"/>
      <point x="580" y="540"/>
      <point x="573" y="608" type="curve"/>
      <point x="534" y="566"/>
      <point x="509" y="531"/>
      <point x="477" y="479" type="curve"/>
      <point x="477" y="479"/>
      <point x="503" y="357"/>
      <point x="514" y="275" type="curve" smooth="yes"/>
      <point x="523" y="202"/>
      <point x="527" y="173"/>
      <point x="534" y="121" type="curve"/>
      <point x="513" y="84"/>
      <point x="439" y="67"/>
      <point x="392" y="65" type="curve"/>
      <point x="384" y="37"/>
      <point x="379" y="10"/>
      <point x="379" y="-29" type="curve"/>
      <point x="429" y="-33"/>
      <point x="461" y="-37"/>
      <point x="488" y="-44" type="curve" smooth="yes"/>
      <point x="522" y="-53"/>
      <point x="542" y="-65"/>
      <point x="543" y="-77" type="curve"/>
      <point x="543" y="-107"/>
      <point x="483" y="-131"/>
      <point x="418" y="-145" type="curve" smooth="yes"/>
      <point x="376" y="-153"/>
      <point x="332" y="-158"/>
      <point x="299" y="-158" type="curve" smooth="yes"/>
      <point x="229" y="-158"/>
      <point x="184" y="-138"/>
      <point x="159" y="-108" type="curve" smooth="yes"/>
      <point x="133" y="-77"/>
      <point x="128" y="-24"/>
      <point x="142" y="39" type="curve"/>
      <point x="99" y="54" type="line"/>
      <point x="75" y="-5"/>
      <point x="64" y="-54"/>
      <point x="61" y="-93" type="curve" smooth="yes"/>
      <point x="58" y="-129"/>
      <point x="63" y="-162"/>
      <point x="75" y="-191" type="curve" smooth="yes"/>
      <point x="91" y="-229"/>
      <point x="116" y="-257"/>
      <point x="155" y="-278" type="curve" smooth="yes"/>
      <point x="192" y="-298"/>
      <point x="240" y="-309"/>
      <point x="288" y="-309" type="curve" smooth="yes"/>
      <point x="338" y="-309"/>
      <point x="390" y="-301"/>
      <point x="436" y="-284" type="curve" smooth="yes"/>
      <point x="484" y="-267"/>
      <point x="526" y="-241"/>
      <point x="556" y="-207" type="curve" smooth="yes"/>
      <point x="586" y="-174"/>
      <point x="605" y="-132"/>
      <point x="605" y="-82" type="curve" smooth="yes"/>
      <point x="605" y="-30"/>
      <point x="587" y="9"/>
      <point x="531" y="26" type="curve"/>
      <point x="562" y="39"/>
      <point x="582" y="59"/>
      <point x="589" y="80" type="curve"/>
      <point x="614" y="29"/>
      <point x="663" y="0"/>
      <point x="722" y="0" type="curve"/>
      <point x="781" y="0"/>
      <point x="812" y="30"/>
      <point x="829" y="75" type="curve"/>
      <point x="834" y="67"/>
      <point x="877" y="0"/>
      <point x="971" y="0" type="curve" smooth="yes"/>
      <point x="1036" y="0" type="line"/>
      <point x="1036" y="139" type="line"/>
      <point x="970" y="139" type="line" smooth="yes"/>
      <point x="916" y="139"/>
      <point x="893" y="169"/>
      <point x="865" y="201" type="curve" smooth="yes"/>
      <point x="838" y="232"/>
      <point x="812" y="262"/>
      <point x="785" y="293" type="curve" smooth="yes"/>
      <point x="760" y="321"/>
      <point x="734" y="349"/>
      <point x="712" y="372" type="curve"/>
      <point x="769" y="407"/>
      <point x="840" y="442"/>
      <point x="911" y="470" type="curve"/>
      <point x="923" y="518"/>
      <point x="930" y="558"/>
      <point x="935" y="608" type="curve"/>
    </contour>
    <contour>
      <point x="750" y="143"/>
      <point x="731" y="132"/>
      <point x="695" y="132" type="curve"/>
      <point x="664" y="132"/>
      <point x="649" y="140"/>
      <point x="635" y="154" type="curve" smooth="yes"/>
      <point x="620" y="169"/>
      <point x="618" y="190"/>
      <point x="617" y="200" type="curve" smooth="yes"/>
      <point x="612" y="248"/>
      <point x="607" y="295"/>
      <point x="602" y="343" type="curve"/>
      <point x="631" y="313"/>
      <point x="675" y="268"/>
      <point x="691" y="250" type="curve" smooth="yes"/>
      <point x="719" y="219"/>
      <point x="745" y="195"/>
      <point x="765" y="162" type="curve"/>
    </contour>
    <contour>
      <point x="770" y="-55" type="move" name="bottom_1"/>
    </contour>
    <contour>
      <point x="459" y="608" type="move" name="top_2"/>
    </contour>
    <contour>
      <point x="694" y="0" type="move" name="caret_2"/>
    </contour>
    <contour>
      <point x="362" y="0" type="move" name="caret_1"/>
    </contour>
    <contour>
      <point x="298" y="-339" type="move" name="bottom_3"/>
    </contour>
    <contour>
      <point x="802" y="608" type="move" name="top_1"/>
    </contour>
    <contour>
      <point x="575" y="-275" type="move" name="bottom_2"/>
    </contour>
    <contour>
      <point x="250" y="65" type="move" name="top_3"/>
    </contour>
  </outline>
</glyph>
<glyph name="uni064406450649" format="1">
  <advance width="900"/>
  <outline>
    <contour>
      <point x="794" y="150"/>
      <point x="763" y="164"/>
      <point x="749" y="173" type="curve" smooth="yes"/>
      <point x="717" y="193"/>
      <point x="703" y="227"/>
      <point x="693" y="283" type="curve" smooth="yes"/>
      <point x="687" y="322"/>
      <point x="682" y="360"/>
      <point x="676" y="399" type="curve" smooth="yes"/>
      <point x="667" y="457"/>
      <point x="701" y="469"/>
      <point x="714" y="479" type="curve"/>
      <point x="671" y="523"/>
      <point x="647" y="553"/>
      <point x="626" y="608" type="curve"/>
      <point x="551" y="493" type="line"/>
      <point x="551" y="493"/>
      <point x="574" y="442"/>
      <point x="582" y="388" type="curve" smooth="yes"/>
      <point x="594" y="316"/>
      <point x="621" y="177"/>
      <point x="646" y="137" type="curve"/>
      <point x="566" y="138"/>
      <point x="498" y="128"/>
      <point x="453" y="92" type="curve"/>
      <point x="432" y="71"/>
      <point x="427" y="58"/>
      <point x="418" y="1" type="curve"/>
      <point x="446" y="-4"/>
      <point x="455" y="-6"/>
      <point x="484" y="-13" type="curve"/>
      <point x="514" y="-22"/>
      <point x="543" y="-35"/>
      <point x="543" y="-50" type="curve" smooth="yes"/>
      <point x="543" y="-78"/>
      <point x="498" y="-100"/>
      <point x="438" y="-114" type="curve" smooth="yes"/>
      <point x="396" y="-124"/>
      <point x="348" y="-129"/>
      <point x="303" y="-129" type="curve" smooth="yes"/>
      <point x="234" y="-129"/>
      <point x="185" y="-115"/>
      <point x="159" y="-81" type="curve" smooth="yes"/>
      <point x="130" y="-45"/>
      <point x="129" y="19"/>
      <point x="142" y="76" type="curve"/>
      <point x="99" y="91" type="line"/>
      <point x="78" y="42"/>
      <point x="65" y="-14"/>
      <point x="61" y="-60" type="curve" smooth="yes"/>
      <point x="58" y="-94"/>
      <point x="61" y="-130"/>
      <point x="75" y="-164" type="curve" smooth="yes"/>
      <point x="90" y="-201"/>
      <point x="117" y="-230"/>
      <point x="154" y="-251" type="curve" smooth="yes"/>
      <point x="192" y="-271"/>
      <point x="239" y="-282"/>
      <point x="294" y="-282" type="curve" smooth="yes"/>
      <point x="357" y="-282"/>
      <point x="416" y="-271"/>
      <point x="466" y="-250" type="curve" smooth="yes"/>
      <point x="528" y="-223"/>
      <point x="577" y="-182"/>
      <point x="606" y="-127" type="curve" smooth="yes"/>
      <point x="621" y="-97"/>
      <point x="629" y="-67"/>
      <point x="630" y="-41" type="curve"/>
      <point x="630" y="2"/>
      <point x="611" y="28"/>
      <point x="572" y="48" type="curve"/>
      <point x="632" y="48"/>
      <point x="736" y="20"/>
      <point x="803" y="-28" type="curve"/>
      <point x="827" y="21"/>
      <point x="833" y="92"/>
      <point x="828" y="142" type="curve"/>
    </contour>
    <contour>
      <point x="528" y="-324" type="move" name="bottom_1"/>
    </contour>
    <contour>
      <point x="476" y="608" type="move" name="top_2"/>
    </contour>
    <contour>
      <point x="587" y="0" type="move" name="caret_2"/>
    </contour>
    <contour>
      <point x="293" y="0" type="move" name="caret_1"/>
    </contour>
    <contour>
      <point x="272" y="-312" type="move" name="bottom_3"/>
    </contour>
    <contour>
      <point x="763" y="608" type="move" name="top_1"/>
    </contour>
    <contour>
      <point x="737" y="-91" type="move" name="bottom_2"/>
    </contour>
    <contour>
      <point x="279" y="50" type="move" name="top_3"/>
    </contour>
  </outline>
</glyph>
<glyph name="uni0662.below" format="1">
  <advance width="0"/>
  <outline>
    <contour>
      <point x="58" y="-212" type="line"/>
      <point x="56" y="-227"/>
      <point x="49" y="-247"/>
      <point x="9" y="-247" type="curve" smooth="yes"/>
      <point x="-7" y="-247"/>
      <point x="-19" y="-240"/>
      <point x="-27" y="-229" type="curve" smooth="yes"/>
      <point x="-35" y="-220"/>
      <point x="-40" y="-210"/>
      <point x="-47" y="-199" type="curve"/>
      <point x="-62" y="-218"/>
      <point x="-69" y="-229"/>
      <point x="-79" y="-249" type="curve"/>
      <point x="-64" y="-274"/>
      <point x="-54" y="-300"/>
      <point x="-47" y="-329" type="curve" smooth="yes"/>
      <point x="-36" y="-371"/>
      <point x="-32" y="-411"/>
      <point x="-35" y="-457" type="curve"/>
      <point x="-10" y="-457" type="line"/>
      <point x="-3" y="-426"/>
      <point x="1" y="-400"/>
      <point x="3" y="-374" type="curve" smooth="yes"/>
      <point x="4" y="-355"/>
      <point x="3" y="-326"/>
      <point x="-2" y="-306" type="curve"/>
      <point x="21" y="-306"/>
      <point x="40" y="-301"/>
      <point x="57" y="-283" type="curve" smooth="yes"/>
      <point x="73" y="-264"/>
      <point x="81" y="-237"/>
      <point x="81" y="-204" type="curve"/>
    </contour>
    <contour>
      <point x="-11" y="-184" type="move" name="_bottom"/>
    </contour>
    <contour>
      <point x="-10" y="-457" type="move" name="bottom"/>
    </contour>
  </outline>
</glyph>
<glyph name="uni066E0631" format="1">
  <advance width="570"/>
  <outline>
    <contour>
      <point x="375" y="334"/>
      <point x="310" y="304"/>
      <point x="292" y="294" type="curve" smooth="yes"/>
      <point x="258" y="276"/>
      <point x="230" y="251"/>
      <point x="212" y="213" type="curve" smooth="yes"/>
      <point x="197" y="182"/>
      <point x="188" y="141"/>
      <point x="193" y="100" type="curve" smooth="yes"/>
      <point x="195" y="83"/>
      <point x="201" y="61"/>
      <point x="201" y="29" type="curve" smooth="yes"/>
      <point x="201" y="-32"/>
      <point x="180" y="-65"/>
      <point x="60" y="-135" type="curve" smooth="yes"/>
      <point x="0" y="-170"/>
      <point x="-90" y="-217"/>
      <point x="-90" y="-217" type="curve"/>
      <point x="-60" y="-260" type="line"/>
      <point x="-35" y="-252"/>
      <point x="-2" y="-249"/>
      <point x="19" y="-249" type="curve" smooth="yes"/>
      <point x="40" y="-249"/>
      <point x="47" y="-252"/>
      <point x="72" y="-252" type="curve" smooth="yes"/>
      <point x="114" y="-252"/>
      <point x="147" y="-243"/>
      <point x="183" y="-210" type="curve" smooth="yes"/>
      <point x="209" y="-186"/>
      <point x="231" y="-155"/>
      <point x="252" y="-107" type="curve" smooth="yes"/>
      <point x="271" y="-65"/>
      <point x="281" y="-22"/>
      <point x="284" y="27" type="curve" smooth="yes"/>
      <point x="286" y="61"/>
      <point x="285" y="80"/>
      <point x="275" y="136" type="curve"/>
      <point x="299" y="151"/>
      <point x="362" y="177"/>
      <point x="448" y="177" type="curve" smooth="yes"/>
      <point x="458" y="177"/>
      <point x="467" y="177"/>
      <point x="477" y="176" type="curve"/>
      <point x="504" y="240"/>
      <point x="512" y="279"/>
      <point x="520" y="331" type="curve"/>
      <point x="503" y="333"/>
      <point x="486" y="334"/>
      <point x="469" y="334" type="curve" smooth="yes"/>
    </contour>
    <contour>
      <point x="300" y="0" type="move" name="caret_1"/>
    </contour>
    <contour>
      <point x="423" y="-19" type="move" name="bottom_1"/>
    </contour>
    <contour>
      <point x="448" y="439" type="move" name="top_1"/>
    </contour>
    <contour>
      <point x="183" y="350" type="move" name="top_2"/>
    </contour>
    <contour>
      <point x="47" y="-282" type="move" name="bottom_2"/>
    </contour>
  </outline>
</glyph>
<glyph name="uni066E0645.fina" format="1">
  <advance width="563"/>
  <outline>
    <contour>
      <point x="508" y="139" type="line" smooth="yes"/>
      <point x="469" y="139"/>
      <point x="446" y="155"/>
      <point x="426" y="172" type="curve" smooth="yes"/>
      <point x="398" y="197"/>
      <point x="377" y="225"/>
      <point x="332" y="225" type="curve" smooth="yes"/>
      <point x="274" y="225"/>
      <point x="229" y="174"/>
      <point x="212" y="150" type="curve" smooth="yes"/>
      <point x="192" y="123"/>
      <point x="169" y="80"/>
      <point x="163" y="43" type="curve"/>
      <point x="124" y="21"/>
      <point x="99" y="-5"/>
      <point x="81" y="-38" type="curve" smooth="yes"/>
      <point x="65" y="-70"/>
      <point x="55" y="-111"/>
      <point x="62" y="-154" type="curve" smooth="yes"/>
      <point x="90" y="-332"/>
      <point x="102" y="-425"/>
      <point x="109" y="-508" type="curve"/>
      <point x="171" y="-482" type="line"/>
      <point x="171" y="-482"/>
      <point x="166" y="-352"/>
      <point x="161" y="-282" type="curve" smooth="yes"/>
      <point x="155" y="-222"/>
      <point x="147" y="-149"/>
      <point x="138" y="-87" type="curve"/>
      <point x="150" y="-77"/>
      <point x="171" y="-64"/>
      <point x="229" y="-64" type="curve" smooth="yes"/>
      <point x="265" y="-64"/>
      <point x="293" y="-74"/>
      <point x="335" y="-87" type="curve"/>
      <point x="359" y="-56"/>
      <point x="373" y="-34"/>
      <point x="386" y="10" type="curve"/>
      <point x="361" y="43"/>
      <point x="303" y="77"/>
      <point x="262" y="86" type="curve"/>
      <point x="274" y="98"/>
      <point x="299" y="119"/>
      <point x="328" y="119" type="curve" smooth="yes"/>
      <point x="378" y="119"/>
      <point x="400" y="97"/>
      <point x="418" y="72" type="curve" smooth="yes"/>
      <point x="442" y="39"/>
      <point x="459" y="0"/>
      <point x="524" y="0" type="curve" smooth="yes"/>
      <point x="563" y="0" type="line"/>
      <point x="563" y="139" type="line"/>
    </contour>
    <contour>
      <point x="279" y="0" type="move" name="caret_1"/>
    </contour>
    <contour>
      <point x="322" y="-140" type="move" name="bottom_1"/>
    </contour>
    <contour>
      <point x="291" y="255" type="move" name="top_1"/>
    </contour>
    <contour>
      <point x="70" y="119" type="move" name="top_2"/>
    </contour>
    <contour>
      <point x="143" y="-524" type="move" name="bottom_2"/>
    </contour>
  </outline>
</glyph>
<glyph name="uni066E0649.fina" format="1">
  <advance width="815"/>
  <outline>
    <contour>
      <point x="815" y="139" type="line"/>
      <point x="729" y="140" type="line"/>
      <point x="677" y="140"/>
      <point x="649" y="158"/>
      <point x="628" y="179" type="curve" smooth="yes"/>
      <point x="596" y="210"/>
      <point x="579" y="247"/>
      <point x="525" y="247" type="curve" smooth="yes"/>
      <point x="489" y="247"/>
      <point x="459" y="226"/>
      <point x="428" y="178" type="curve" smooth="yes"/>
      <point x="418" y="163"/>
      <point x="397" y="127"/>
      <point x="385" y="96" type="curve" smooth="yes"/>
      <point x="372" y="63"/>
      <point x="363" y="22"/>
      <point x="376" y="-5" type="curve" smooth="yes"/>
      <point x="385" y="-25"/>
      <point x="411" y="-43"/>
      <point x="450" y="-54" type="curve" smooth="yes"/>
      <point x="476" y="-61"/>
      <point x="504" y="-65"/>
      <point x="524" y="-67" type="curve"/>
      <point x="524" y="-91"/>
      <point x="484" y="-109"/>
      <point x="434" y="-119" type="curve" smooth="yes"/>
      <point x="396" y="-126"/>
      <point x="352" y="-130"/>
      <point x="315" y="-130" type="curve" smooth="yes"/>
      <point x="275" y="-130"/>
      <point x="238" y="-126"/>
      <point x="208" y="-115" type="curve" smooth="yes"/>
      <point x="151" y="-94"/>
      <point x="133" y="-53"/>
      <point x="133" y="-4" type="curve" smooth="yes"/>
      <point x="133" y="16"/>
      <point x="136" y="43"/>
      <point x="142" y="66" type="curve"/>
      <point x="99" y="81" type="line"/>
      <point x="78" y="30"/>
      <point x="60" y="-32"/>
      <point x="60" y="-90" type="curve" smooth="yes"/>
      <point x="60" y="-153"/>
      <point x="81" y="-196"/>
      <point x="117" y="-227" type="curve" smooth="yes"/>
      <point x="158" y="-262"/>
      <point x="219" y="-283"/>
      <point x="292" y="-283" type="curve" smooth="yes"/>
      <point x="342" y="-283"/>
      <point x="388" y="-277"/>
      <point x="429" y="-265" type="curve" smooth="yes"/>
      <point x="482" y="-249"/>
      <point x="527" y="-222"/>
      <point x="558" y="-185" type="curve" smooth="yes"/>
      <point x="589" y="-149"/>
      <point x="607" y="-101"/>
      <point x="607" y="-43" type="curve" smooth="yes"/>
      <point x="607" y="0"/>
      <point x="577" y="21"/>
      <point x="532" y="25" type="curve" smooth="yes"/>
      <point x="508" y="27"/>
      <point x="500" y="28"/>
      <point x="484" y="33" type="curve" smooth="yes"/>
      <point x="465" y="39"/>
      <point x="454" y="51"/>
      <point x="454" y="68" type="curve" smooth="yes"/>
      <point x="454" y="93"/>
      <point x="477" y="118"/>
      <point x="515" y="118" type="curve" smooth="yes"/>
      <point x="585" y="118"/>
      <point x="610" y="77"/>
      <point x="643" y="44" type="curve" smooth="yes"/>
      <point x="666" y="20"/>
      <point x="693" y="0"/>
      <point x="742" y="0" type="curve"/>
      <point x="815" y="0" type="line"/>
    </contour>
    <contour>
      <point x="403" y="0" type="move" name="caret_1"/>
    </contour>
    <contour>
      <point x="574" y="-262" type="move" name="bottom_1"/>
    </contour>
    <contour>
      <point x="521" y="277" type="move" name="top_1"/>
    </contour>
    <contour>
      <point x="236" y="102" type="move" name="top_2"/>
    </contour>
    <contour>
      <point x="302" y="-313" type="move" name="bottom_2"/>
    </contour>
  </outline>
</glyph>
<glyph name="uni066F.fina" format="1">
  <advance width="673"/>
  <outline>
    <contour>
      <point x="394" y="309"/>
      <point x="362" y="289"/>
      <point x="338" y="244" type="curve" smooth="yes"/>
      <point x="322" y="214"/>
      <point x="310" y="178"/>
      <point x="310" y="136" type="curve" smooth="yes"/>
      <point x="310" y="93"/>
      <point x="322" y="50"/>
      <point x="348" y="27" type="curve" smooth="yes"/>
      <point x="360" y="16"/>
      <point x="386" y="0"/>
      <point x="440" y="0" type="curve" smooth="yes"/>
      <point x="473" y="0" type="line"/>
      <point x="471" y="-30"/>
      <point x="456" y="-60"/>
      <point x="432" y="-82" type="curve" smooth="yes"/>
      <point x="401" y="-111"/>
      <point x="355" y="-125"/>
      <point x="294" y="-125" type="curve" smooth="yes"/>
      <point x="226" y="-125"/>
      <point x="183" y="-113"/>
      <point x="158" y="-82" type="curve" smooth="yes"/>
      <point x="114" y="-27"/>
      <point x="142" y="60"/>
      <point x="142" y="60" type="curve"/>
      <point x="99" y="75" type="line"/>
      <point x="99" y="75"/>
      <point x="67" y="8"/>
      <point x="61" y="-67" type="curve" smooth="yes"/>
      <point x="58" y="-104"/>
      <point x="62" y="-132"/>
      <point x="74" y="-161" type="curve" smooth="yes"/>
      <point x="90" y="-199"/>
      <point x="117" y="-229"/>
      <point x="154" y="-249" type="curve" smooth="yes"/>
      <point x="191" y="-269"/>
      <point x="238" y="-279"/>
      <point x="289" y="-279" type="curve" smooth="yes"/>
      <point x="334" y="-279"/>
      <point x="371" y="-271"/>
      <point x="405" y="-255" type="curve" smooth="yes"/>
      <point x="436" y="-240"/>
      <point x="462" y="-219"/>
      <point x="485" y="-189" type="curve" smooth="yes"/>
      <point x="525" y="-137"/>
      <point x="545" y="-69"/>
      <point x="547" y="0" type="curve"/>
      <point x="673" y="0" type="line" smooth="yes"/>
      <point x="673" y="139" type="line" smooth="yes"/>
      <point x="544" y="139" type="line"/>
      <point x="538" y="188"/>
      <point x="526" y="224"/>
      <point x="512" y="250" type="curve" smooth="yes"/>
      <point x="504" y="265"/>
      <point x="477" y="309"/>
      <point x="427" y="309" type="curve" smooth="yes"/>
    </contour>
    <contour>
      <point x="451" y="218"/>
      <point x="466" y="171"/>
      <point x="473" y="139" type="curve"/>
      <point x="425" y="139" type="line" smooth="yes"/>
      <point x="374" y="139"/>
      <point x="367" y="154"/>
      <point x="367" y="172" type="curve" smooth="yes"/>
      <point x="367" y="205"/>
      <point x="391" y="218"/>
      <point x="412" y="218" type="curve" smooth="yes"/>
    </contour>
    <contour>
      <point x="414" y="342" type="move" name="top"/>
    </contour>
    <contour>
      <point x="289" y="-318" type="move" name="bottom"/>
    </contour>
  </outline>
</glyph>
<glyph name="uni0678.medi" format="1">
  <advance width="598"/>
  <outline>
    <contour>
      <point x="129" y="227" type="line"/>
      <point x="129" y="227"/>
      <point x="123" y="139"/>
      <point x="50" y="139" type="curve" smooth="yes"/>
      <point x="-10" y="139" type="line" smooth="yes"/>
      <point x="-34" y="139"/>
      <point x="-80" y="120"/>
      <point x="-80" y="71" type="curve" smooth="yes"/>
      <point x="-80" y="31"/>
      <point x="-49" y="0"/>
      <point x="-10" y="0" type="curve" smooth="yes"/>
      <point x="58" y="0" type="line" smooth="yes"/>
      <point x="91" y="0"/>
      <point x="116" y="11"/>
      <point x="133" y="23" type="curve" smooth="yes"/>
      <point x="149" y="35"/>
      <point x="158" y="48"/>
      <point x="159" y="50" type="curve"/>
      <point x="160" y="48"/>
      <point x="165" y="36"/>
      <point x="183" y="23" type="curve" smooth="yes"/>
      <point x="200" y="11"/>
      <point x="225" y="0"/>
      <point x="265" y="0" type="curve" smooth="yes"/>
      <point x="598" y="0" type="line"/>
      <point x="598" y="139" type="line"/>
      <point x="251" y="139" type="line" smooth="yes"/>
      <point x="222" y="139"/>
      <point x="202" y="146"/>
      <point x="190" y="159" type="curve" smooth="yes"/>
      <point x="167" y="186"/>
      <point x="180" y="246"/>
      <point x="180" y="246" type="curve"/>
    </contour>
    <component base="uni0654" xOffset="313" yOffset="-428"/>
    <contour>
      <point x="322" y="473" type="move" name="top"/>
    </contour>
    <contour>
      <point x="75" y="-29" type="move" name="bottom"/>
    </contour>
  </outline>
</glyph>
<glyph name="uni06A10649" format="1">
  <advance width="688"/>
  <outline>
    <contour>
      <point x="559" y="399"/>
      <point x="462" y="399" type="curve" smooth="yes"/>
      <point x="423" y="399"/>
      <point x="394" y="375"/>
      <point x="374" y="342" type="curve" smooth="yes"/>
      <point x="352" y="305"/>
      <point x="341" y="260"/>
      <point x="341" y="225" type="curve" smooth="yes"/>
      <point x="341" y="185"/>
      <point x="355" y="163"/>
      <point x="373" y="148" type="curve"/>
      <point x="392" y="130"/>
      <point x="421" y="121"/>
      <point x="455" y="121" type="curve" smooth="yes"/>
      <point x="478" y="121"/>
      <point x="498" y="125"/>
      <point x="515" y="138" type="curve"/>
      <point x="515" y="107"/>
      <point x="498" y="89"/>
      <point x="479" y="80" type="curve" smooth="yes"/>
      <point x="457" y="70"/>
      <point x="428" y="67"/>
      <point x="398" y="67" type="curve"/>
      <point x="391" y="38"/>
      <point x="391" y="27"/>
      <point x="389" y="-4" type="curve"/>
      <point x="430" y="-7"/>
      <point x="468" y="-11"/>
      <point x="498" y="-19" type="curve" smooth="yes"/>
      <point x="532" y="-28"/>
      <point x="550" y="-37"/>
      <point x="550" y="-52" type="curve"/>
      <point x="550" y="-69"/>
      <point x="524" y="-82"/>
      <point x="479" y="-100" type="curve" smooth="yes"/>
      <point x="441" y="-115"/>
      <point x="391" y="-128"/>
      <point x="303" y="-128" type="curve" smooth="yes"/>
      <point x="231" y="-128"/>
      <point x="186" y="-112"/>
      <point x="159" y="-80" type="curve" smooth="yes"/>
      <point x="135" y="-51"/>
      <point x="129" y="-6"/>
      <point x="142" y="67" type="curve"/>
      <point x="99" y="82" type="line"/>
      <point x="84" y="46"/>
      <point x="71" y="2"/>
      <point x="64" y="-43" type="curve" smooth="yes"/>
      <point x="57" y="-87"/>
      <point x="59" y="-125"/>
      <point x="75" y="-163" type="curve" smooth="yes"/>
      <point x="90" y="-199"/>
      <point x="114" y="-227"/>
      <point x="154" y="-249" type="curve" smooth="yes"/>
      <point x="192" y="-270"/>
      <point x="236" y="-281"/>
      <point x="290" y="-281" type="curve" smooth="yes"/>
      <point x="367" y="-281"/>
      <point x="441" y="-265"/>
      <point x="498" y="-235" type="curve" smooth="yes"/>
      <point x="551" y="-207"/>
      <point x="593" y="-169"/>
      <point x="616" y="-126" type="curve" smooth="yes"/>
      <point x="633" y="-94"/>
      <point x="638" y="-63"/>
      <point x="638" y="-42" type="curve" smooth="yes"/>
      <point x="638" y="7"/>
      <point x="611" y="46"/>
      <point x="560" y="59" type="curve"/>
      <point x="573" y="77"/>
      <point x="581" y="100"/>
      <point x="586" y="131" type="curve" smooth="yes"/>
      <point x="605" y="248"/>
    </contour>
    <contour>
      <point x="489" y="232"/>
      <point x="476" y="227"/>
      <point x="451" y="227" type="curve" smooth="yes"/>
      <point x="405" y="227"/>
      <point x="397" y="245"/>
      <point x="397" y="261" type="curve" smooth="yes"/>
      <point x="397" y="285"/>
      <point x="415" y="306"/>
      <point x="443" y="306" type="curve" smooth="yes"/>
      <point x="488" y="306"/>
      <point x="499" y="249"/>
      <point x="501" y="242" type="curve"/>
    </contour>
    <contour>
      <point x="354" y="0" type="move" name="caret_1"/>
    </contour>
    <contour>
      <point x="512" y="-309" type="move" name="bottom_1"/>
    </contour>
    <contour>
      <point x="440" y="429" type="move" name="top_1"/>
    </contour>
    <contour>
      <point x="188" y="91" type="move" name="top_2"/>
    </contour>
    <contour>
      <point x="246" y="-311" type="move" name="bottom_2"/>
    </contour>
  </outline>
</glyph>
<glyph name="uni075A.fina" format="1">
  <advance width="554"/>
  <outline>
    <component base="uniFEAA"/>
    <component base="circumflex.below" xOffset="199" yOffset="152"/>
    <contour>
      <point x="211" y="-280" type="move" name="bottom"/>
    </contour>
  </outline>
</glyph>
<glyph name="uni08A0.fina" format="1">
  <advance width="924"/>
  <outline>
    <component base="uni066E.fina"/>
    <component base="vbelowar" xOffset="408" yOffset="132"/>
    <contour>
      <point x="408" y="-286" type="move" name="bottom"/>
    </contour>
  </outline>
</glyph>
<glyph name="uni08A0.init" format="1">
  <advance width="244"/>
  <outline>
    <component base="uni066E.init"/>
    <component base="vbelowar" xOffset="19" yOffset="151"/>
    <contour>
      <point x="20" y="-266" type="move" name="bottom"/>
    </contour>
  </outline>
</glyph>
<glyph name="uniFB94.001" format="1">
  <advance width="686"/>
  <outline>
    <contour>
      <point x="630" y="171"/>
      <point x="624" y="204"/>
      <point x="595" y="243" type="curve" smooth="yes"/>
      <point x="557" y="293"/>
      <point x="495" y="319"/>
      <point x="411" y="319" type="curve" smooth="yes"/>
      <point x="341" y="317"/>
      <point x="270" y="316"/>
      <point x="200" y="314" type="curve" smooth="yes"/>
      <point x="175" y="314"/>
      <point x="157" y="316"/>
      <point x="142" y="320" type="curve"/>
      <point x="111" y="327"/>
      <point x="102" y="338"/>
      <point x="101" y="339" type="curve"/>
      <point x="142" y="375"/>
      <point x="189" y="397"/>
      <point x="254" y="417" type="curve"/>
      <point x="266" y="461"/>
      <point x="273" y="497"/>
      <point x="278" y="547" type="curve"/>
      <point x="190" y="517"/>
      <point x="132" y="488"/>
      <point x="76" y="425" type="curve" smooth="yes"/>
      <point x="40" y="384"/>
      <point x="20" y="339"/>
      <point x="20" y="301" type="curve" smooth="yes"/>
      <point x="20" y="277"/>
      <point x="29" y="256"/>
      <point x="46" y="240" type="curve" smooth="yes"/>
      <point x="64" y="222"/>
      <point x="92" y="210"/>
      <point x="128" y="203" type="curve" smooth="yes"/>
      <point x="151" y="198"/>
      <point x="173" y="197"/>
      <point x="185" y="197" type="curve" smooth="yes"/>
      <point x="293" y="197"/>
      <point x="411" y="203"/>
      <point x="441" y="203" type="curve" smooth="yes"/>
      <point x="466" y="203"/>
      <point x="489" y="196"/>
      <point x="510" y="185" type="curve" smooth="yes"/>
      <point x="533" y="173"/>
      <point x="551" y="151"/>
      <point x="556" y="144" type="curve"/>
      <point x="522" y="143"/>
      <point x="490" y="142"/>
      <point x="459" y="141" type="curve" smooth="yes"/>
      <point x="424" y="139"/>
      <point x="387" y="140"/>
      <point x="350" y="139" type="curve" smooth="yes"/>
      <point x="313" y="138"/>
      <point x="263" y="138"/>
      <point x="54" y="140" type="curve"/>
      <point x="-10" y="139" type="line" smooth="yes"/>
      <point x="-34" y="139"/>
      <point x="-80" y="120"/>
      <point x="-80" y="71" type="curve" smooth="yes"/>
      <point x="-80" y="31"/>
      <point x="-49" y="0"/>
      <point x="-10" y="0" type="curve" smooth="yes"/>
      <point x="110" y="0" type="line" smooth="yes"/>
      <point x="252" y="0"/>
      <point x="313" y="-4"/>
      <point x="505" y="4" type="curve" smooth="yes"/>
      <point x="547" y="6"/>
      <point x="583" y="26"/>
      <point x="609" y="62" type="curve" smooth="yes"/>
      <point x="620" y="78"/>
      <point x="629" y="95"/>
      <point x="636" y="118" type="curve"/>
    </contour>
    <contour>
      <point x="275" y="593"/>
      <point x="280" y="614"/>
      <point x="279" y="634" type="curve"/>
      <point x="204" y="613"/>
      <point x="150" y="583"/>
      <point x="112" y="552" type="curve" smooth="yes"/>
      <point x="60" y="508"/>
      <point x="39" y="462"/>
      <point x="35" y="435" type="curve"/>
      <point x="47" y="425" type="line"/>
      <point x="63" y="447"/>
      <point x="89" y="481"/>
      <point x="140" y="515" type="curve" smooth="yes"/>
      <point x="172" y="535"/>
      <point x="213" y="556"/>
      <point x="267" y="573" type="curve"/>
    </contour>
    <contour>
      <point x="84" y="573" type="move" name="top"/>
    </contour>
    <contour>
      <point x="276" y="-28" type="move" name="bottom"/>
    </contour>
  </outline>
</glyph>
<glyph name="uniFC53.fina" format="1">
  <advance width="1044"/>
  <outline>
    <contour>
      <point x="897" y="139" type="line" smooth="yes"/>
      <point x="856" y="139"/>
      <point x="816" y="130"/>
      <point x="787" y="107" type="curve" smooth="yes"/>
      <point x="765" y="89"/>
      <point x="748" y="63"/>
      <point x="742" y="27" type="curve"/>
      <point x="694" y="87"/>
      <point x="731" y="169"/>
      <point x="701" y="212" type="curve" smooth="yes"/>
      <point x="685" y="234"/>
      <point x="662" y="246"/>
      <point x="624" y="246" type="curve" smooth="yes"/>
      <point x="581" y="246"/>
      <point x="522" y="230"/>
      <point x="479" y="201" type="curve" smooth="yes"/>
      <point x="435" y="172"/>
      <point x="402" y="134"/>
      <point x="386" y="95" type="curve" smooth="yes"/>
      <point x="371" y="56"/>
      <point x="369" y="27"/>
      <point x="381" y="4" type="curve" smooth="yes"/>
      <point x="394" y="-20"/>
      <point x="419" y="-30"/>
      <point x="444" y="-36" type="curve" smooth="yes"/>
      <point x="472" y="-43"/>
      <point x="500" y="-46"/>
      <point x="514" y="-59" type="curve"/>
      <point x="488" y="-94"/>
      <point x="447" y="-113"/>
      <point x="402" y="-123" type="curve" smooth="yes"/>
      <point x="373" y="-129"/>
      <point x="343" y="-131"/>
      <point x="314" y="-131" type="curve" smooth="yes"/>
      <point x="275" y="-131"/>
      <point x="239" y="-124"/>
      <point x="210" y="-112" type="curve" smooth="yes"/>
      <point x="184" y="-101"/>
      <point x="164" y="-86"/>
      <point x="152" y="-68" type="curve" smooth="yes"/>
      <point x="131" y="-38"/>
      <point x="125" y="17"/>
      <point x="145" y="66" type="curve"/>
      <point x="100" y="82" type="line"/>
      <point x="72" y="23"/>
      <point x="58" y="-43"/>
      <point x="60" y="-99" type="curve" smooth="yes"/>
      <point x="62" y="-152"/>
      <point x="82" y="-197"/>
      <point x="118" y="-228" type="curve" smooth="yes"/>
      <point x="159" y="-265"/>
      <point x="217" y="-283"/>
      <point x="293" y="-283" type="curve" smooth="yes"/>
      <point x="350" y="-283"/>
      <point x="402" y="-273"/>
      <point x="445" y="-252" type="curve" smooth="yes"/>
      <point x="494" y="-230"/>
      <point x="533" y="-195"/>
      <point x="556" y="-149" type="curve" smooth="yes"/>
      <point x="572" y="-119"/>
      <point x="580" y="-83"/>
      <point x="580" y="-43" type="curve" smooth="yes"/>
      <point x="580" y="13"/>
      <point x="549" y="33"/>
      <point x="518" y="44" type="curve" smooth="yes"/>
      <point x="486" y="54"/>
      <point x="454" y="56"/>
      <point x="454" y="79" type="curve"/>
      <point x="454" y="93"/>
      <point x="475" y="109"/>
      <point x="505" y="120" type="curve" smooth="yes"/>
      <point x="530" y="130"/>
      <point x="571" y="137"/>
      <point x="600" y="137" type="curve" smooth="yes"/>
      <point x="637" y="137"/>
      <point x="651" y="111"/>
      <point x="649" y="62" type="curve"/>
      <point x="649" y="13"/>
      <point x="659" y="-36"/>
      <point x="680" y="-80" type="curve" smooth="yes"/>
      <point x="700" y="-124"/>
      <point x="731" y="-162"/>
      <point x="773" y="-189" type="curve"/>
      <point x="806" y="-160"/>
      <point x="829" y="-136"/>
      <point x="857" y="-101" type="curve"/>
      <point x="840" y="-83"/>
      <point x="827" y="-69"/>
      <point x="821" y="-43" type="curve" smooth="yes"/>
      <point x="818" y="-29"/>
      <point x="816" y="-14"/>
      <point x="823" y="2" type="curve" smooth="yes"/>
      <point x="830" y="19"/>
      <point x="849" y="33"/>
      <point x="876" y="33" type="curve" smooth="yes"/>
      <point x="896" y="33"/>
      <point x="909" y="25"/>
      <point x="921" y="18" type="curve" smooth="yes"/>
      <point x="940" y="7"/>
      <point x="951" y="0"/>
      <point x="990" y="0" type="curve" smooth="yes"/>
      <point x="1044" y="0" type="line"/>
      <point x="1044" y="139" type="line"/>
    </contour>
    <contour>
      <point x="522" y="0" type="move" name="caret_1"/>
    </contour>
    <contour>
      <point x="773" y="-209" type="move" name="bottom_1"/>
    </contour>
    <contour>
      <point x="807" y="257" type="move" name="top_1"/>
    </contour>
    <contour>
      <point x="458" y="280" type="move" name="top_2"/>
    </contour>
    <contour>
      <point x="303" y="-303" type="move" name="bottom_2"/>
    </contour>
  </outline>
</glyph>
<glyph name="wasla-ar" format="1">
  <advance width="0"/>
  <outline>
    <contour>
      <point x="80" y="809"/>
      <point x="47" y="825"/>
      <point x="30" y="825" type="curve" smooth="yes"/>
      <point x="10" y="825"/>
      <point x="-9" y="814"/>
      <point x="-28" y="791" type="curve" smooth="yes"/>
      <point x="-36" y="781"/>
      <point x="-43" y="771"/>
      <point x="-47" y="765" type="curve"/>
      <point x="-57" y="768"/>
      <point x="-67" y="766"/>
      <point x="-74" y="763" type="curve" smooth="yes"/>
      <point x="-85" y="758"/>
      <point x="-94" y="748"/>
      <point x="-96" y="739" type="curve"/>
      <point x="-98" y="730"/>
      <point x="-99" y="719"/>
      <point x="-102" y="695" type="curve"/>
      <point x="-85" y="714"/>
      <point x="-75" y="717"/>
      <point x="-62" y="717" type="curve" smooth="yes"/>
      <point x="-55" y="717"/>
      <point x="-48" y="713"/>
      <point x="-41" y="710" type="curve" smooth="yes"/>
      <point x="-31" y="704"/>
      <point x="-20" y="699"/>
      <point x="-4" y="699" type="curve" smooth="yes"/>
      <point x="51" y="699"/>
      <point x="80" y="748"/>
      <point x="80" y="783" type="curve" smooth="yes"/>
    </contour>
    <contour>
      <point x="47" y="762"/>
      <point x="31" y="756"/>
      <point x="5" y="756" type="curve" smooth="yes"/>
      <point x="-7" y="756"/>
      <point x="-17" y="757"/>
      <point x="-23" y="759" type="curve"/>
      <point x="-11" y="772"/>
      <point x="8" y="789"/>
      <point x="27" y="789" type="curve" smooth="yes"/>
      <point x="44" y="789"/>
      <point x="51" y="777"/>
      <point x="55" y="769" type="curve"/>
    </contour>
    <contour>
      <point x="-11" y="825" type="move" name="top"/>
    </contour>
    <contour>
      <point x="-11" y="675" type="move" name="_top"/>
    </contour>
  </outline>
</glyph>
